G04 #@! TF.GenerationSoftware,KiCad,Pcbnew,(5.0.1)-4*
G04 #@! TF.CreationDate,2018-12-14T16:01:06+02:00*
G04 #@! TF.ProjectId,pods,706F64732E6B696361645F7063620000,rev?*
G04 #@! TF.SameCoordinates,Original*
G04 #@! TF.FileFunction,Soldermask,Top*
G04 #@! TF.FilePolarity,Negative*
%FSLAX46Y46*%
G04 Gerber Fmt 4.6, Leading zero omitted, Abs format (unit mm)*
G04 Created by KiCad (PCBNEW (5.0.1)-4) date 2018-12-14 16:01:06*
%MOMM*%
%LPD*%
G01*
G04 APERTURE LIST*
%ADD10C,0.100000*%
%ADD11C,0.150000*%
%ADD12C,0.300000*%
%ADD13C,0.400000*%
G04 APERTURE END LIST*
D10*
D11*
X79999600Y-155999600D02*
X79999600Y-187999600D01*
X187999600Y-187999600D01*
X187999600Y-155999600D01*
X79999600Y-155999600D01*
D10*
D11*
X10000000Y-10000000D02*
X10000000Y-189999600D01*
X189999600Y-189999600D01*
X189999600Y-10000000D01*
X10000000Y-10000000D01*
D10*
D11*
X12000000Y-12000000D02*
X12000000Y-187999600D01*
X187999600Y-187999600D01*
X187999600Y-12000000D01*
X12000000Y-12000000D01*
D10*
D11*
X60000000Y-12000000D02*
X60000000Y-10000000D01*
D10*
D11*
X110000000Y-12000000D02*
X110000000Y-10000000D01*
D10*
D11*
X160000000Y-12000000D02*
X160000000Y-10000000D01*
D10*
D11*
X36065476Y-11588095D02*
X35322619Y-11588095D01*
X35694047Y-11588095D02*
X35694047Y-10288095D01*
X35570238Y-10473809D01*
X35446428Y-10597619D01*
X35322619Y-10659523D01*
D10*
D11*
X85322619Y-10411904D02*
X85384523Y-10350000D01*
X85508333Y-10288095D01*
X85817857Y-10288095D01*
X85941666Y-10350000D01*
X86003571Y-10411904D01*
X86065476Y-10535714D01*
X86065476Y-10659523D01*
X86003571Y-10845238D01*
X85260714Y-11588095D01*
X86065476Y-11588095D01*
D10*
D11*
X135260714Y-10288095D02*
X136065476Y-10288095D01*
X135632142Y-10783333D01*
X135817857Y-10783333D01*
X135941666Y-10845238D01*
X136003571Y-10907142D01*
X136065476Y-11030952D01*
X136065476Y-11340476D01*
X136003571Y-11464285D01*
X135941666Y-11526190D01*
X135817857Y-11588095D01*
X135446428Y-11588095D01*
X135322619Y-11526190D01*
X135260714Y-11464285D01*
D10*
D11*
X185941666Y-10721428D02*
X185941666Y-11588095D01*
X185632142Y-10226190D02*
X185322619Y-11154761D01*
X186127380Y-11154761D01*
D10*
D11*
X60000000Y-187999600D02*
X60000000Y-189999600D01*
D10*
D11*
X110000000Y-187999600D02*
X110000000Y-189999600D01*
D10*
D11*
X160000000Y-187999600D02*
X160000000Y-189999600D01*
D10*
D11*
X36065476Y-189587695D02*
X35322619Y-189587695D01*
X35694047Y-189587695D02*
X35694047Y-188287695D01*
X35570238Y-188473409D01*
X35446428Y-188597219D01*
X35322619Y-188659123D01*
D10*
D11*
X85322619Y-188411504D02*
X85384523Y-188349600D01*
X85508333Y-188287695D01*
X85817857Y-188287695D01*
X85941666Y-188349600D01*
X86003571Y-188411504D01*
X86065476Y-188535314D01*
X86065476Y-188659123D01*
X86003571Y-188844838D01*
X85260714Y-189587695D01*
X86065476Y-189587695D01*
D10*
D11*
X135260714Y-188287695D02*
X136065476Y-188287695D01*
X135632142Y-188782933D01*
X135817857Y-188782933D01*
X135941666Y-188844838D01*
X136003571Y-188906742D01*
X136065476Y-189030552D01*
X136065476Y-189340076D01*
X136003571Y-189463885D01*
X135941666Y-189525790D01*
X135817857Y-189587695D01*
X135446428Y-189587695D01*
X135322619Y-189525790D01*
X135260714Y-189463885D01*
D10*
D11*
X185941666Y-188721028D02*
X185941666Y-189587695D01*
X185632142Y-188225790D02*
X185322619Y-189154361D01*
X186127380Y-189154361D01*
D10*
D11*
X10000000Y-60000000D02*
X12000000Y-60000000D01*
D10*
D11*
X10000000Y-110000000D02*
X12000000Y-110000000D01*
D10*
D11*
X10000000Y-160000000D02*
X12000000Y-160000000D01*
D10*
D11*
X10690476Y-35216666D02*
X11309523Y-35216666D01*
X10566666Y-35588095D02*
X11000000Y-34288095D01*
X11433333Y-35588095D01*
D10*
D11*
X11092857Y-84907142D02*
X11278571Y-84969047D01*
X11340476Y-85030952D01*
X11402380Y-85154761D01*
X11402380Y-85340476D01*
X11340476Y-85464285D01*
X11278571Y-85526190D01*
X11154761Y-85588095D01*
X10659523Y-85588095D01*
X10659523Y-84288095D01*
X11092857Y-84288095D01*
X11216666Y-84350000D01*
X11278571Y-84411904D01*
X11340476Y-84535714D01*
X11340476Y-84659523D01*
X11278571Y-84783333D01*
X11216666Y-84845238D01*
X11092857Y-84907142D01*
X10659523Y-84907142D01*
D10*
D11*
X11402380Y-135464285D02*
X11340476Y-135526190D01*
X11154761Y-135588095D01*
X11030952Y-135588095D01*
X10845238Y-135526190D01*
X10721428Y-135402380D01*
X10659523Y-135278571D01*
X10597619Y-135030952D01*
X10597619Y-134845238D01*
X10659523Y-134597619D01*
X10721428Y-134473809D01*
X10845238Y-134350000D01*
X11030952Y-134288095D01*
X11154761Y-134288095D01*
X11340476Y-134350000D01*
X11402380Y-134411904D01*
D10*
D11*
X10659523Y-185588095D02*
X10659523Y-184288095D01*
X10969047Y-184288095D01*
X11154761Y-184350000D01*
X11278571Y-184473809D01*
X11340476Y-184597619D01*
X11402380Y-184845238D01*
X11402380Y-185030952D01*
X11340476Y-185278571D01*
X11278571Y-185402380D01*
X11154761Y-185526190D01*
X10969047Y-185588095D01*
X10659523Y-185588095D01*
D10*
D11*
X189999600Y-60000000D02*
X187999600Y-60000000D01*
D10*
D11*
X189999600Y-110000000D02*
X187999600Y-110000000D01*
D10*
D11*
X189999600Y-160000000D02*
X187999600Y-160000000D01*
D10*
D11*
X188690076Y-35216666D02*
X189309123Y-35216666D01*
X188566266Y-35588095D02*
X188999600Y-34288095D01*
X189432933Y-35588095D01*
D10*
D11*
X189092457Y-84907142D02*
X189278171Y-84969047D01*
X189340076Y-85030952D01*
X189401980Y-85154761D01*
X189401980Y-85340476D01*
X189340076Y-85464285D01*
X189278171Y-85526190D01*
X189154361Y-85588095D01*
X188659123Y-85588095D01*
X188659123Y-84288095D01*
X189092457Y-84288095D01*
X189216266Y-84350000D01*
X189278171Y-84411904D01*
X189340076Y-84535714D01*
X189340076Y-84659523D01*
X189278171Y-84783333D01*
X189216266Y-84845238D01*
X189092457Y-84907142D01*
X188659123Y-84907142D01*
D10*
D11*
X189401980Y-135464285D02*
X189340076Y-135526190D01*
X189154361Y-135588095D01*
X189030552Y-135588095D01*
X188844838Y-135526190D01*
X188721028Y-135402380D01*
X188659123Y-135278571D01*
X188597219Y-135030952D01*
X188597219Y-134845238D01*
X188659123Y-134597619D01*
X188721028Y-134473809D01*
X188844838Y-134350000D01*
X189030552Y-134288095D01*
X189154361Y-134288095D01*
X189340076Y-134350000D01*
X189401980Y-134411904D01*
D10*
D11*
X188659123Y-185588095D02*
X188659123Y-184288095D01*
X188968647Y-184288095D01*
X189154361Y-184350000D01*
X189278171Y-184473809D01*
X189340076Y-184597619D01*
X189401980Y-184845238D01*
X189401980Y-185030952D01*
X189340076Y-185278571D01*
X189278171Y-185402380D01*
X189154361Y-185526190D01*
X188968647Y-185588095D01*
X188659123Y-185588095D01*
D10*
D11*
X103431742Y-183778171D02*
X103431742Y-182278171D01*
X103788885Y-182278171D01*
X104003171Y-182349600D01*
X104146028Y-182492457D01*
X104217457Y-182635314D01*
X104288885Y-182921028D01*
X104288885Y-183135314D01*
X104217457Y-183421028D01*
X104146028Y-183563885D01*
X104003171Y-183706742D01*
X103788885Y-183778171D01*
X103431742Y-183778171D01*
X105574600Y-183778171D02*
X105574600Y-182992457D01*
X105503171Y-182849600D01*
X105360314Y-182778171D01*
X105074600Y-182778171D01*
X104931742Y-182849600D01*
X105574600Y-183706742D02*
X105431742Y-183778171D01*
X105074600Y-183778171D01*
X104931742Y-183706742D01*
X104860314Y-183563885D01*
X104860314Y-183421028D01*
X104931742Y-183278171D01*
X105074600Y-183206742D01*
X105431742Y-183206742D01*
X105574600Y-183135314D01*
X106074600Y-182778171D02*
X106646028Y-182778171D01*
X106288885Y-182278171D02*
X106288885Y-183563885D01*
X106360314Y-183706742D01*
X106503171Y-183778171D01*
X106646028Y-183778171D01*
X107717457Y-183706742D02*
X107574600Y-183778171D01*
X107288885Y-183778171D01*
X107146028Y-183706742D01*
X107074600Y-183563885D01*
X107074600Y-182992457D01*
X107146028Y-182849600D01*
X107288885Y-182778171D01*
X107574600Y-182778171D01*
X107717457Y-182849600D01*
X107788885Y-182992457D01*
X107788885Y-183135314D01*
X107074600Y-183278171D01*
X108431742Y-183635314D02*
X108503171Y-183706742D01*
X108431742Y-183778171D01*
X108360314Y-183706742D01*
X108431742Y-183635314D01*
X108431742Y-183778171D01*
X108431742Y-182849600D02*
X108503171Y-182921028D01*
X108431742Y-182992457D01*
X108360314Y-182921028D01*
X108431742Y-182849600D01*
X108431742Y-182992457D01*
D10*
D11*
X79999600Y-184499600D02*
X187999600Y-184499600D01*
D10*
D11*
X81431742Y-186578171D02*
X81431742Y-185078171D01*
X82288885Y-186578171D02*
X81646028Y-185721028D01*
X82288885Y-185078171D02*
X81431742Y-185935314D01*
X82931742Y-186578171D02*
X82931742Y-185578171D01*
X82931742Y-185078171D02*
X82860314Y-185149600D01*
X82931742Y-185221028D01*
X83003171Y-185149600D01*
X82931742Y-185078171D01*
X82931742Y-185221028D01*
X84503171Y-186435314D02*
X84431742Y-186506742D01*
X84217457Y-186578171D01*
X84074600Y-186578171D01*
X83860314Y-186506742D01*
X83717457Y-186363885D01*
X83646028Y-186221028D01*
X83574600Y-185935314D01*
X83574600Y-185721028D01*
X83646028Y-185435314D01*
X83717457Y-185292457D01*
X83860314Y-185149600D01*
X84074600Y-185078171D01*
X84217457Y-185078171D01*
X84431742Y-185149600D01*
X84503171Y-185221028D01*
X85788885Y-186578171D02*
X85788885Y-185792457D01*
X85717457Y-185649600D01*
X85574600Y-185578171D01*
X85288885Y-185578171D01*
X85146028Y-185649600D01*
X85788885Y-186506742D02*
X85646028Y-186578171D01*
X85288885Y-186578171D01*
X85146028Y-186506742D01*
X85074600Y-186363885D01*
X85074600Y-186221028D01*
X85146028Y-186078171D01*
X85288885Y-186006742D01*
X85646028Y-186006742D01*
X85788885Y-185935314D01*
X87146028Y-186578171D02*
X87146028Y-185078171D01*
X87146028Y-186506742D02*
X87003171Y-186578171D01*
X86717457Y-186578171D01*
X86574600Y-186506742D01*
X86503171Y-186435314D01*
X86431742Y-186292457D01*
X86431742Y-185863885D01*
X86503171Y-185721028D01*
X86574600Y-185649600D01*
X86717457Y-185578171D01*
X87003171Y-185578171D01*
X87146028Y-185649600D01*
X89003171Y-185792457D02*
X89503171Y-185792457D01*
X89717457Y-186578171D02*
X89003171Y-186578171D01*
X89003171Y-185078171D01*
X89717457Y-185078171D01*
X90360314Y-186435314D02*
X90431742Y-186506742D01*
X90360314Y-186578171D01*
X90288885Y-186506742D01*
X90360314Y-186435314D01*
X90360314Y-186578171D01*
X91074600Y-186578171D02*
X91074600Y-185078171D01*
X91431742Y-185078171D01*
X91646028Y-185149600D01*
X91788885Y-185292457D01*
X91860314Y-185435314D01*
X91931742Y-185721028D01*
X91931742Y-185935314D01*
X91860314Y-186221028D01*
X91788885Y-186363885D01*
X91646028Y-186506742D01*
X91431742Y-186578171D01*
X91074600Y-186578171D01*
X92574600Y-186435314D02*
X92646028Y-186506742D01*
X92574600Y-186578171D01*
X92503171Y-186506742D01*
X92574600Y-186435314D01*
X92574600Y-186578171D01*
X93217457Y-186149600D02*
X93931742Y-186149600D01*
X93074600Y-186578171D02*
X93574600Y-185078171D01*
X94074600Y-186578171D01*
X94574600Y-186435314D02*
X94646028Y-186506742D01*
X94574600Y-186578171D01*
X94503171Y-186506742D01*
X94574600Y-186435314D01*
X94574600Y-186578171D01*
X97574600Y-186578171D02*
X97574600Y-185078171D01*
X97717457Y-186006742D02*
X98146028Y-186578171D01*
X98146028Y-185578171D02*
X97574600Y-186149600D01*
X98788885Y-186578171D02*
X98788885Y-185578171D01*
X98788885Y-185078171D02*
X98717457Y-185149600D01*
X98788885Y-185221028D01*
X98860314Y-185149600D01*
X98788885Y-185078171D01*
X98788885Y-185221028D01*
X100146028Y-186506742D02*
X100003171Y-186578171D01*
X99717457Y-186578171D01*
X99574600Y-186506742D01*
X99503171Y-186435314D01*
X99431742Y-186292457D01*
X99431742Y-185863885D01*
X99503171Y-185721028D01*
X99574600Y-185649600D01*
X99717457Y-185578171D01*
X100003171Y-185578171D01*
X100146028Y-185649600D01*
X101431742Y-186578171D02*
X101431742Y-185792457D01*
X101360314Y-185649600D01*
X101217457Y-185578171D01*
X100931742Y-185578171D01*
X100788885Y-185649600D01*
X101431742Y-186506742D02*
X101288885Y-186578171D01*
X100931742Y-186578171D01*
X100788885Y-186506742D01*
X100717457Y-186363885D01*
X100717457Y-186221028D01*
X100788885Y-186078171D01*
X100931742Y-186006742D01*
X101288885Y-186006742D01*
X101431742Y-185935314D01*
X102788885Y-186578171D02*
X102788885Y-185078171D01*
X102788885Y-186506742D02*
X102646028Y-186578171D01*
X102360314Y-186578171D01*
X102217457Y-186506742D01*
X102146028Y-186435314D01*
X102074600Y-186292457D01*
X102074600Y-185863885D01*
X102146028Y-185721028D01*
X102217457Y-185649600D01*
X102360314Y-185578171D01*
X102646028Y-185578171D01*
X102788885Y-185649600D01*
X105074600Y-187149600D02*
X105003171Y-187078171D01*
X104860314Y-186863885D01*
X104788885Y-186721028D01*
X104717457Y-186506742D01*
X104646028Y-186149600D01*
X104646028Y-185863885D01*
X104717457Y-185506742D01*
X104788885Y-185292457D01*
X104860314Y-185149600D01*
X105003171Y-184935314D01*
X105074600Y-184863885D01*
X106360314Y-185078171D02*
X105646028Y-185078171D01*
X105574600Y-185792457D01*
X105646028Y-185721028D01*
X105788885Y-185649600D01*
X106146028Y-185649600D01*
X106288885Y-185721028D01*
X106360314Y-185792457D01*
X106431742Y-185935314D01*
X106431742Y-186292457D01*
X106360314Y-186435314D01*
X106288885Y-186506742D01*
X106146028Y-186578171D01*
X105788885Y-186578171D01*
X105646028Y-186506742D01*
X105574600Y-186435314D01*
X107074600Y-186435314D02*
X107146028Y-186506742D01*
X107074600Y-186578171D01*
X107003171Y-186506742D01*
X107074600Y-186435314D01*
X107074600Y-186578171D01*
X108074600Y-185078171D02*
X108217457Y-185078171D01*
X108360314Y-185149600D01*
X108431742Y-185221028D01*
X108503171Y-185363885D01*
X108574600Y-185649600D01*
X108574600Y-186006742D01*
X108503171Y-186292457D01*
X108431742Y-186435314D01*
X108360314Y-186506742D01*
X108217457Y-186578171D01*
X108074600Y-186578171D01*
X107931742Y-186506742D01*
X107860314Y-186435314D01*
X107788885Y-186292457D01*
X107717457Y-186006742D01*
X107717457Y-185649600D01*
X107788885Y-185363885D01*
X107860314Y-185221028D01*
X107931742Y-185149600D01*
X108074600Y-185078171D01*
X109217457Y-186435314D02*
X109288885Y-186506742D01*
X109217457Y-186578171D01*
X109146028Y-186506742D01*
X109217457Y-186435314D01*
X109217457Y-186578171D01*
X110717457Y-186578171D02*
X109860314Y-186578171D01*
X110288885Y-186578171D02*
X110288885Y-185078171D01*
X110146028Y-185292457D01*
X110003171Y-185435314D01*
X109860314Y-185506742D01*
X111217457Y-187149600D02*
X111288885Y-187078171D01*
X111431742Y-186863885D01*
X111503171Y-186721028D01*
X111574600Y-186506742D01*
X111646028Y-186149600D01*
X111646028Y-185863885D01*
X111574600Y-185506742D01*
X111503171Y-185292457D01*
X111431742Y-185149600D01*
X111288885Y-184935314D01*
X111217457Y-184863885D01*
X112360314Y-186006742D02*
X113503171Y-186006742D01*
X114860314Y-185578171D02*
X114860314Y-186578171D01*
X114503171Y-185006742D02*
X114146028Y-186078171D01*
X115074600Y-186078171D01*
D10*
D11*
X79999600Y-181499600D02*
X187999600Y-181499600D01*
D10*
D12*
X167408885Y-183778171D02*
X166908885Y-183063885D01*
X166551742Y-183778171D02*
X166551742Y-182278171D01*
X167123171Y-182278171D01*
X167266028Y-182349600D01*
X167337457Y-182421028D01*
X167408885Y-182563885D01*
X167408885Y-182778171D01*
X167337457Y-182921028D01*
X167266028Y-182992457D01*
X167123171Y-183063885D01*
X166551742Y-183063885D01*
X168623171Y-183706742D02*
X168480314Y-183778171D01*
X168194600Y-183778171D01*
X168051742Y-183706742D01*
X167980314Y-183563885D01*
X167980314Y-182992457D01*
X168051742Y-182849600D01*
X168194600Y-182778171D01*
X168480314Y-182778171D01*
X168623171Y-182849600D01*
X168694600Y-182992457D01*
X168694600Y-183135314D01*
X167980314Y-183278171D01*
X169194600Y-182778171D02*
X169551742Y-183778171D01*
X169908885Y-182778171D01*
X170480314Y-183635314D02*
X170551742Y-183706742D01*
X170480314Y-183778171D01*
X170408885Y-183706742D01*
X170480314Y-183635314D01*
X170480314Y-183778171D01*
X170480314Y-182849600D02*
X170551742Y-182921028D01*
X170480314Y-182992457D01*
X170408885Y-182921028D01*
X170480314Y-182849600D01*
X170480314Y-182992457D01*
D10*
D11*
X81360314Y-183706742D02*
X81574600Y-183778171D01*
X81931742Y-183778171D01*
X82074600Y-183706742D01*
X82146028Y-183635314D01*
X82217457Y-183492457D01*
X82217457Y-183349600D01*
X82146028Y-183206742D01*
X82074600Y-183135314D01*
X81931742Y-183063885D01*
X81646028Y-182992457D01*
X81503171Y-182921028D01*
X81431742Y-182849600D01*
X81360314Y-182706742D01*
X81360314Y-182563885D01*
X81431742Y-182421028D01*
X81503171Y-182349600D01*
X81646028Y-182278171D01*
X82003171Y-182278171D01*
X82217457Y-182349600D01*
X82860314Y-183778171D02*
X82860314Y-182778171D01*
X82860314Y-182278171D02*
X82788885Y-182349600D01*
X82860314Y-182421028D01*
X82931742Y-182349600D01*
X82860314Y-182278171D01*
X82860314Y-182421028D01*
X83431742Y-182778171D02*
X84217457Y-182778171D01*
X83431742Y-183778171D01*
X84217457Y-183778171D01*
X85360314Y-183706742D02*
X85217457Y-183778171D01*
X84931742Y-183778171D01*
X84788885Y-183706742D01*
X84717457Y-183563885D01*
X84717457Y-182992457D01*
X84788885Y-182849600D01*
X84931742Y-182778171D01*
X85217457Y-182778171D01*
X85360314Y-182849600D01*
X85431742Y-182992457D01*
X85431742Y-183135314D01*
X84717457Y-183278171D01*
X86074600Y-183635314D02*
X86146028Y-183706742D01*
X86074600Y-183778171D01*
X86003171Y-183706742D01*
X86074600Y-183635314D01*
X86074600Y-183778171D01*
X86074600Y-182849600D02*
X86146028Y-182921028D01*
X86074600Y-182992457D01*
X86003171Y-182921028D01*
X86074600Y-182849600D01*
X86074600Y-182992457D01*
X87931742Y-182278171D02*
X87931742Y-183492457D01*
X88003171Y-183635314D01*
X88074600Y-183706742D01*
X88217457Y-183778171D01*
X88503171Y-183778171D01*
X88646028Y-183706742D01*
X88717457Y-183635314D01*
X88788885Y-183492457D01*
X88788885Y-182278171D01*
X89431742Y-183706742D02*
X89574600Y-183778171D01*
X89860314Y-183778171D01*
X90003171Y-183706742D01*
X90074600Y-183563885D01*
X90074600Y-183492457D01*
X90003171Y-183349600D01*
X89860314Y-183278171D01*
X89646028Y-183278171D01*
X89503171Y-183206742D01*
X89431742Y-183063885D01*
X89431742Y-182992457D01*
X89503171Y-182849600D01*
X89646028Y-182778171D01*
X89860314Y-182778171D01*
X90003171Y-182849600D01*
X91288885Y-183706742D02*
X91146028Y-183778171D01*
X90860314Y-183778171D01*
X90717457Y-183706742D01*
X90646028Y-183563885D01*
X90646028Y-182992457D01*
X90717457Y-182849600D01*
X90860314Y-182778171D01*
X91146028Y-182778171D01*
X91288885Y-182849600D01*
X91360314Y-182992457D01*
X91360314Y-183135314D01*
X90646028Y-183278171D01*
X92003171Y-183778171D02*
X92003171Y-182778171D01*
X92003171Y-183063885D02*
X92074600Y-182921028D01*
X92146028Y-182849600D01*
X92288885Y-182778171D01*
X92431742Y-182778171D01*
D10*
D11*
X166431742Y-186578171D02*
X166431742Y-185078171D01*
X167788885Y-186578171D02*
X167788885Y-185078171D01*
X167788885Y-186506742D02*
X167646028Y-186578171D01*
X167360314Y-186578171D01*
X167217457Y-186506742D01*
X167146028Y-186435314D01*
X167074600Y-186292457D01*
X167074600Y-185863885D01*
X167146028Y-185721028D01*
X167217457Y-185649600D01*
X167360314Y-185578171D01*
X167646028Y-185578171D01*
X167788885Y-185649600D01*
X168503171Y-186435314D02*
X168574600Y-186506742D01*
X168503171Y-186578171D01*
X168431742Y-186506742D01*
X168503171Y-186435314D01*
X168503171Y-186578171D01*
X168503171Y-185649600D02*
X168574600Y-185721028D01*
X168503171Y-185792457D01*
X168431742Y-185721028D01*
X168503171Y-185649600D01*
X168503171Y-185792457D01*
X171146028Y-186578171D02*
X170288885Y-186578171D01*
X170717457Y-186578171D02*
X170717457Y-185078171D01*
X170574600Y-185292457D01*
X170431742Y-185435314D01*
X170288885Y-185506742D01*
X172860314Y-185006742D02*
X171574600Y-186935314D01*
X174146028Y-186578171D02*
X173288885Y-186578171D01*
X173717457Y-186578171D02*
X173717457Y-185078171D01*
X173574600Y-185292457D01*
X173431742Y-185435314D01*
X173288885Y-185506742D01*
D10*
D11*
X79999600Y-177499600D02*
X187999600Y-177499600D01*
D10*
D13*
X81711980Y-178204361D02*
X82854838Y-178204361D01*
X82033409Y-180204361D02*
X82283409Y-178204361D01*
X83271504Y-180204361D02*
X83438171Y-178871028D01*
X83521504Y-178204361D02*
X83414361Y-178299600D01*
X83497695Y-178394838D01*
X83604838Y-178299600D01*
X83521504Y-178204361D01*
X83497695Y-178394838D01*
X84104838Y-178871028D02*
X84866742Y-178871028D01*
X84473885Y-178204361D02*
X84259600Y-179918647D01*
X84331028Y-180109123D01*
X84509600Y-180204361D01*
X84700076Y-180204361D01*
X85652457Y-180204361D02*
X85473885Y-180109123D01*
X85402457Y-179918647D01*
X85616742Y-178204361D01*
X87188171Y-180109123D02*
X86985790Y-180204361D01*
X86604838Y-180204361D01*
X86426266Y-180109123D01*
X86354838Y-179918647D01*
X86450076Y-179156742D01*
X86569123Y-178966266D01*
X86771504Y-178871028D01*
X87152457Y-178871028D01*
X87331028Y-178966266D01*
X87402457Y-179156742D01*
X87378647Y-179347219D01*
X86402457Y-179537695D01*
X88152457Y-180013885D02*
X88235790Y-180109123D01*
X88128647Y-180204361D01*
X88045314Y-180109123D01*
X88152457Y-180013885D01*
X88128647Y-180204361D01*
X88283409Y-178966266D02*
X88366742Y-179061504D01*
X88259600Y-179156742D01*
X88176266Y-179061504D01*
X88283409Y-178966266D01*
X88259600Y-179156742D01*
D10*
D11*
X81931742Y-175592457D02*
X81431742Y-175592457D01*
X81431742Y-176378171D02*
X81431742Y-174878171D01*
X82146028Y-174878171D01*
X82717457Y-176378171D02*
X82717457Y-175378171D01*
X82717457Y-174878171D02*
X82646028Y-174949600D01*
X82717457Y-175021028D01*
X82788885Y-174949600D01*
X82717457Y-174878171D01*
X82717457Y-175021028D01*
X83646028Y-176378171D02*
X83503171Y-176306742D01*
X83431742Y-176163885D01*
X83431742Y-174878171D01*
X84788885Y-176306742D02*
X84646028Y-176378171D01*
X84360314Y-176378171D01*
X84217457Y-176306742D01*
X84146028Y-176163885D01*
X84146028Y-175592457D01*
X84217457Y-175449600D01*
X84360314Y-175378171D01*
X84646028Y-175378171D01*
X84788885Y-175449600D01*
X84860314Y-175592457D01*
X84860314Y-175735314D01*
X84146028Y-175878171D01*
X85503171Y-176235314D02*
X85574600Y-176306742D01*
X85503171Y-176378171D01*
X85431742Y-176306742D01*
X85503171Y-176235314D01*
X85503171Y-176378171D01*
X85503171Y-175449600D02*
X85574600Y-175521028D01*
X85503171Y-175592457D01*
X85431742Y-175521028D01*
X85503171Y-175449600D01*
X85503171Y-175592457D01*
X87360314Y-175378171D02*
X87360314Y-176878171D01*
X87360314Y-175449600D02*
X87503171Y-175378171D01*
X87788885Y-175378171D01*
X87931742Y-175449600D01*
X88003171Y-175521028D01*
X88074600Y-175663885D01*
X88074600Y-176092457D01*
X88003171Y-176235314D01*
X87931742Y-176306742D01*
X87788885Y-176378171D01*
X87503171Y-176378171D01*
X87360314Y-176306742D01*
X88931742Y-176378171D02*
X88788885Y-176306742D01*
X88717457Y-176235314D01*
X88646028Y-176092457D01*
X88646028Y-175663885D01*
X88717457Y-175521028D01*
X88788885Y-175449600D01*
X88931742Y-175378171D01*
X89146028Y-175378171D01*
X89288885Y-175449600D01*
X89360314Y-175521028D01*
X89431742Y-175663885D01*
X89431742Y-176092457D01*
X89360314Y-176235314D01*
X89288885Y-176306742D01*
X89146028Y-176378171D01*
X88931742Y-176378171D01*
X90717457Y-176378171D02*
X90717457Y-174878171D01*
X90717457Y-176306742D02*
X90574600Y-176378171D01*
X90288885Y-176378171D01*
X90146028Y-176306742D01*
X90074600Y-176235314D01*
X90003171Y-176092457D01*
X90003171Y-175663885D01*
X90074600Y-175521028D01*
X90146028Y-175449600D01*
X90288885Y-175378171D01*
X90574600Y-175378171D01*
X90717457Y-175449600D01*
X91360314Y-176306742D02*
X91503171Y-176378171D01*
X91788885Y-176378171D01*
X91931742Y-176306742D01*
X92003171Y-176163885D01*
X92003171Y-176092457D01*
X91931742Y-175949600D01*
X91788885Y-175878171D01*
X91574600Y-175878171D01*
X91431742Y-175806742D01*
X91360314Y-175663885D01*
X91360314Y-175592457D01*
X91431742Y-175449600D01*
X91574600Y-175378171D01*
X91788885Y-175378171D01*
X91931742Y-175449600D01*
X92646028Y-176235314D02*
X92717457Y-176306742D01*
X92646028Y-176378171D01*
X92574600Y-176306742D01*
X92646028Y-176235314D01*
X92646028Y-176378171D01*
X93360314Y-176378171D02*
X93360314Y-174878171D01*
X93503171Y-175806742D02*
X93931742Y-176378171D01*
X93931742Y-175378171D02*
X93360314Y-175949600D01*
X94574600Y-176378171D02*
X94574600Y-175378171D01*
X94574600Y-174878171D02*
X94503171Y-174949600D01*
X94574600Y-175021028D01*
X94646028Y-174949600D01*
X94574600Y-174878171D01*
X94574600Y-175021028D01*
X95931742Y-176306742D02*
X95788885Y-176378171D01*
X95503171Y-176378171D01*
X95360314Y-176306742D01*
X95288885Y-176235314D01*
X95217457Y-176092457D01*
X95217457Y-175663885D01*
X95288885Y-175521028D01*
X95360314Y-175449600D01*
X95503171Y-175378171D01*
X95788885Y-175378171D01*
X95931742Y-175449600D01*
X97217457Y-176378171D02*
X97217457Y-175592457D01*
X97146028Y-175449600D01*
X97003171Y-175378171D01*
X96717457Y-175378171D01*
X96574600Y-175449600D01*
X97217457Y-176306742D02*
X97074600Y-176378171D01*
X96717457Y-176378171D01*
X96574600Y-176306742D01*
X96503171Y-176163885D01*
X96503171Y-176021028D01*
X96574600Y-175878171D01*
X96717457Y-175806742D01*
X97074600Y-175806742D01*
X97217457Y-175735314D01*
X98574600Y-176378171D02*
X98574600Y-174878171D01*
X98574600Y-176306742D02*
X98431742Y-176378171D01*
X98146028Y-176378171D01*
X98003171Y-176306742D01*
X97931742Y-176235314D01*
X97860314Y-176092457D01*
X97860314Y-175663885D01*
X97931742Y-175521028D01*
X98003171Y-175449600D01*
X98146028Y-175378171D01*
X98431742Y-175378171D01*
X98574600Y-175449600D01*
X98931742Y-176521028D02*
X100074600Y-176521028D01*
X100431742Y-175378171D02*
X100431742Y-176878171D01*
X100431742Y-175449600D02*
X100574600Y-175378171D01*
X100860314Y-175378171D01*
X101003171Y-175449600D01*
X101074600Y-175521028D01*
X101146028Y-175663885D01*
X101146028Y-176092457D01*
X101074600Y-176235314D01*
X101003171Y-176306742D01*
X100860314Y-176378171D01*
X100574600Y-176378171D01*
X100431742Y-176306742D01*
X102431742Y-176306742D02*
X102288885Y-176378171D01*
X102003171Y-176378171D01*
X101860314Y-176306742D01*
X101788885Y-176235314D01*
X101717457Y-176092457D01*
X101717457Y-175663885D01*
X101788885Y-175521028D01*
X101860314Y-175449600D01*
X102003171Y-175378171D01*
X102288885Y-175378171D01*
X102431742Y-175449600D01*
X103074600Y-176378171D02*
X103074600Y-174878171D01*
X103074600Y-175449600D02*
X103217457Y-175378171D01*
X103503171Y-175378171D01*
X103646028Y-175449600D01*
X103717457Y-175521028D01*
X103788885Y-175663885D01*
X103788885Y-176092457D01*
X103717457Y-176235314D01*
X103646028Y-176306742D01*
X103503171Y-176378171D01*
X103217457Y-176378171D01*
X103074600Y-176306742D01*
D10*
D11*
X79999600Y-171499600D02*
X187999600Y-171499600D01*
D10*
D11*
X81360314Y-173606742D02*
X81574600Y-173678171D01*
X81931742Y-173678171D01*
X82074600Y-173606742D01*
X82146028Y-173535314D01*
X82217457Y-173392457D01*
X82217457Y-173249600D01*
X82146028Y-173106742D01*
X82074600Y-173035314D01*
X81931742Y-172963885D01*
X81646028Y-172892457D01*
X81503171Y-172821028D01*
X81431742Y-172749600D01*
X81360314Y-172606742D01*
X81360314Y-172463885D01*
X81431742Y-172321028D01*
X81503171Y-172249600D01*
X81646028Y-172178171D01*
X82003171Y-172178171D01*
X82217457Y-172249600D01*
X82860314Y-173678171D02*
X82860314Y-172178171D01*
X83503171Y-173678171D02*
X83503171Y-172892457D01*
X83431742Y-172749600D01*
X83288885Y-172678171D01*
X83074600Y-172678171D01*
X82931742Y-172749600D01*
X82860314Y-172821028D01*
X84788885Y-173606742D02*
X84646028Y-173678171D01*
X84360314Y-173678171D01*
X84217457Y-173606742D01*
X84146028Y-173463885D01*
X84146028Y-172892457D01*
X84217457Y-172749600D01*
X84360314Y-172678171D01*
X84646028Y-172678171D01*
X84788885Y-172749600D01*
X84860314Y-172892457D01*
X84860314Y-173035314D01*
X84146028Y-173178171D01*
X86074600Y-173606742D02*
X85931742Y-173678171D01*
X85646028Y-173678171D01*
X85503171Y-173606742D01*
X85431742Y-173463885D01*
X85431742Y-172892457D01*
X85503171Y-172749600D01*
X85646028Y-172678171D01*
X85931742Y-172678171D01*
X86074600Y-172749600D01*
X86146028Y-172892457D01*
X86146028Y-173035314D01*
X85431742Y-173178171D01*
X86574600Y-172678171D02*
X87146028Y-172678171D01*
X86788885Y-172178171D02*
X86788885Y-173463885D01*
X86860314Y-173606742D01*
X87003171Y-173678171D01*
X87146028Y-173678171D01*
X87646028Y-173535314D02*
X87717457Y-173606742D01*
X87646028Y-173678171D01*
X87574600Y-173606742D01*
X87646028Y-173535314D01*
X87646028Y-173678171D01*
X87646028Y-172749600D02*
X87717457Y-172821028D01*
X87646028Y-172892457D01*
X87574600Y-172821028D01*
X87646028Y-172749600D01*
X87646028Y-172892457D01*
D10*
D11*
X99999600Y-181499600D02*
X99999600Y-184499600D01*
D10*
D11*
X163999600Y-181499600D02*
X163999600Y-187999600D01*
D10*
G36*
X117069122Y-134706115D02*
X117185041Y-134729173D01*
X117512620Y-134864861D01*
X117803511Y-135059228D01*
X117807436Y-135061851D01*
X118058149Y-135312564D01*
X118255140Y-135607382D01*
X118390827Y-135934960D01*
X118460000Y-136282714D01*
X118460000Y-136637286D01*
X118390827Y-136985040D01*
X118255140Y-137312618D01*
X118058149Y-137607436D01*
X117807436Y-137858149D01*
X117807433Y-137858151D01*
X117512620Y-138055139D01*
X117185041Y-138190827D01*
X117069122Y-138213885D01*
X116837286Y-138260000D01*
X116482714Y-138260000D01*
X116250878Y-138213885D01*
X116134959Y-138190827D01*
X115807380Y-138055139D01*
X115512567Y-137858151D01*
X115512564Y-137858149D01*
X115261851Y-137607436D01*
X115064860Y-137312618D01*
X114929173Y-136985040D01*
X114860000Y-136637286D01*
X114860000Y-136282714D01*
X114929173Y-135934960D01*
X115064860Y-135607382D01*
X115261851Y-135312564D01*
X115512564Y-135061851D01*
X115516489Y-135059228D01*
X115807380Y-134864861D01*
X116134959Y-134729173D01*
X116250878Y-134706115D01*
X116482714Y-134660000D01*
X116837286Y-134660000D01*
X117069122Y-134706115D01*
X117069122Y-134706115D01*
G37*
G36*
X75069122Y-134706115D02*
X75185041Y-134729173D01*
X75512620Y-134864861D01*
X75803511Y-135059228D01*
X75807436Y-135061851D01*
X76058149Y-135312564D01*
X76255140Y-135607382D01*
X76390827Y-135934960D01*
X76460000Y-136282714D01*
X76460000Y-136637286D01*
X76390827Y-136985040D01*
X76255140Y-137312618D01*
X76058149Y-137607436D01*
X75807436Y-137858149D01*
X75807433Y-137858151D01*
X75512620Y-138055139D01*
X75185041Y-138190827D01*
X75069122Y-138213885D01*
X74837286Y-138260000D01*
X74482714Y-138260000D01*
X74250878Y-138213885D01*
X74134959Y-138190827D01*
X73807380Y-138055139D01*
X73512567Y-137858151D01*
X73512564Y-137858149D01*
X73261851Y-137607436D01*
X73064860Y-137312618D01*
X72929173Y-136985040D01*
X72860000Y-136637286D01*
X72860000Y-136282714D01*
X72929173Y-135934960D01*
X73064860Y-135607382D01*
X73261851Y-135312564D01*
X73512564Y-135061851D01*
X73516489Y-135059228D01*
X73807380Y-134864861D01*
X74134959Y-134729173D01*
X74250878Y-134706115D01*
X74482714Y-134660000D01*
X74837286Y-134660000D01*
X75069122Y-134706115D01*
X75069122Y-134706115D01*
G37*
G36*
X87184876Y-135556605D02*
X87403172Y-135647026D01*
X87599633Y-135778297D01*
X87766703Y-135945367D01*
X87897974Y-136141828D01*
X87988395Y-136360124D01*
X88034490Y-136591859D01*
X88034490Y-136828141D01*
X87988395Y-137059876D01*
X87897974Y-137278172D01*
X87766703Y-137474633D01*
X87599633Y-137641703D01*
X87403172Y-137772974D01*
X87184876Y-137863395D01*
X86953141Y-137909490D01*
X86716859Y-137909490D01*
X86485124Y-137863395D01*
X86266828Y-137772974D01*
X86070367Y-137641703D01*
X85903297Y-137474633D01*
X85772026Y-137278172D01*
X85681605Y-137059876D01*
X85635510Y-136828141D01*
X85635510Y-136591859D01*
X85681605Y-136360124D01*
X85772026Y-136141828D01*
X85903297Y-135945367D01*
X86070367Y-135778297D01*
X86266828Y-135647026D01*
X86485124Y-135556605D01*
X86716859Y-135510510D01*
X86953141Y-135510510D01*
X87184876Y-135556605D01*
X87184876Y-135556605D01*
G37*
G36*
X84009876Y-135556605D02*
X84228172Y-135647026D01*
X84424633Y-135778297D01*
X84591703Y-135945367D01*
X84722974Y-136141828D01*
X84813395Y-136360124D01*
X84859490Y-136591859D01*
X84859490Y-136828141D01*
X84813395Y-137059876D01*
X84722974Y-137278172D01*
X84591703Y-137474633D01*
X84424633Y-137641703D01*
X84228172Y-137772974D01*
X84009876Y-137863395D01*
X83778141Y-137909490D01*
X83541859Y-137909490D01*
X83310124Y-137863395D01*
X83091828Y-137772974D01*
X82895367Y-137641703D01*
X82728297Y-137474633D01*
X82597026Y-137278172D01*
X82506605Y-137059876D01*
X82460510Y-136828141D01*
X82460510Y-136591859D01*
X82506605Y-136360124D01*
X82597026Y-136141828D01*
X82728297Y-135945367D01*
X82895367Y-135778297D01*
X83091828Y-135647026D01*
X83310124Y-135556605D01*
X83541859Y-135510510D01*
X83778141Y-135510510D01*
X84009876Y-135556605D01*
X84009876Y-135556605D01*
G37*
G36*
X81684490Y-137909490D02*
X79285510Y-137909490D01*
X79285510Y-135510510D01*
X81684490Y-135510510D01*
X81684490Y-137909490D01*
X81684490Y-137909490D01*
G37*
G36*
X119370603Y-130284968D02*
X119370606Y-130284969D01*
X119370605Y-130284969D01*
X119545678Y-130357486D01*
X119545679Y-130357487D01*
X119703241Y-130462767D01*
X119837233Y-130596759D01*
X119837234Y-130596761D01*
X119942514Y-130754322D01*
X119998603Y-130889734D01*
X120015032Y-130929397D01*
X120052000Y-131115250D01*
X120052000Y-131304750D01*
X120015032Y-131490603D01*
X120015031Y-131490605D01*
X119942514Y-131665678D01*
X119942513Y-131665679D01*
X119837233Y-131823241D01*
X119703241Y-131957233D01*
X119623923Y-132010232D01*
X119545678Y-132062514D01*
X119410266Y-132118603D01*
X119370603Y-132135032D01*
X119184750Y-132172000D01*
X118995250Y-132172000D01*
X118809397Y-132135032D01*
X118769734Y-132118603D01*
X118634322Y-132062514D01*
X118556077Y-132010232D01*
X118476759Y-131957233D01*
X118342767Y-131823241D01*
X118237487Y-131665679D01*
X118237486Y-131665678D01*
X118164969Y-131490605D01*
X118164968Y-131490603D01*
X118128000Y-131304750D01*
X118128000Y-131115250D01*
X118164968Y-130929397D01*
X118181397Y-130889734D01*
X118237486Y-130754322D01*
X118342766Y-130596761D01*
X118342767Y-130596759D01*
X118476759Y-130462767D01*
X118634321Y-130357487D01*
X118634322Y-130357486D01*
X118809395Y-130284969D01*
X118809394Y-130284969D01*
X118809397Y-130284968D01*
X118995250Y-130248000D01*
X119184750Y-130248000D01*
X119370603Y-130284968D01*
X119370603Y-130284968D01*
G37*
G36*
X96510603Y-130284968D02*
X96510606Y-130284969D01*
X96510605Y-130284969D01*
X96685678Y-130357486D01*
X96685679Y-130357487D01*
X96843241Y-130462767D01*
X96977233Y-130596759D01*
X96977234Y-130596761D01*
X97082514Y-130754322D01*
X97138603Y-130889734D01*
X97155032Y-130929397D01*
X97192000Y-131115250D01*
X97192000Y-131304750D01*
X97155032Y-131490603D01*
X97155031Y-131490605D01*
X97082514Y-131665678D01*
X97082513Y-131665679D01*
X96977233Y-131823241D01*
X96843241Y-131957233D01*
X96763923Y-132010232D01*
X96685678Y-132062514D01*
X96550266Y-132118603D01*
X96510603Y-132135032D01*
X96324750Y-132172000D01*
X96135250Y-132172000D01*
X95949397Y-132135032D01*
X95909734Y-132118603D01*
X95774322Y-132062514D01*
X95696077Y-132010232D01*
X95616759Y-131957233D01*
X95482767Y-131823241D01*
X95377487Y-131665679D01*
X95377486Y-131665678D01*
X95304969Y-131490605D01*
X95304968Y-131490603D01*
X95268000Y-131304750D01*
X95268000Y-131115250D01*
X95304968Y-130929397D01*
X95321397Y-130889734D01*
X95377486Y-130754322D01*
X95482766Y-130596761D01*
X95482767Y-130596759D01*
X95616759Y-130462767D01*
X95774321Y-130357487D01*
X95774322Y-130357486D01*
X95949395Y-130284969D01*
X95949394Y-130284969D01*
X95949397Y-130284968D01*
X96135250Y-130248000D01*
X96324750Y-130248000D01*
X96510603Y-130284968D01*
X96510603Y-130284968D01*
G37*
G36*
X96510603Y-127284968D02*
X96510606Y-127284969D01*
X96510605Y-127284969D01*
X96685678Y-127357486D01*
X96685679Y-127357487D01*
X96843241Y-127462767D01*
X96977233Y-127596759D01*
X96977234Y-127596761D01*
X97082514Y-127754322D01*
X97138603Y-127889734D01*
X97155032Y-127929397D01*
X97192000Y-128115250D01*
X97192000Y-128304750D01*
X97155032Y-128490603D01*
X97155031Y-128490605D01*
X97082514Y-128665678D01*
X97082513Y-128665679D01*
X96977233Y-128823241D01*
X96843241Y-128957233D01*
X96763923Y-129010232D01*
X96685678Y-129062514D01*
X96550266Y-129118603D01*
X96510603Y-129135032D01*
X96324750Y-129172000D01*
X96135250Y-129172000D01*
X95949397Y-129135032D01*
X95909734Y-129118603D01*
X95774322Y-129062514D01*
X95696077Y-129010232D01*
X95616759Y-128957233D01*
X95482767Y-128823241D01*
X95377487Y-128665679D01*
X95377486Y-128665678D01*
X95304969Y-128490605D01*
X95304968Y-128490603D01*
X95268000Y-128304750D01*
X95268000Y-128115250D01*
X95304968Y-127929397D01*
X95321397Y-127889734D01*
X95377486Y-127754322D01*
X95482766Y-127596761D01*
X95482767Y-127596759D01*
X95616759Y-127462767D01*
X95774321Y-127357487D01*
X95774322Y-127357486D01*
X95949395Y-127284969D01*
X95949394Y-127284969D01*
X95949397Y-127284968D01*
X96135250Y-127248000D01*
X96324750Y-127248000D01*
X96510603Y-127284968D01*
X96510603Y-127284968D01*
G37*
G36*
X85285888Y-122414470D02*
X85466274Y-122450350D01*
X85657362Y-122529502D01*
X85829336Y-122644411D01*
X85975589Y-122790664D01*
X86090498Y-122962638D01*
X86169650Y-123153726D01*
X86210000Y-123356584D01*
X86210000Y-123563416D01*
X86169650Y-123766274D01*
X86090498Y-123957362D01*
X85975589Y-124129336D01*
X85829336Y-124275589D01*
X85657362Y-124390498D01*
X85466274Y-124469650D01*
X85285888Y-124505530D01*
X85263417Y-124510000D01*
X85056583Y-124510000D01*
X85034112Y-124505530D01*
X84853726Y-124469650D01*
X84662638Y-124390498D01*
X84490664Y-124275589D01*
X84344411Y-124129336D01*
X84229502Y-123957362D01*
X84150350Y-123766274D01*
X84110000Y-123563416D01*
X84110000Y-123356584D01*
X84150350Y-123153726D01*
X84229502Y-122962638D01*
X84344411Y-122790664D01*
X84490664Y-122644411D01*
X84662638Y-122529502D01*
X84853726Y-122450350D01*
X85034112Y-122414470D01*
X85056583Y-122410000D01*
X85263417Y-122410000D01*
X85285888Y-122414470D01*
X85285888Y-122414470D01*
G37*
G36*
X91785888Y-122414470D02*
X91966274Y-122450350D01*
X92157362Y-122529502D01*
X92329336Y-122644411D01*
X92475589Y-122790664D01*
X92590498Y-122962638D01*
X92669650Y-123153726D01*
X92710000Y-123356584D01*
X92710000Y-123563416D01*
X92669650Y-123766274D01*
X92590498Y-123957362D01*
X92475589Y-124129336D01*
X92329336Y-124275589D01*
X92157362Y-124390498D01*
X91966274Y-124469650D01*
X91785888Y-124505530D01*
X91763417Y-124510000D01*
X91556583Y-124510000D01*
X91534112Y-124505530D01*
X91353726Y-124469650D01*
X91162638Y-124390498D01*
X90990664Y-124275589D01*
X90844411Y-124129336D01*
X90729502Y-123957362D01*
X90650350Y-123766274D01*
X90610000Y-123563416D01*
X90610000Y-123356584D01*
X90650350Y-123153726D01*
X90729502Y-122962638D01*
X90844411Y-122790664D01*
X90990664Y-122644411D01*
X91162638Y-122529502D01*
X91353726Y-122450350D01*
X91534112Y-122414470D01*
X91556583Y-122410000D01*
X91763417Y-122410000D01*
X91785888Y-122414470D01*
X91785888Y-122414470D01*
G37*
G36*
X96510603Y-119284968D02*
X96510606Y-119284969D01*
X96510605Y-119284969D01*
X96685678Y-119357486D01*
X96685679Y-119357487D01*
X96843241Y-119462767D01*
X96977233Y-119596759D01*
X96977234Y-119596761D01*
X97082514Y-119754322D01*
X97091323Y-119775589D01*
X97155032Y-119929397D01*
X97192000Y-120115250D01*
X97192000Y-120304750D01*
X97155032Y-120490603D01*
X97155031Y-120490605D01*
X97082514Y-120665678D01*
X97082513Y-120665679D01*
X96977233Y-120823241D01*
X96843241Y-120957233D01*
X96763923Y-121010232D01*
X96685678Y-121062514D01*
X96550266Y-121118603D01*
X96510603Y-121135032D01*
X96324750Y-121172000D01*
X96135250Y-121172000D01*
X95949397Y-121135032D01*
X95909734Y-121118603D01*
X95774322Y-121062514D01*
X95696077Y-121010232D01*
X95616759Y-120957233D01*
X95482767Y-120823241D01*
X95377487Y-120665679D01*
X95377486Y-120665678D01*
X95304969Y-120490605D01*
X95304968Y-120490603D01*
X95268000Y-120304750D01*
X95268000Y-120115250D01*
X95304968Y-119929397D01*
X95368677Y-119775589D01*
X95377486Y-119754322D01*
X95482766Y-119596761D01*
X95482767Y-119596759D01*
X95616759Y-119462767D01*
X95774321Y-119357487D01*
X95774322Y-119357486D01*
X95949395Y-119284969D01*
X95949394Y-119284969D01*
X95949397Y-119284968D01*
X96135250Y-119248000D01*
X96324750Y-119248000D01*
X96510603Y-119284968D01*
X96510603Y-119284968D01*
G37*
G36*
X85285888Y-117914470D02*
X85466274Y-117950350D01*
X85657362Y-118029502D01*
X85829336Y-118144411D01*
X85975589Y-118290664D01*
X86090498Y-118462638D01*
X86169650Y-118653726D01*
X86210000Y-118856584D01*
X86210000Y-119063416D01*
X86169650Y-119266274D01*
X86090498Y-119457362D01*
X85975589Y-119629336D01*
X85829336Y-119775589D01*
X85657362Y-119890498D01*
X85466274Y-119969650D01*
X85285888Y-120005530D01*
X85263417Y-120010000D01*
X85056583Y-120010000D01*
X85034112Y-120005530D01*
X84853726Y-119969650D01*
X84662638Y-119890498D01*
X84490664Y-119775589D01*
X84344411Y-119629336D01*
X84229502Y-119457362D01*
X84150350Y-119266274D01*
X84110000Y-119063416D01*
X84110000Y-118856584D01*
X84150350Y-118653726D01*
X84229502Y-118462638D01*
X84344411Y-118290664D01*
X84490664Y-118144411D01*
X84662638Y-118029502D01*
X84853726Y-117950350D01*
X85034112Y-117914470D01*
X85056583Y-117910000D01*
X85263417Y-117910000D01*
X85285888Y-117914470D01*
X85285888Y-117914470D01*
G37*
G36*
X91785888Y-117914470D02*
X91966274Y-117950350D01*
X92157362Y-118029502D01*
X92329336Y-118144411D01*
X92475589Y-118290664D01*
X92590498Y-118462638D01*
X92669650Y-118653726D01*
X92710000Y-118856584D01*
X92710000Y-119063416D01*
X92669650Y-119266274D01*
X92590498Y-119457362D01*
X92475589Y-119629336D01*
X92329336Y-119775589D01*
X92157362Y-119890498D01*
X91966274Y-119969650D01*
X91785888Y-120005530D01*
X91763417Y-120010000D01*
X91556583Y-120010000D01*
X91534112Y-120005530D01*
X91353726Y-119969650D01*
X91162638Y-119890498D01*
X90990664Y-119775589D01*
X90844411Y-119629336D01*
X90729502Y-119457362D01*
X90650350Y-119266274D01*
X90610000Y-119063416D01*
X90610000Y-118856584D01*
X90650350Y-118653726D01*
X90729502Y-118462638D01*
X90844411Y-118290664D01*
X90990664Y-118144411D01*
X91162638Y-118029502D01*
X91353726Y-117950350D01*
X91534112Y-117914470D01*
X91556583Y-117910000D01*
X91763417Y-117910000D01*
X91785888Y-117914470D01*
X91785888Y-117914470D01*
G37*
G36*
X96510603Y-116284968D02*
X96510606Y-116284969D01*
X96510605Y-116284969D01*
X96685678Y-116357486D01*
X96685679Y-116357487D01*
X96843241Y-116462767D01*
X96977233Y-116596759D01*
X96977234Y-116596761D01*
X97082514Y-116754322D01*
X97138603Y-116889734D01*
X97155032Y-116929397D01*
X97192000Y-117115250D01*
X97192000Y-117304750D01*
X97155032Y-117490603D01*
X97155031Y-117490605D01*
X97082514Y-117665678D01*
X97082513Y-117665679D01*
X96977233Y-117823241D01*
X96843241Y-117957233D01*
X96763923Y-118010232D01*
X96685678Y-118062514D01*
X96550266Y-118118603D01*
X96510603Y-118135032D01*
X96324750Y-118172000D01*
X96135250Y-118172000D01*
X95949397Y-118135032D01*
X95909734Y-118118603D01*
X95774322Y-118062514D01*
X95696077Y-118010232D01*
X95616759Y-117957233D01*
X95482767Y-117823241D01*
X95377487Y-117665679D01*
X95377486Y-117665678D01*
X95304969Y-117490605D01*
X95304968Y-117490603D01*
X95268000Y-117304750D01*
X95268000Y-117115250D01*
X95304968Y-116929397D01*
X95321397Y-116889734D01*
X95377486Y-116754322D01*
X95482766Y-116596761D01*
X95482767Y-116596759D01*
X95616759Y-116462767D01*
X95774321Y-116357487D01*
X95774322Y-116357486D01*
X95949395Y-116284969D01*
X95949394Y-116284969D01*
X95949397Y-116284968D01*
X96135250Y-116248000D01*
X96324750Y-116248000D01*
X96510603Y-116284968D01*
X96510603Y-116284968D01*
G37*
G36*
X119370603Y-116284968D02*
X119370606Y-116284969D01*
X119370605Y-116284969D01*
X119545678Y-116357486D01*
X119545679Y-116357487D01*
X119703241Y-116462767D01*
X119837233Y-116596759D01*
X119837234Y-116596761D01*
X119942514Y-116754322D01*
X119998603Y-116889734D01*
X120015032Y-116929397D01*
X120052000Y-117115250D01*
X120052000Y-117304750D01*
X120015032Y-117490603D01*
X120015031Y-117490605D01*
X119942514Y-117665678D01*
X119942513Y-117665679D01*
X119837233Y-117823241D01*
X119703241Y-117957233D01*
X119623923Y-118010232D01*
X119545678Y-118062514D01*
X119410266Y-118118603D01*
X119370603Y-118135032D01*
X119184750Y-118172000D01*
X118995250Y-118172000D01*
X118809397Y-118135032D01*
X118769734Y-118118603D01*
X118634322Y-118062514D01*
X118556077Y-118010232D01*
X118476759Y-117957233D01*
X118342767Y-117823241D01*
X118237487Y-117665679D01*
X118237486Y-117665678D01*
X118164969Y-117490605D01*
X118164968Y-117490603D01*
X118128000Y-117304750D01*
X118128000Y-117115250D01*
X118164968Y-116929397D01*
X118181397Y-116889734D01*
X118237486Y-116754322D01*
X118342766Y-116596761D01*
X118342767Y-116596759D01*
X118476759Y-116462767D01*
X118634321Y-116357487D01*
X118634322Y-116357486D01*
X118809395Y-116284969D01*
X118809394Y-116284969D01*
X118809397Y-116284968D01*
X118995250Y-116248000D01*
X119184750Y-116248000D01*
X119370603Y-116284968D01*
X119370603Y-116284968D01*
G37*
G36*
X101785888Y-112414470D02*
X101966274Y-112450350D01*
X102157362Y-112529502D01*
X102329336Y-112644411D01*
X102475589Y-112790664D01*
X102590498Y-112962638D01*
X102669650Y-113153726D01*
X102710000Y-113356584D01*
X102710000Y-113563416D01*
X102669650Y-113766274D01*
X102590498Y-113957362D01*
X102475589Y-114129336D01*
X102329336Y-114275589D01*
X102157362Y-114390498D01*
X101966274Y-114469650D01*
X101785888Y-114505530D01*
X101763417Y-114510000D01*
X101556583Y-114510000D01*
X101534112Y-114505530D01*
X101353726Y-114469650D01*
X101162638Y-114390498D01*
X100990664Y-114275589D01*
X100844411Y-114129336D01*
X100729502Y-113957362D01*
X100650350Y-113766274D01*
X100610000Y-113563416D01*
X100610000Y-113356584D01*
X100650350Y-113153726D01*
X100729502Y-112962638D01*
X100844411Y-112790664D01*
X100990664Y-112644411D01*
X101162638Y-112529502D01*
X101353726Y-112450350D01*
X101534112Y-112414470D01*
X101556583Y-112410000D01*
X101763417Y-112410000D01*
X101785888Y-112414470D01*
X101785888Y-112414470D01*
G37*
G36*
X115285888Y-112414470D02*
X115466274Y-112450350D01*
X115657362Y-112529502D01*
X115829336Y-112644411D01*
X115975589Y-112790664D01*
X116090498Y-112962638D01*
X116169650Y-113153726D01*
X116210000Y-113356584D01*
X116210000Y-113563416D01*
X116169650Y-113766274D01*
X116090498Y-113957362D01*
X115975589Y-114129336D01*
X115829336Y-114275589D01*
X115657362Y-114390498D01*
X115466274Y-114469650D01*
X115285888Y-114505530D01*
X115263417Y-114510000D01*
X115056583Y-114510000D01*
X115034112Y-114505530D01*
X114853726Y-114469650D01*
X114662638Y-114390498D01*
X114490664Y-114275589D01*
X114344411Y-114129336D01*
X114229502Y-113957362D01*
X114150350Y-113766274D01*
X114110000Y-113563416D01*
X114110000Y-113356584D01*
X114150350Y-113153726D01*
X114229502Y-112962638D01*
X114344411Y-112790664D01*
X114490664Y-112644411D01*
X114662638Y-112529502D01*
X114853726Y-112450350D01*
X115034112Y-112414470D01*
X115056583Y-112410000D01*
X115263417Y-112410000D01*
X115285888Y-112414470D01*
X115285888Y-112414470D01*
G37*
G36*
X108785888Y-112414470D02*
X108966274Y-112450350D01*
X109157362Y-112529502D01*
X109329336Y-112644411D01*
X109475589Y-112790664D01*
X109590498Y-112962638D01*
X109669650Y-113153726D01*
X109710000Y-113356584D01*
X109710000Y-113563416D01*
X109669650Y-113766274D01*
X109590498Y-113957362D01*
X109475589Y-114129336D01*
X109329336Y-114275589D01*
X109157362Y-114390498D01*
X108966274Y-114469650D01*
X108785888Y-114505530D01*
X108763417Y-114510000D01*
X108556583Y-114510000D01*
X108534112Y-114505530D01*
X108353726Y-114469650D01*
X108162638Y-114390498D01*
X107990664Y-114275589D01*
X107844411Y-114129336D01*
X107729502Y-113957362D01*
X107650350Y-113766274D01*
X107610000Y-113563416D01*
X107610000Y-113356584D01*
X107650350Y-113153726D01*
X107729502Y-112962638D01*
X107844411Y-112790664D01*
X107990664Y-112644411D01*
X108162638Y-112529502D01*
X108353726Y-112450350D01*
X108534112Y-112414470D01*
X108556583Y-112410000D01*
X108763417Y-112410000D01*
X108785888Y-112414470D01*
X108785888Y-112414470D01*
G37*
G36*
X81785888Y-112414470D02*
X81966274Y-112450350D01*
X82157362Y-112529502D01*
X82329336Y-112644411D01*
X82475589Y-112790664D01*
X82590498Y-112962638D01*
X82669650Y-113153726D01*
X82710000Y-113356584D01*
X82710000Y-113563416D01*
X82669650Y-113766274D01*
X82590498Y-113957362D01*
X82475589Y-114129336D01*
X82329336Y-114275589D01*
X82157362Y-114390498D01*
X81966274Y-114469650D01*
X81785888Y-114505530D01*
X81763417Y-114510000D01*
X81556583Y-114510000D01*
X81534112Y-114505530D01*
X81353726Y-114469650D01*
X81162638Y-114390498D01*
X80990664Y-114275589D01*
X80844411Y-114129336D01*
X80729502Y-113957362D01*
X80650350Y-113766274D01*
X80610000Y-113563416D01*
X80610000Y-113356584D01*
X80650350Y-113153726D01*
X80729502Y-112962638D01*
X80844411Y-112790664D01*
X80990664Y-112644411D01*
X81162638Y-112529502D01*
X81353726Y-112450350D01*
X81534112Y-112414470D01*
X81556583Y-112410000D01*
X81763417Y-112410000D01*
X81785888Y-112414470D01*
X81785888Y-112414470D01*
G37*
G36*
X95285888Y-112414470D02*
X95466274Y-112450350D01*
X95657362Y-112529502D01*
X95829336Y-112644411D01*
X95975589Y-112790664D01*
X96090498Y-112962638D01*
X96169650Y-113153726D01*
X96210000Y-113356584D01*
X96210000Y-113563416D01*
X96169650Y-113766274D01*
X96090498Y-113957362D01*
X95975589Y-114129336D01*
X95829336Y-114275589D01*
X95657362Y-114390498D01*
X95466274Y-114469650D01*
X95285888Y-114505530D01*
X95263417Y-114510000D01*
X95056583Y-114510000D01*
X95034112Y-114505530D01*
X94853726Y-114469650D01*
X94662638Y-114390498D01*
X94490664Y-114275589D01*
X94344411Y-114129336D01*
X94229502Y-113957362D01*
X94150350Y-113766274D01*
X94110000Y-113563416D01*
X94110000Y-113356584D01*
X94150350Y-113153726D01*
X94229502Y-112962638D01*
X94344411Y-112790664D01*
X94490664Y-112644411D01*
X94662638Y-112529502D01*
X94853726Y-112450350D01*
X95034112Y-112414470D01*
X95056583Y-112410000D01*
X95263417Y-112410000D01*
X95285888Y-112414470D01*
X95285888Y-112414470D01*
G37*
G36*
X75285888Y-112414470D02*
X75466274Y-112450350D01*
X75657362Y-112529502D01*
X75829336Y-112644411D01*
X75975589Y-112790664D01*
X76090498Y-112962638D01*
X76169650Y-113153726D01*
X76210000Y-113356584D01*
X76210000Y-113563416D01*
X76169650Y-113766274D01*
X76090498Y-113957362D01*
X75975589Y-114129336D01*
X75829336Y-114275589D01*
X75657362Y-114390498D01*
X75466274Y-114469650D01*
X75285888Y-114505530D01*
X75263417Y-114510000D01*
X75056583Y-114510000D01*
X75034112Y-114505530D01*
X74853726Y-114469650D01*
X74662638Y-114390498D01*
X74490664Y-114275589D01*
X74344411Y-114129336D01*
X74229502Y-113957362D01*
X74150350Y-113766274D01*
X74110000Y-113563416D01*
X74110000Y-113356584D01*
X74150350Y-113153726D01*
X74229502Y-112962638D01*
X74344411Y-112790664D01*
X74490664Y-112644411D01*
X74662638Y-112529502D01*
X74853726Y-112450350D01*
X75034112Y-112414470D01*
X75056583Y-112410000D01*
X75263417Y-112410000D01*
X75285888Y-112414470D01*
X75285888Y-112414470D01*
G37*
G36*
X87509876Y-111866605D02*
X87728172Y-111957026D01*
X87924633Y-112088297D01*
X88091703Y-112255367D01*
X88222974Y-112451828D01*
X88313395Y-112670124D01*
X88359490Y-112901859D01*
X88359490Y-113138141D01*
X88313395Y-113369876D01*
X88222974Y-113588172D01*
X88091703Y-113784633D01*
X87924633Y-113951703D01*
X87728172Y-114082974D01*
X87509876Y-114173395D01*
X87278141Y-114219490D01*
X87041859Y-114219490D01*
X86810124Y-114173395D01*
X86591828Y-114082974D01*
X86395367Y-113951703D01*
X86228297Y-113784633D01*
X86097026Y-113588172D01*
X86006605Y-113369876D01*
X85960510Y-113138141D01*
X85960510Y-112901859D01*
X86006605Y-112670124D01*
X86097026Y-112451828D01*
X86228297Y-112255367D01*
X86395367Y-112088297D01*
X86591828Y-111957026D01*
X86810124Y-111866605D01*
X87041859Y-111820510D01*
X87278141Y-111820510D01*
X87509876Y-111866605D01*
X87509876Y-111866605D01*
G37*
G36*
X88359490Y-110409490D02*
X85960510Y-110409490D01*
X85960510Y-108010510D01*
X88359490Y-108010510D01*
X88359490Y-110409490D01*
X88359490Y-110409490D01*
G37*
G36*
X95285888Y-107914470D02*
X95466274Y-107950350D01*
X95657362Y-108029502D01*
X95829336Y-108144411D01*
X95975589Y-108290664D01*
X96090498Y-108462638D01*
X96169650Y-108653726D01*
X96210000Y-108856584D01*
X96210000Y-109063416D01*
X96169650Y-109266274D01*
X96090498Y-109457362D01*
X95975589Y-109629336D01*
X95829336Y-109775589D01*
X95657362Y-109890498D01*
X95466274Y-109969650D01*
X95285888Y-110005530D01*
X95263417Y-110010000D01*
X95056583Y-110010000D01*
X95034112Y-110005530D01*
X94853726Y-109969650D01*
X94662638Y-109890498D01*
X94490664Y-109775589D01*
X94344411Y-109629336D01*
X94229502Y-109457362D01*
X94150350Y-109266274D01*
X94110000Y-109063416D01*
X94110000Y-108856584D01*
X94150350Y-108653726D01*
X94229502Y-108462638D01*
X94344411Y-108290664D01*
X94490664Y-108144411D01*
X94662638Y-108029502D01*
X94853726Y-107950350D01*
X95034112Y-107914470D01*
X95056583Y-107910000D01*
X95263417Y-107910000D01*
X95285888Y-107914470D01*
X95285888Y-107914470D01*
G37*
G36*
X101785888Y-107914470D02*
X101966274Y-107950350D01*
X102157362Y-108029502D01*
X102329336Y-108144411D01*
X102475589Y-108290664D01*
X102590498Y-108462638D01*
X102669650Y-108653726D01*
X102710000Y-108856584D01*
X102710000Y-109063416D01*
X102669650Y-109266274D01*
X102590498Y-109457362D01*
X102475589Y-109629336D01*
X102329336Y-109775589D01*
X102157362Y-109890498D01*
X101966274Y-109969650D01*
X101785888Y-110005530D01*
X101763417Y-110010000D01*
X101556583Y-110010000D01*
X101534112Y-110005530D01*
X101353726Y-109969650D01*
X101162638Y-109890498D01*
X100990664Y-109775589D01*
X100844411Y-109629336D01*
X100729502Y-109457362D01*
X100650350Y-109266274D01*
X100610000Y-109063416D01*
X100610000Y-108856584D01*
X100650350Y-108653726D01*
X100729502Y-108462638D01*
X100844411Y-108290664D01*
X100990664Y-108144411D01*
X101162638Y-108029502D01*
X101353726Y-107950350D01*
X101534112Y-107914470D01*
X101556583Y-107910000D01*
X101763417Y-107910000D01*
X101785888Y-107914470D01*
X101785888Y-107914470D01*
G37*
G36*
X81785888Y-107914470D02*
X81966274Y-107950350D01*
X82157362Y-108029502D01*
X82329336Y-108144411D01*
X82475589Y-108290664D01*
X82590498Y-108462638D01*
X82669650Y-108653726D01*
X82710000Y-108856584D01*
X82710000Y-109063416D01*
X82669650Y-109266274D01*
X82590498Y-109457362D01*
X82475589Y-109629336D01*
X82329336Y-109775589D01*
X82157362Y-109890498D01*
X81966274Y-109969650D01*
X81785888Y-110005530D01*
X81763417Y-110010000D01*
X81556583Y-110010000D01*
X81534112Y-110005530D01*
X81353726Y-109969650D01*
X81162638Y-109890498D01*
X80990664Y-109775589D01*
X80844411Y-109629336D01*
X80729502Y-109457362D01*
X80650350Y-109266274D01*
X80610000Y-109063416D01*
X80610000Y-108856584D01*
X80650350Y-108653726D01*
X80729502Y-108462638D01*
X80844411Y-108290664D01*
X80990664Y-108144411D01*
X81162638Y-108029502D01*
X81353726Y-107950350D01*
X81534112Y-107914470D01*
X81556583Y-107910000D01*
X81763417Y-107910000D01*
X81785888Y-107914470D01*
X81785888Y-107914470D01*
G37*
G36*
X75285888Y-107914470D02*
X75466274Y-107950350D01*
X75657362Y-108029502D01*
X75829336Y-108144411D01*
X75975589Y-108290664D01*
X76090498Y-108462638D01*
X76169650Y-108653726D01*
X76210000Y-108856584D01*
X76210000Y-109063416D01*
X76169650Y-109266274D01*
X76090498Y-109457362D01*
X75975589Y-109629336D01*
X75829336Y-109775589D01*
X75657362Y-109890498D01*
X75466274Y-109969650D01*
X75285888Y-110005530D01*
X75263417Y-110010000D01*
X75056583Y-110010000D01*
X75034112Y-110005530D01*
X74853726Y-109969650D01*
X74662638Y-109890498D01*
X74490664Y-109775589D01*
X74344411Y-109629336D01*
X74229502Y-109457362D01*
X74150350Y-109266274D01*
X74110000Y-109063416D01*
X74110000Y-108856584D01*
X74150350Y-108653726D01*
X74229502Y-108462638D01*
X74344411Y-108290664D01*
X74490664Y-108144411D01*
X74662638Y-108029502D01*
X74853726Y-107950350D01*
X75034112Y-107914470D01*
X75056583Y-107910000D01*
X75263417Y-107910000D01*
X75285888Y-107914470D01*
X75285888Y-107914470D01*
G37*
G36*
X115285888Y-107914470D02*
X115466274Y-107950350D01*
X115657362Y-108029502D01*
X115829336Y-108144411D01*
X115975589Y-108290664D01*
X116090498Y-108462638D01*
X116169650Y-108653726D01*
X116210000Y-108856584D01*
X116210000Y-109063416D01*
X116169650Y-109266274D01*
X116090498Y-109457362D01*
X115975589Y-109629336D01*
X115829336Y-109775589D01*
X115657362Y-109890498D01*
X115466274Y-109969650D01*
X115285888Y-110005530D01*
X115263417Y-110010000D01*
X115056583Y-110010000D01*
X115034112Y-110005530D01*
X114853726Y-109969650D01*
X114662638Y-109890498D01*
X114490664Y-109775589D01*
X114344411Y-109629336D01*
X114229502Y-109457362D01*
X114150350Y-109266274D01*
X114110000Y-109063416D01*
X114110000Y-108856584D01*
X114150350Y-108653726D01*
X114229502Y-108462638D01*
X114344411Y-108290664D01*
X114490664Y-108144411D01*
X114662638Y-108029502D01*
X114853726Y-107950350D01*
X115034112Y-107914470D01*
X115056583Y-107910000D01*
X115263417Y-107910000D01*
X115285888Y-107914470D01*
X115285888Y-107914470D01*
G37*
G36*
X108785888Y-107914470D02*
X108966274Y-107950350D01*
X109157362Y-108029502D01*
X109329336Y-108144411D01*
X109475589Y-108290664D01*
X109590498Y-108462638D01*
X109669650Y-108653726D01*
X109710000Y-108856584D01*
X109710000Y-109063416D01*
X109669650Y-109266274D01*
X109590498Y-109457362D01*
X109475589Y-109629336D01*
X109329336Y-109775589D01*
X109157362Y-109890498D01*
X108966274Y-109969650D01*
X108785888Y-110005530D01*
X108763417Y-110010000D01*
X108556583Y-110010000D01*
X108534112Y-110005530D01*
X108353726Y-109969650D01*
X108162638Y-109890498D01*
X107990664Y-109775589D01*
X107844411Y-109629336D01*
X107729502Y-109457362D01*
X107650350Y-109266274D01*
X107610000Y-109063416D01*
X107610000Y-108856584D01*
X107650350Y-108653726D01*
X107729502Y-108462638D01*
X107844411Y-108290664D01*
X107990664Y-108144411D01*
X108162638Y-108029502D01*
X108353726Y-107950350D01*
X108534112Y-107914470D01*
X108556583Y-107910000D01*
X108763417Y-107910000D01*
X108785888Y-107914470D01*
X108785888Y-107914470D01*
G37*
G36*
X91785888Y-102414470D02*
X91966274Y-102450350D01*
X92157362Y-102529502D01*
X92329336Y-102644411D01*
X92475589Y-102790664D01*
X92590498Y-102962638D01*
X92669650Y-103153726D01*
X92710000Y-103356584D01*
X92710000Y-103563416D01*
X92669650Y-103766274D01*
X92590498Y-103957362D01*
X92475589Y-104129336D01*
X92329336Y-104275589D01*
X92157362Y-104390498D01*
X91966274Y-104469650D01*
X91785888Y-104505530D01*
X91763417Y-104510000D01*
X91556583Y-104510000D01*
X91534112Y-104505530D01*
X91353726Y-104469650D01*
X91162638Y-104390498D01*
X90990664Y-104275589D01*
X90844411Y-104129336D01*
X90729502Y-103957362D01*
X90650350Y-103766274D01*
X90610000Y-103563416D01*
X90610000Y-103356584D01*
X90650350Y-103153726D01*
X90729502Y-102962638D01*
X90844411Y-102790664D01*
X90990664Y-102644411D01*
X91162638Y-102529502D01*
X91353726Y-102450350D01*
X91534112Y-102414470D01*
X91556583Y-102410000D01*
X91763417Y-102410000D01*
X91785888Y-102414470D01*
X91785888Y-102414470D01*
G37*
G36*
X85285888Y-102414470D02*
X85466274Y-102450350D01*
X85657362Y-102529502D01*
X85829336Y-102644411D01*
X85975589Y-102790664D01*
X86090498Y-102962638D01*
X86169650Y-103153726D01*
X86210000Y-103356584D01*
X86210000Y-103563416D01*
X86169650Y-103766274D01*
X86090498Y-103957362D01*
X85975589Y-104129336D01*
X85829336Y-104275589D01*
X85657362Y-104390498D01*
X85466274Y-104469650D01*
X85285888Y-104505530D01*
X85263417Y-104510000D01*
X85056583Y-104510000D01*
X85034112Y-104505530D01*
X84853726Y-104469650D01*
X84662638Y-104390498D01*
X84490664Y-104275589D01*
X84344411Y-104129336D01*
X84229502Y-103957362D01*
X84150350Y-103766274D01*
X84110000Y-103563416D01*
X84110000Y-103356584D01*
X84150350Y-103153726D01*
X84229502Y-102962638D01*
X84344411Y-102790664D01*
X84490664Y-102644411D01*
X84662638Y-102529502D01*
X84853726Y-102450350D01*
X85034112Y-102414470D01*
X85056583Y-102410000D01*
X85263417Y-102410000D01*
X85285888Y-102414470D01*
X85285888Y-102414470D01*
G37*
G36*
X85285888Y-97914470D02*
X85466274Y-97950350D01*
X85657362Y-98029502D01*
X85829336Y-98144411D01*
X85975589Y-98290664D01*
X86090498Y-98462638D01*
X86169650Y-98653726D01*
X86210000Y-98856584D01*
X86210000Y-99063416D01*
X86169650Y-99266274D01*
X86090498Y-99457362D01*
X85975589Y-99629336D01*
X85829336Y-99775589D01*
X85657362Y-99890498D01*
X85466274Y-99969650D01*
X85285888Y-100005530D01*
X85263417Y-100010000D01*
X85056583Y-100010000D01*
X85034112Y-100005530D01*
X84853726Y-99969650D01*
X84662638Y-99890498D01*
X84490664Y-99775589D01*
X84344411Y-99629336D01*
X84229502Y-99457362D01*
X84150350Y-99266274D01*
X84110000Y-99063416D01*
X84110000Y-98856584D01*
X84150350Y-98653726D01*
X84229502Y-98462638D01*
X84344411Y-98290664D01*
X84490664Y-98144411D01*
X84662638Y-98029502D01*
X84853726Y-97950350D01*
X85034112Y-97914470D01*
X85056583Y-97910000D01*
X85263417Y-97910000D01*
X85285888Y-97914470D01*
X85285888Y-97914470D01*
G37*
G36*
X91785888Y-97914470D02*
X91966274Y-97950350D01*
X92157362Y-98029502D01*
X92329336Y-98144411D01*
X92475589Y-98290664D01*
X92590498Y-98462638D01*
X92669650Y-98653726D01*
X92710000Y-98856584D01*
X92710000Y-99063416D01*
X92669650Y-99266274D01*
X92590498Y-99457362D01*
X92475589Y-99629336D01*
X92329336Y-99775589D01*
X92157362Y-99890498D01*
X91966274Y-99969650D01*
X91785888Y-100005530D01*
X91763417Y-100010000D01*
X91556583Y-100010000D01*
X91534112Y-100005530D01*
X91353726Y-99969650D01*
X91162638Y-99890498D01*
X90990664Y-99775589D01*
X90844411Y-99629336D01*
X90729502Y-99457362D01*
X90650350Y-99266274D01*
X90610000Y-99063416D01*
X90610000Y-98856584D01*
X90650350Y-98653726D01*
X90729502Y-98462638D01*
X90844411Y-98290664D01*
X90990664Y-98144411D01*
X91162638Y-98029502D01*
X91353726Y-97950350D01*
X91534112Y-97914470D01*
X91556583Y-97910000D01*
X91763417Y-97910000D01*
X91785888Y-97914470D01*
X91785888Y-97914470D01*
G37*
G36*
X119385888Y-96414470D02*
X119566274Y-96450350D01*
X119757362Y-96529502D01*
X119929336Y-96644411D01*
X120075589Y-96790664D01*
X120190498Y-96962638D01*
X120269650Y-97153726D01*
X120310000Y-97356584D01*
X120310000Y-97563416D01*
X120269650Y-97766274D01*
X120190498Y-97957362D01*
X120075589Y-98129336D01*
X119929336Y-98275589D01*
X119757362Y-98390498D01*
X119566274Y-98469650D01*
X119385888Y-98505530D01*
X119363417Y-98510000D01*
X119156583Y-98510000D01*
X119134112Y-98505530D01*
X118953726Y-98469650D01*
X118762638Y-98390498D01*
X118590664Y-98275589D01*
X118444411Y-98129336D01*
X118329502Y-97957362D01*
X118250350Y-97766274D01*
X118210000Y-97563416D01*
X118210000Y-97356584D01*
X118250350Y-97153726D01*
X118329502Y-96962638D01*
X118444411Y-96790664D01*
X118590664Y-96644411D01*
X118762638Y-96529502D01*
X118953726Y-96450350D01*
X119134112Y-96414470D01*
X119156583Y-96410000D01*
X119363417Y-96410000D01*
X119385888Y-96414470D01*
X119385888Y-96414470D01*
G37*
G36*
X114885888Y-96414470D02*
X115066274Y-96450350D01*
X115257362Y-96529502D01*
X115429336Y-96644411D01*
X115575589Y-96790664D01*
X115690498Y-96962638D01*
X115769650Y-97153726D01*
X115810000Y-97356584D01*
X115810000Y-97563416D01*
X115769650Y-97766274D01*
X115690498Y-97957362D01*
X115575589Y-98129336D01*
X115429336Y-98275589D01*
X115257362Y-98390498D01*
X115066274Y-98469650D01*
X114885888Y-98505530D01*
X114863417Y-98510000D01*
X114656583Y-98510000D01*
X114634112Y-98505530D01*
X114453726Y-98469650D01*
X114262638Y-98390498D01*
X114090664Y-98275589D01*
X113944411Y-98129336D01*
X113829502Y-97957362D01*
X113750350Y-97766274D01*
X113710000Y-97563416D01*
X113710000Y-97356584D01*
X113750350Y-97153726D01*
X113829502Y-96962638D01*
X113944411Y-96790664D01*
X114090664Y-96644411D01*
X114262638Y-96529502D01*
X114453726Y-96450350D01*
X114634112Y-96414470D01*
X114656583Y-96410000D01*
X114863417Y-96410000D01*
X114885888Y-96414470D01*
X114885888Y-96414470D01*
G37*
G36*
X111226393Y-92033553D02*
X111335872Y-92055330D01*
X111645252Y-92183479D01*
X111923687Y-92369523D01*
X112160477Y-92606313D01*
X112346521Y-92884748D01*
X112474670Y-93194128D01*
X112540000Y-93522565D01*
X112540000Y-93857435D01*
X112474670Y-94185872D01*
X112346521Y-94495252D01*
X112160477Y-94773687D01*
X111923687Y-95010477D01*
X111645252Y-95196521D01*
X111335872Y-95324670D01*
X111226393Y-95346447D01*
X111007437Y-95390000D01*
X110672563Y-95390000D01*
X110453607Y-95346447D01*
X110344128Y-95324670D01*
X110034748Y-95196521D01*
X109756313Y-95010477D01*
X109519523Y-94773687D01*
X109333479Y-94495252D01*
X109205330Y-94185872D01*
X109140000Y-93857435D01*
X109140000Y-93522565D01*
X109205330Y-93194128D01*
X109333479Y-92884748D01*
X109519523Y-92606313D01*
X109756313Y-92369523D01*
X110034748Y-92183479D01*
X110344128Y-92055330D01*
X110453607Y-92033553D01*
X110672563Y-91990000D01*
X111007437Y-91990000D01*
X111226393Y-92033553D01*
X111226393Y-92033553D01*
G37*
G36*
X80866393Y-92033553D02*
X80975872Y-92055330D01*
X81285252Y-92183479D01*
X81563687Y-92369523D01*
X81800477Y-92606313D01*
X81986521Y-92884748D01*
X82114670Y-93194128D01*
X82180000Y-93522565D01*
X82180000Y-93857435D01*
X82114670Y-94185872D01*
X81986521Y-94495252D01*
X81800477Y-94773687D01*
X81563687Y-95010477D01*
X81285252Y-95196521D01*
X80975872Y-95324670D01*
X80866393Y-95346447D01*
X80647437Y-95390000D01*
X80312563Y-95390000D01*
X80093607Y-95346447D01*
X79984128Y-95324670D01*
X79674748Y-95196521D01*
X79396313Y-95010477D01*
X79159523Y-94773687D01*
X78973479Y-94495252D01*
X78845330Y-94185872D01*
X78780000Y-93857435D01*
X78780000Y-93522565D01*
X78845330Y-93194128D01*
X78973479Y-92884748D01*
X79159523Y-92606313D01*
X79396313Y-92369523D01*
X79674748Y-92183479D01*
X79984128Y-92055330D01*
X80093607Y-92033553D01*
X80312563Y-91990000D01*
X80647437Y-91990000D01*
X80866393Y-92033553D01*
X80866393Y-92033553D01*
G37*
G36*
X119385888Y-89914470D02*
X119566274Y-89950350D01*
X119757362Y-90029502D01*
X119929336Y-90144411D01*
X120075589Y-90290664D01*
X120190498Y-90462638D01*
X120269650Y-90653726D01*
X120310000Y-90856584D01*
X120310000Y-91063416D01*
X120269650Y-91266274D01*
X120190498Y-91457362D01*
X120075589Y-91629336D01*
X119929336Y-91775589D01*
X119757362Y-91890498D01*
X119566274Y-91969650D01*
X119385888Y-92005530D01*
X119363417Y-92010000D01*
X119156583Y-92010000D01*
X119134112Y-92005530D01*
X118953726Y-91969650D01*
X118762638Y-91890498D01*
X118590664Y-91775589D01*
X118444411Y-91629336D01*
X118329502Y-91457362D01*
X118250350Y-91266274D01*
X118210000Y-91063416D01*
X118210000Y-90856584D01*
X118250350Y-90653726D01*
X118329502Y-90462638D01*
X118444411Y-90290664D01*
X118590664Y-90144411D01*
X118762638Y-90029502D01*
X118953726Y-89950350D01*
X119134112Y-89914470D01*
X119156583Y-89910000D01*
X119363417Y-89910000D01*
X119385888Y-89914470D01*
X119385888Y-89914470D01*
G37*
G36*
X114885888Y-89914470D02*
X115066274Y-89950350D01*
X115257362Y-90029502D01*
X115429336Y-90144411D01*
X115575589Y-90290664D01*
X115690498Y-90462638D01*
X115769650Y-90653726D01*
X115810000Y-90856584D01*
X115810000Y-91063416D01*
X115769650Y-91266274D01*
X115690498Y-91457362D01*
X115575589Y-91629336D01*
X115429336Y-91775589D01*
X115257362Y-91890498D01*
X115066274Y-91969650D01*
X114885888Y-92005530D01*
X114863417Y-92010000D01*
X114656583Y-92010000D01*
X114634112Y-92005530D01*
X114453726Y-91969650D01*
X114262638Y-91890498D01*
X114090664Y-91775589D01*
X113944411Y-91629336D01*
X113829502Y-91457362D01*
X113750350Y-91266274D01*
X113710000Y-91063416D01*
X113710000Y-90856584D01*
X113750350Y-90653726D01*
X113829502Y-90462638D01*
X113944411Y-90290664D01*
X114090664Y-90144411D01*
X114262638Y-90029502D01*
X114453726Y-89950350D01*
X114634112Y-89914470D01*
X114656583Y-89910000D01*
X114863417Y-89910000D01*
X114885888Y-89914470D01*
X114885888Y-89914470D01*
G37*
G36*
X117834490Y-87809490D02*
X115435510Y-87809490D01*
X115435510Y-85410510D01*
X117834490Y-85410510D01*
X117834490Y-87809490D01*
X117834490Y-87809490D01*
G37*
G36*
X73642503Y-83455789D02*
X73842991Y-83516607D01*
X74027764Y-83615369D01*
X74189718Y-83748282D01*
X74322631Y-83910236D01*
X74421393Y-84095009D01*
X74482211Y-84295497D01*
X74502746Y-84504000D01*
X74482211Y-84712503D01*
X74421393Y-84912991D01*
X74322631Y-85097764D01*
X74189718Y-85259718D01*
X74027764Y-85392631D01*
X73842991Y-85491393D01*
X73642503Y-85552211D01*
X73486251Y-85567600D01*
X73381749Y-85567600D01*
X73225497Y-85552211D01*
X73025009Y-85491393D01*
X72840236Y-85392631D01*
X72678282Y-85259718D01*
X72545369Y-85097764D01*
X72446607Y-84912991D01*
X72385789Y-84712503D01*
X72365254Y-84504000D01*
X72385789Y-84295497D01*
X72446607Y-84095009D01*
X72545369Y-83910236D01*
X72678282Y-83748282D01*
X72840236Y-83615369D01*
X73025009Y-83516607D01*
X73225497Y-83455789D01*
X73381749Y-83440400D01*
X73486251Y-83440400D01*
X73642503Y-83455789D01*
X73642503Y-83455789D01*
G37*
G36*
X76182503Y-83455789D02*
X76382991Y-83516607D01*
X76567764Y-83615369D01*
X76729718Y-83748282D01*
X76862631Y-83910236D01*
X76961393Y-84095009D01*
X77022211Y-84295497D01*
X77042746Y-84504000D01*
X77022211Y-84712503D01*
X76961393Y-84912991D01*
X76862631Y-85097764D01*
X76729718Y-85259718D01*
X76567764Y-85392631D01*
X76382991Y-85491393D01*
X76182503Y-85552211D01*
X76026251Y-85567600D01*
X75921749Y-85567600D01*
X75765497Y-85552211D01*
X75565009Y-85491393D01*
X75380236Y-85392631D01*
X75218282Y-85259718D01*
X75085369Y-85097764D01*
X74986607Y-84912991D01*
X74925789Y-84712503D01*
X74905254Y-84504000D01*
X74925789Y-84295497D01*
X74986607Y-84095009D01*
X75085369Y-83910236D01*
X75218282Y-83748282D01*
X75380236Y-83615369D01*
X75565009Y-83516607D01*
X75765497Y-83455789D01*
X75921749Y-83440400D01*
X76026251Y-83440400D01*
X76182503Y-83455789D01*
X76182503Y-83455789D01*
G37*
G36*
X116984876Y-81646605D02*
X117203172Y-81737026D01*
X117399633Y-81868297D01*
X117566703Y-82035367D01*
X117697974Y-82231828D01*
X117788395Y-82450124D01*
X117834490Y-82681859D01*
X117834490Y-82918141D01*
X117788395Y-83149876D01*
X117697974Y-83368172D01*
X117566703Y-83564633D01*
X117399633Y-83731703D01*
X117203172Y-83862974D01*
X116984876Y-83953395D01*
X116753141Y-83999490D01*
X116516859Y-83999490D01*
X116285124Y-83953395D01*
X116066828Y-83862974D01*
X115870367Y-83731703D01*
X115703297Y-83564633D01*
X115572026Y-83368172D01*
X115481605Y-83149876D01*
X115435510Y-82918141D01*
X115435510Y-82681859D01*
X115481605Y-82450124D01*
X115572026Y-82231828D01*
X115703297Y-82035367D01*
X115870367Y-81868297D01*
X116066828Y-81737026D01*
X116285124Y-81646605D01*
X116516859Y-81600510D01*
X116753141Y-81600510D01*
X116984876Y-81646605D01*
X116984876Y-81646605D01*
G37*
G36*
X76182503Y-80915789D02*
X76382991Y-80976607D01*
X76567764Y-81075369D01*
X76729718Y-81208282D01*
X76862631Y-81370236D01*
X76961393Y-81555009D01*
X77022211Y-81755497D01*
X77042746Y-81964000D01*
X77022211Y-82172503D01*
X76961393Y-82372991D01*
X76862631Y-82557764D01*
X76729718Y-82719718D01*
X76567764Y-82852631D01*
X76382991Y-82951393D01*
X76182503Y-83012211D01*
X76026251Y-83027600D01*
X75921749Y-83027600D01*
X75765497Y-83012211D01*
X75565009Y-82951393D01*
X75380236Y-82852631D01*
X75218282Y-82719718D01*
X75085369Y-82557764D01*
X74986607Y-82372991D01*
X74925789Y-82172503D01*
X74905254Y-81964000D01*
X74925789Y-81755497D01*
X74986607Y-81555009D01*
X75085369Y-81370236D01*
X75218282Y-81208282D01*
X75380236Y-81075369D01*
X75565009Y-80976607D01*
X75765497Y-80915789D01*
X75921749Y-80900400D01*
X76026251Y-80900400D01*
X76182503Y-80915789D01*
X76182503Y-80915789D01*
G37*
G36*
X73642503Y-80915789D02*
X73842991Y-80976607D01*
X74027764Y-81075369D01*
X74189718Y-81208282D01*
X74322631Y-81370236D01*
X74421393Y-81555009D01*
X74482211Y-81755497D01*
X74502746Y-81964000D01*
X74482211Y-82172503D01*
X74421393Y-82372991D01*
X74322631Y-82557764D01*
X74189718Y-82719718D01*
X74027764Y-82852631D01*
X73842991Y-82951393D01*
X73642503Y-83012211D01*
X73486251Y-83027600D01*
X73381749Y-83027600D01*
X73225497Y-83012211D01*
X73025009Y-82951393D01*
X72840236Y-82852631D01*
X72678282Y-82719718D01*
X72545369Y-82557764D01*
X72446607Y-82372991D01*
X72385789Y-82172503D01*
X72365254Y-81964000D01*
X72385789Y-81755497D01*
X72446607Y-81555009D01*
X72545369Y-81370236D01*
X72678282Y-81208282D01*
X72840236Y-81075369D01*
X73025009Y-80976607D01*
X73225497Y-80915789D01*
X73381749Y-80900400D01*
X73486251Y-80900400D01*
X73642503Y-80915789D01*
X73642503Y-80915789D01*
G37*
G36*
X76182503Y-78375789D02*
X76382991Y-78436607D01*
X76567764Y-78535369D01*
X76729718Y-78668282D01*
X76862631Y-78830236D01*
X76961393Y-79015009D01*
X77022211Y-79215497D01*
X77042746Y-79424000D01*
X77022211Y-79632503D01*
X76961393Y-79832991D01*
X76862631Y-80017764D01*
X76729718Y-80179718D01*
X76567764Y-80312631D01*
X76382991Y-80411393D01*
X76182503Y-80472211D01*
X76026251Y-80487600D01*
X75921749Y-80487600D01*
X75765497Y-80472211D01*
X75565009Y-80411393D01*
X75380236Y-80312631D01*
X75218282Y-80179718D01*
X75085369Y-80017764D01*
X74986607Y-79832991D01*
X74925789Y-79632503D01*
X74905254Y-79424000D01*
X74925789Y-79215497D01*
X74986607Y-79015009D01*
X75085369Y-78830236D01*
X75218282Y-78668282D01*
X75380236Y-78535369D01*
X75565009Y-78436607D01*
X75765497Y-78375789D01*
X75921749Y-78360400D01*
X76026251Y-78360400D01*
X76182503Y-78375789D01*
X76182503Y-78375789D01*
G37*
G36*
X73642503Y-78375789D02*
X73842991Y-78436607D01*
X74027764Y-78535369D01*
X74189718Y-78668282D01*
X74322631Y-78830236D01*
X74421393Y-79015009D01*
X74482211Y-79215497D01*
X74502746Y-79424000D01*
X74482211Y-79632503D01*
X74421393Y-79832991D01*
X74322631Y-80017764D01*
X74189718Y-80179718D01*
X74027764Y-80312631D01*
X73842991Y-80411393D01*
X73642503Y-80472211D01*
X73486251Y-80487600D01*
X73381749Y-80487600D01*
X73225497Y-80472211D01*
X73025009Y-80411393D01*
X72840236Y-80312631D01*
X72678282Y-80179718D01*
X72545369Y-80017764D01*
X72446607Y-79832991D01*
X72385789Y-79632503D01*
X72365254Y-79424000D01*
X72385789Y-79215497D01*
X72446607Y-79015009D01*
X72545369Y-78830236D01*
X72678282Y-78668282D01*
X72840236Y-78535369D01*
X73025009Y-78436607D01*
X73225497Y-78375789D01*
X73381749Y-78360400D01*
X73486251Y-78360400D01*
X73642503Y-78375789D01*
X73642503Y-78375789D01*
G37*
G36*
X116934876Y-76966605D02*
X117153172Y-77057026D01*
X117349633Y-77188297D01*
X117516703Y-77355367D01*
X117647974Y-77551828D01*
X117738395Y-77770124D01*
X117784490Y-78001859D01*
X117784490Y-78238141D01*
X117738395Y-78469876D01*
X117647974Y-78688172D01*
X117516703Y-78884633D01*
X117349633Y-79051703D01*
X117153172Y-79182974D01*
X116934876Y-79273395D01*
X116703141Y-79319490D01*
X116466859Y-79319490D01*
X116235124Y-79273395D01*
X116016828Y-79182974D01*
X115820367Y-79051703D01*
X115653297Y-78884633D01*
X115522026Y-78688172D01*
X115431605Y-78469876D01*
X115385510Y-78238141D01*
X115385510Y-78001859D01*
X115431605Y-77770124D01*
X115522026Y-77551828D01*
X115653297Y-77355367D01*
X115820367Y-77188297D01*
X116016828Y-77057026D01*
X116235124Y-76966605D01*
X116466859Y-76920510D01*
X116703141Y-76920510D01*
X116934876Y-76966605D01*
X116934876Y-76966605D01*
G37*
G36*
X76182503Y-75835789D02*
X76382991Y-75896607D01*
X76567764Y-75995369D01*
X76729718Y-76128282D01*
X76862631Y-76290236D01*
X76961393Y-76475009D01*
X77022211Y-76675497D01*
X77042746Y-76884000D01*
X77022211Y-77092503D01*
X76961393Y-77292991D01*
X76862631Y-77477764D01*
X76729718Y-77639718D01*
X76567764Y-77772631D01*
X76382991Y-77871393D01*
X76182503Y-77932211D01*
X76026251Y-77947600D01*
X75921749Y-77947600D01*
X75765497Y-77932211D01*
X75565009Y-77871393D01*
X75380236Y-77772631D01*
X75218282Y-77639718D01*
X75085369Y-77477764D01*
X74986607Y-77292991D01*
X74925789Y-77092503D01*
X74905254Y-76884000D01*
X74925789Y-76675497D01*
X74986607Y-76475009D01*
X75085369Y-76290236D01*
X75218282Y-76128282D01*
X75380236Y-75995369D01*
X75565009Y-75896607D01*
X75765497Y-75835789D01*
X75921749Y-75820400D01*
X76026251Y-75820400D01*
X76182503Y-75835789D01*
X76182503Y-75835789D01*
G37*
G36*
X74497600Y-77947600D02*
X72370400Y-77947600D01*
X72370400Y-75820400D01*
X74497600Y-75820400D01*
X74497600Y-77947600D01*
X74497600Y-77947600D01*
G37*
G36*
X117784490Y-75509490D02*
X115385510Y-75509490D01*
X115385510Y-73110510D01*
X117784490Y-73110510D01*
X117784490Y-75509490D01*
X117784490Y-75509490D01*
G37*
G36*
X80866393Y-63573553D02*
X80975872Y-63595330D01*
X81285252Y-63723479D01*
X81563687Y-63909523D01*
X81800477Y-64146313D01*
X81986521Y-64424748D01*
X82114670Y-64734128D01*
X82136447Y-64843607D01*
X82180000Y-65062563D01*
X82180000Y-65397437D01*
X82147164Y-65562513D01*
X82114670Y-65725872D01*
X81986521Y-66035252D01*
X81800477Y-66313687D01*
X81563687Y-66550477D01*
X81285252Y-66736521D01*
X80975872Y-66864670D01*
X80866393Y-66886447D01*
X80647437Y-66930000D01*
X80312563Y-66930000D01*
X80093607Y-66886447D01*
X79984128Y-66864670D01*
X79674748Y-66736521D01*
X79396313Y-66550477D01*
X79159523Y-66313687D01*
X78973479Y-66035252D01*
X78845330Y-65725872D01*
X78812836Y-65562513D01*
X78780000Y-65397437D01*
X78780000Y-65062563D01*
X78823553Y-64843607D01*
X78845330Y-64734128D01*
X78973479Y-64424748D01*
X79159523Y-64146313D01*
X79396313Y-63909523D01*
X79674748Y-63723479D01*
X79984128Y-63595330D01*
X80093607Y-63573553D01*
X80312563Y-63530000D01*
X80647437Y-63530000D01*
X80866393Y-63573553D01*
X80866393Y-63573553D01*
G37*
G36*
X111226393Y-63573553D02*
X111335872Y-63595330D01*
X111645252Y-63723479D01*
X111923687Y-63909523D01*
X112160477Y-64146313D01*
X112346521Y-64424748D01*
X112474670Y-64734128D01*
X112496447Y-64843607D01*
X112540000Y-65062563D01*
X112540000Y-65397437D01*
X112507164Y-65562513D01*
X112474670Y-65725872D01*
X112346521Y-66035252D01*
X112160477Y-66313687D01*
X111923687Y-66550477D01*
X111645252Y-66736521D01*
X111335872Y-66864670D01*
X111226393Y-66886447D01*
X111007437Y-66930000D01*
X110672563Y-66930000D01*
X110453607Y-66886447D01*
X110344128Y-66864670D01*
X110034748Y-66736521D01*
X109756313Y-66550477D01*
X109519523Y-66313687D01*
X109333479Y-66035252D01*
X109205330Y-65725872D01*
X109172836Y-65562513D01*
X109140000Y-65397437D01*
X109140000Y-65062563D01*
X109183553Y-64843607D01*
X109205330Y-64734128D01*
X109333479Y-64424748D01*
X109519523Y-64146313D01*
X109756313Y-63909523D01*
X110034748Y-63723479D01*
X110344128Y-63595330D01*
X110453607Y-63573553D01*
X110672563Y-63530000D01*
X111007437Y-63530000D01*
X111226393Y-63573553D01*
X111226393Y-63573553D01*
G37*
G36*
X95940603Y-63784968D02*
X95940606Y-63784969D01*
X95940605Y-63784969D01*
X96115678Y-63857486D01*
X96115679Y-63857487D01*
X96273241Y-63962767D01*
X96407233Y-64096759D01*
X96407234Y-64096761D01*
X96512514Y-64254322D01*
X96568603Y-64389734D01*
X96585032Y-64429397D01*
X96622000Y-64615250D01*
X96622000Y-64804750D01*
X96585032Y-64990603D01*
X96585031Y-64990605D01*
X96512514Y-65165678D01*
X96512513Y-65165679D01*
X96407233Y-65323241D01*
X96273241Y-65457233D01*
X96193923Y-65510232D01*
X96115678Y-65562514D01*
X95980266Y-65618603D01*
X95940603Y-65635032D01*
X95754750Y-65672000D01*
X95565250Y-65672000D01*
X95379397Y-65635032D01*
X95339734Y-65618603D01*
X95204322Y-65562514D01*
X95126077Y-65510232D01*
X95046759Y-65457233D01*
X94912767Y-65323241D01*
X94807487Y-65165679D01*
X94807486Y-65165678D01*
X94734969Y-64990605D01*
X94734968Y-64990603D01*
X94698000Y-64804750D01*
X94698000Y-64615250D01*
X94734968Y-64429397D01*
X94751397Y-64389734D01*
X94807486Y-64254322D01*
X94912766Y-64096761D01*
X94912767Y-64096759D01*
X95046759Y-63962767D01*
X95204321Y-63857487D01*
X95204322Y-63857486D01*
X95379395Y-63784969D01*
X95379394Y-63784969D01*
X95379397Y-63784968D01*
X95565250Y-63748000D01*
X95754750Y-63748000D01*
X95940603Y-63784968D01*
X95940603Y-63784968D01*
G37*
G36*
X90860603Y-63784968D02*
X90860606Y-63784969D01*
X90860605Y-63784969D01*
X91035678Y-63857486D01*
X91035679Y-63857487D01*
X91193241Y-63962767D01*
X91327233Y-64096759D01*
X91327234Y-64096761D01*
X91432514Y-64254322D01*
X91488603Y-64389734D01*
X91505032Y-64429397D01*
X91542000Y-64615250D01*
X91542000Y-64804750D01*
X91505032Y-64990603D01*
X91505031Y-64990605D01*
X91432514Y-65165678D01*
X91432513Y-65165679D01*
X91327233Y-65323241D01*
X91193241Y-65457233D01*
X91113923Y-65510232D01*
X91035678Y-65562514D01*
X90900266Y-65618603D01*
X90860603Y-65635032D01*
X90674750Y-65672000D01*
X90485250Y-65672000D01*
X90299397Y-65635032D01*
X90259734Y-65618603D01*
X90124322Y-65562514D01*
X90046077Y-65510232D01*
X89966759Y-65457233D01*
X89832767Y-65323241D01*
X89727487Y-65165679D01*
X89727486Y-65165678D01*
X89654969Y-64990605D01*
X89654968Y-64990603D01*
X89618000Y-64804750D01*
X89618000Y-64615250D01*
X89654968Y-64429397D01*
X89671397Y-64389734D01*
X89727486Y-64254322D01*
X89832766Y-64096761D01*
X89832767Y-64096759D01*
X89966759Y-63962767D01*
X90124321Y-63857487D01*
X90124322Y-63857486D01*
X90299395Y-63784969D01*
X90299394Y-63784969D01*
X90299397Y-63784968D01*
X90485250Y-63748000D01*
X90674750Y-63748000D01*
X90860603Y-63784968D01*
X90860603Y-63784968D01*
G37*
G36*
X93400603Y-63784968D02*
X93400606Y-63784969D01*
X93400605Y-63784969D01*
X93575678Y-63857486D01*
X93575679Y-63857487D01*
X93733241Y-63962767D01*
X93867233Y-64096759D01*
X93867234Y-64096761D01*
X93972514Y-64254322D01*
X94028603Y-64389734D01*
X94045032Y-64429397D01*
X94082000Y-64615250D01*
X94082000Y-64804750D01*
X94045032Y-64990603D01*
X94045031Y-64990605D01*
X93972514Y-65165678D01*
X93972513Y-65165679D01*
X93867233Y-65323241D01*
X93733241Y-65457233D01*
X93653923Y-65510232D01*
X93575678Y-65562514D01*
X93440266Y-65618603D01*
X93400603Y-65635032D01*
X93214750Y-65672000D01*
X93025250Y-65672000D01*
X92839397Y-65635032D01*
X92799734Y-65618603D01*
X92664322Y-65562514D01*
X92586077Y-65510232D01*
X92506759Y-65457233D01*
X92372767Y-65323241D01*
X92267487Y-65165679D01*
X92267486Y-65165678D01*
X92194969Y-64990605D01*
X92194968Y-64990603D01*
X92158000Y-64804750D01*
X92158000Y-64615250D01*
X92194968Y-64429397D01*
X92211397Y-64389734D01*
X92267486Y-64254322D01*
X92372766Y-64096761D01*
X92372767Y-64096759D01*
X92506759Y-63962767D01*
X92664321Y-63857487D01*
X92664322Y-63857486D01*
X92839395Y-63784969D01*
X92839394Y-63784969D01*
X92839397Y-63784968D01*
X93025250Y-63748000D01*
X93214750Y-63748000D01*
X93400603Y-63784968D01*
X93400603Y-63784968D01*
G37*
G36*
X98480603Y-63784968D02*
X98480606Y-63784969D01*
X98480605Y-63784969D01*
X98655678Y-63857486D01*
X98655679Y-63857487D01*
X98813241Y-63962767D01*
X98947233Y-64096759D01*
X98947234Y-64096761D01*
X99052514Y-64254322D01*
X99108603Y-64389734D01*
X99125032Y-64429397D01*
X99162000Y-64615250D01*
X99162000Y-64804750D01*
X99125032Y-64990603D01*
X99125031Y-64990605D01*
X99052514Y-65165678D01*
X99052513Y-65165679D01*
X98947233Y-65323241D01*
X98813241Y-65457233D01*
X98733923Y-65510232D01*
X98655678Y-65562514D01*
X98520266Y-65618603D01*
X98480603Y-65635032D01*
X98294750Y-65672000D01*
X98105250Y-65672000D01*
X97919397Y-65635032D01*
X97879734Y-65618603D01*
X97744322Y-65562514D01*
X97666077Y-65510232D01*
X97586759Y-65457233D01*
X97452767Y-65323241D01*
X97347487Y-65165679D01*
X97347486Y-65165678D01*
X97274969Y-64990605D01*
X97274968Y-64990603D01*
X97238000Y-64804750D01*
X97238000Y-64615250D01*
X97274968Y-64429397D01*
X97291397Y-64389734D01*
X97347486Y-64254322D01*
X97452766Y-64096761D01*
X97452767Y-64096759D01*
X97586759Y-63962767D01*
X97744321Y-63857487D01*
X97744322Y-63857486D01*
X97919395Y-63784969D01*
X97919394Y-63784969D01*
X97919397Y-63784968D01*
X98105250Y-63748000D01*
X98294750Y-63748000D01*
X98480603Y-63784968D01*
X98480603Y-63784968D01*
G37*
G36*
X101020603Y-63784968D02*
X101020606Y-63784969D01*
X101020605Y-63784969D01*
X101195678Y-63857486D01*
X101195679Y-63857487D01*
X101353241Y-63962767D01*
X101487233Y-64096759D01*
X101487234Y-64096761D01*
X101592514Y-64254322D01*
X101648603Y-64389734D01*
X101665032Y-64429397D01*
X101702000Y-64615250D01*
X101702000Y-64804750D01*
X101665032Y-64990603D01*
X101665031Y-64990605D01*
X101592514Y-65165678D01*
X101592513Y-65165679D01*
X101487233Y-65323241D01*
X101353241Y-65457233D01*
X101273923Y-65510232D01*
X101195678Y-65562514D01*
X101060266Y-65618603D01*
X101020603Y-65635032D01*
X100834750Y-65672000D01*
X100645250Y-65672000D01*
X100459397Y-65635032D01*
X100419734Y-65618603D01*
X100284322Y-65562514D01*
X100206077Y-65510232D01*
X100126759Y-65457233D01*
X99992767Y-65323241D01*
X99887487Y-65165679D01*
X99887486Y-65165678D01*
X99814969Y-64990605D01*
X99814968Y-64990603D01*
X99778000Y-64804750D01*
X99778000Y-64615250D01*
X99814968Y-64429397D01*
X99831397Y-64389734D01*
X99887486Y-64254322D01*
X99992766Y-64096761D01*
X99992767Y-64096759D01*
X100126759Y-63962767D01*
X100284321Y-63857487D01*
X100284322Y-63857486D01*
X100459395Y-63784969D01*
X100459394Y-63784969D01*
X100459397Y-63784968D01*
X100645250Y-63748000D01*
X100834750Y-63748000D01*
X101020603Y-63784968D01*
X101020603Y-63784968D01*
G37*
G36*
X103560603Y-63784968D02*
X103560606Y-63784969D01*
X103560605Y-63784969D01*
X103735678Y-63857486D01*
X103735679Y-63857487D01*
X103893241Y-63962767D01*
X104027233Y-64096759D01*
X104027234Y-64096761D01*
X104132514Y-64254322D01*
X104188603Y-64389734D01*
X104205032Y-64429397D01*
X104242000Y-64615250D01*
X104242000Y-64804750D01*
X104205032Y-64990603D01*
X104205031Y-64990605D01*
X104132514Y-65165678D01*
X104132513Y-65165679D01*
X104027233Y-65323241D01*
X103893241Y-65457233D01*
X103813923Y-65510232D01*
X103735678Y-65562514D01*
X103600266Y-65618603D01*
X103560603Y-65635032D01*
X103374750Y-65672000D01*
X103185250Y-65672000D01*
X102999397Y-65635032D01*
X102959734Y-65618603D01*
X102824322Y-65562514D01*
X102746077Y-65510232D01*
X102666759Y-65457233D01*
X102532767Y-65323241D01*
X102427487Y-65165679D01*
X102427486Y-65165678D01*
X102354969Y-64990605D01*
X102354968Y-64990603D01*
X102318000Y-64804750D01*
X102318000Y-64615250D01*
X102354968Y-64429397D01*
X102371397Y-64389734D01*
X102427486Y-64254322D01*
X102532766Y-64096761D01*
X102532767Y-64096759D01*
X102666759Y-63962767D01*
X102824321Y-63857487D01*
X102824322Y-63857486D01*
X102999395Y-63784969D01*
X102999394Y-63784969D01*
X102999397Y-63784968D01*
X103185250Y-63748000D01*
X103374750Y-63748000D01*
X103560603Y-63784968D01*
X103560603Y-63784968D01*
G37*
G36*
X88320603Y-63784968D02*
X88320606Y-63784969D01*
X88320605Y-63784969D01*
X88495678Y-63857486D01*
X88495679Y-63857487D01*
X88653241Y-63962767D01*
X88787233Y-64096759D01*
X88787234Y-64096761D01*
X88892514Y-64254322D01*
X88948603Y-64389734D01*
X88965032Y-64429397D01*
X89002000Y-64615250D01*
X89002000Y-64804750D01*
X88965032Y-64990603D01*
X88965031Y-64990605D01*
X88892514Y-65165678D01*
X88892513Y-65165679D01*
X88787233Y-65323241D01*
X88653241Y-65457233D01*
X88573923Y-65510232D01*
X88495678Y-65562514D01*
X88360266Y-65618603D01*
X88320603Y-65635032D01*
X88134750Y-65672000D01*
X87945250Y-65672000D01*
X87759397Y-65635032D01*
X87719734Y-65618603D01*
X87584322Y-65562514D01*
X87506077Y-65510232D01*
X87426759Y-65457233D01*
X87292767Y-65323241D01*
X87187487Y-65165679D01*
X87187486Y-65165678D01*
X87114969Y-64990605D01*
X87114968Y-64990603D01*
X87078000Y-64804750D01*
X87078000Y-64615250D01*
X87114968Y-64429397D01*
X87131397Y-64389734D01*
X87187486Y-64254322D01*
X87292766Y-64096761D01*
X87292767Y-64096759D01*
X87426759Y-63962767D01*
X87584321Y-63857487D01*
X87584322Y-63857486D01*
X87759395Y-63784969D01*
X87759394Y-63784969D01*
X87759397Y-63784968D01*
X87945250Y-63748000D01*
X88134750Y-63748000D01*
X88320603Y-63784968D01*
X88320603Y-63784968D01*
G37*
G36*
X107748707Y-57917596D02*
X107825836Y-57925193D01*
X107957787Y-57965220D01*
X108023763Y-57985233D01*
X108206172Y-58082733D01*
X108366054Y-58213946D01*
X108497267Y-58373828D01*
X108594767Y-58556237D01*
X108594767Y-58556238D01*
X108654807Y-58754164D01*
X108675080Y-58960000D01*
X108654807Y-59165836D01*
X108614780Y-59297787D01*
X108594767Y-59363763D01*
X108497267Y-59546172D01*
X108366054Y-59706054D01*
X108206172Y-59837267D01*
X108023763Y-59934767D01*
X107957787Y-59954780D01*
X107825836Y-59994807D01*
X107748707Y-60002403D01*
X107671580Y-60010000D01*
X107568420Y-60010000D01*
X107491293Y-60002403D01*
X107414164Y-59994807D01*
X107282213Y-59954780D01*
X107216237Y-59934767D01*
X107033828Y-59837267D01*
X106873946Y-59706054D01*
X106742733Y-59546172D01*
X106645233Y-59363763D01*
X106625220Y-59297787D01*
X106585193Y-59165836D01*
X106564920Y-58960000D01*
X106585193Y-58754164D01*
X106645233Y-58556238D01*
X106645233Y-58556237D01*
X106742733Y-58373828D01*
X106873946Y-58213946D01*
X107033828Y-58082733D01*
X107216237Y-57985233D01*
X107282213Y-57965220D01*
X107414164Y-57925193D01*
X107491293Y-57917596D01*
X107568420Y-57910000D01*
X107671580Y-57910000D01*
X107748707Y-57917596D01*
X107748707Y-57917596D01*
G37*
G36*
X111210000Y-60010000D02*
X109110000Y-60010000D01*
X109110000Y-57910000D01*
X111210000Y-57910000D01*
X111210000Y-60010000D01*
X111210000Y-60010000D01*
G37*
G36*
X110288707Y-55377597D02*
X110365836Y-55385193D01*
X110497787Y-55425220D01*
X110563763Y-55445233D01*
X110746172Y-55542733D01*
X110906054Y-55673946D01*
X111037267Y-55833828D01*
X111134767Y-56016237D01*
X111146568Y-56055140D01*
X111194807Y-56214164D01*
X111215080Y-56420000D01*
X111194807Y-56625836D01*
X111154780Y-56757787D01*
X111134767Y-56823763D01*
X111037267Y-57006172D01*
X110906054Y-57166054D01*
X110746172Y-57297267D01*
X110563763Y-57394767D01*
X110497787Y-57414780D01*
X110365836Y-57454807D01*
X110288707Y-57462404D01*
X110211580Y-57470000D01*
X110108420Y-57470000D01*
X110031293Y-57462404D01*
X109954164Y-57454807D01*
X109822213Y-57414780D01*
X109756237Y-57394767D01*
X109573828Y-57297267D01*
X109413946Y-57166054D01*
X109282733Y-57006172D01*
X109185233Y-56823763D01*
X109165220Y-56757787D01*
X109125193Y-56625836D01*
X109104920Y-56420000D01*
X109125193Y-56214164D01*
X109173432Y-56055140D01*
X109185233Y-56016237D01*
X109282733Y-55833828D01*
X109413946Y-55673946D01*
X109573828Y-55542733D01*
X109756237Y-55445233D01*
X109822213Y-55425220D01*
X109954164Y-55385193D01*
X110031293Y-55377597D01*
X110108420Y-55370000D01*
X110211580Y-55370000D01*
X110288707Y-55377597D01*
X110288707Y-55377597D01*
G37*
G36*
X107748707Y-55377597D02*
X107825836Y-55385193D01*
X107957787Y-55425220D01*
X108023763Y-55445233D01*
X108206172Y-55542733D01*
X108366054Y-55673946D01*
X108497267Y-55833828D01*
X108594767Y-56016237D01*
X108606568Y-56055140D01*
X108654807Y-56214164D01*
X108675080Y-56420000D01*
X108654807Y-56625836D01*
X108614780Y-56757787D01*
X108594767Y-56823763D01*
X108497267Y-57006172D01*
X108366054Y-57166054D01*
X108206172Y-57297267D01*
X108023763Y-57394767D01*
X107957787Y-57414780D01*
X107825836Y-57454807D01*
X107748707Y-57462404D01*
X107671580Y-57470000D01*
X107568420Y-57470000D01*
X107491293Y-57462404D01*
X107414164Y-57454807D01*
X107282213Y-57414780D01*
X107216237Y-57394767D01*
X107033828Y-57297267D01*
X106873946Y-57166054D01*
X106742733Y-57006172D01*
X106645233Y-56823763D01*
X106625220Y-56757787D01*
X106585193Y-56625836D01*
X106564920Y-56420000D01*
X106585193Y-56214164D01*
X106633432Y-56055140D01*
X106645233Y-56016237D01*
X106742733Y-55833828D01*
X106873946Y-55673946D01*
X107033828Y-55542733D01*
X107216237Y-55445233D01*
X107282213Y-55425220D01*
X107414164Y-55385193D01*
X107491293Y-55377597D01*
X107568420Y-55370000D01*
X107671580Y-55370000D01*
X107748707Y-55377597D01*
X107748707Y-55377597D01*
G37*
G36*
X75069122Y-52706115D02*
X75185041Y-52729173D01*
X75416674Y-52825119D01*
X75465138Y-52845193D01*
X75512620Y-52864861D01*
X75718960Y-53002733D01*
X75807436Y-53061851D01*
X76058149Y-53312564D01*
X76058151Y-53312567D01*
X76167513Y-53476238D01*
X76255140Y-53607382D01*
X76390827Y-53934960D01*
X76460000Y-54282714D01*
X76460000Y-54637286D01*
X76390827Y-54985040D01*
X76255140Y-55312618D01*
X76058149Y-55607436D01*
X75807436Y-55858149D01*
X75807433Y-55858151D01*
X75512620Y-56055139D01*
X75185041Y-56190827D01*
X75069122Y-56213885D01*
X74837286Y-56260000D01*
X74482714Y-56260000D01*
X74250878Y-56213885D01*
X74134959Y-56190827D01*
X73807380Y-56055139D01*
X73512567Y-55858151D01*
X73512564Y-55858149D01*
X73261851Y-55607436D01*
X73064860Y-55312618D01*
X72929173Y-54985040D01*
X72860000Y-54637286D01*
X72860000Y-54282714D01*
X72929173Y-53934960D01*
X73064860Y-53607382D01*
X73152488Y-53476238D01*
X73261849Y-53312567D01*
X73261851Y-53312564D01*
X73512564Y-53061851D01*
X73601040Y-53002733D01*
X73807380Y-52864861D01*
X73854863Y-52845193D01*
X73903326Y-52825119D01*
X74134959Y-52729173D01*
X74250878Y-52706115D01*
X74482714Y-52660000D01*
X74837286Y-52660000D01*
X75069122Y-52706115D01*
X75069122Y-52706115D01*
G37*
G36*
X117069122Y-52706115D02*
X117185041Y-52729173D01*
X117416674Y-52825119D01*
X117465138Y-52845193D01*
X117512620Y-52864861D01*
X117718960Y-53002733D01*
X117807436Y-53061851D01*
X118058149Y-53312564D01*
X118058151Y-53312567D01*
X118167513Y-53476238D01*
X118255140Y-53607382D01*
X118390827Y-53934960D01*
X118460000Y-54282714D01*
X118460000Y-54637286D01*
X118390827Y-54985040D01*
X118255140Y-55312618D01*
X118058149Y-55607436D01*
X117807436Y-55858149D01*
X117807433Y-55858151D01*
X117512620Y-56055139D01*
X117185041Y-56190827D01*
X117069122Y-56213885D01*
X116837286Y-56260000D01*
X116482714Y-56260000D01*
X116250878Y-56213885D01*
X116134959Y-56190827D01*
X115807380Y-56055139D01*
X115512567Y-55858151D01*
X115512564Y-55858149D01*
X115261851Y-55607436D01*
X115064860Y-55312618D01*
X114929173Y-54985040D01*
X114860000Y-54637286D01*
X114860000Y-54282714D01*
X114929173Y-53934960D01*
X115064860Y-53607382D01*
X115152488Y-53476238D01*
X115261849Y-53312567D01*
X115261851Y-53312564D01*
X115512564Y-53061851D01*
X115601040Y-53002733D01*
X115807380Y-52864861D01*
X115854863Y-52845193D01*
X115903326Y-52825119D01*
X116134959Y-52729173D01*
X116250878Y-52706115D01*
X116482714Y-52660000D01*
X116837286Y-52660000D01*
X117069122Y-52706115D01*
X117069122Y-52706115D01*
G37*
G36*
X110288707Y-52837597D02*
X110365836Y-52845193D01*
X110497787Y-52885220D01*
X110563763Y-52905233D01*
X110746172Y-53002733D01*
X110906054Y-53133946D01*
X111037267Y-53293828D01*
X111134767Y-53476237D01*
X111134767Y-53476238D01*
X111194807Y-53674164D01*
X111215080Y-53880000D01*
X111194807Y-54085836D01*
X111154780Y-54217787D01*
X111134767Y-54283763D01*
X111037267Y-54466172D01*
X110906054Y-54626054D01*
X110746172Y-54757267D01*
X110563763Y-54854767D01*
X110497787Y-54874780D01*
X110365836Y-54914807D01*
X110288707Y-54922403D01*
X110211580Y-54930000D01*
X110108420Y-54930000D01*
X110031293Y-54922403D01*
X109954164Y-54914807D01*
X109822213Y-54874780D01*
X109756237Y-54854767D01*
X109573828Y-54757267D01*
X109413946Y-54626054D01*
X109282733Y-54466172D01*
X109185233Y-54283763D01*
X109165220Y-54217787D01*
X109125193Y-54085836D01*
X109104920Y-53880000D01*
X109125193Y-53674164D01*
X109185233Y-53476238D01*
X109185233Y-53476237D01*
X109282733Y-53293828D01*
X109413946Y-53133946D01*
X109573828Y-53002733D01*
X109756237Y-52905233D01*
X109822213Y-52885220D01*
X109954164Y-52845193D01*
X110031293Y-52837596D01*
X110108420Y-52830000D01*
X110211580Y-52830000D01*
X110288707Y-52837597D01*
X110288707Y-52837597D01*
G37*
G36*
X107748707Y-52837597D02*
X107825836Y-52845193D01*
X107957787Y-52885220D01*
X108023763Y-52905233D01*
X108206172Y-53002733D01*
X108366054Y-53133946D01*
X108497267Y-53293828D01*
X108594767Y-53476237D01*
X108594767Y-53476238D01*
X108654807Y-53674164D01*
X108675080Y-53880000D01*
X108654807Y-54085836D01*
X108614780Y-54217787D01*
X108594767Y-54283763D01*
X108497267Y-54466172D01*
X108366054Y-54626054D01*
X108206172Y-54757267D01*
X108023763Y-54854767D01*
X107957787Y-54874780D01*
X107825836Y-54914807D01*
X107748707Y-54922403D01*
X107671580Y-54930000D01*
X107568420Y-54930000D01*
X107491293Y-54922403D01*
X107414164Y-54914807D01*
X107282213Y-54874780D01*
X107216237Y-54854767D01*
X107033828Y-54757267D01*
X106873946Y-54626054D01*
X106742733Y-54466172D01*
X106645233Y-54283763D01*
X106625220Y-54217787D01*
X106585193Y-54085836D01*
X106564920Y-53880000D01*
X106585193Y-53674164D01*
X106645233Y-53476238D01*
X106645233Y-53476237D01*
X106742733Y-53293828D01*
X106873946Y-53133946D01*
X107033828Y-53002733D01*
X107216237Y-52905233D01*
X107282213Y-52885220D01*
X107414164Y-52845193D01*
X107491293Y-52837596D01*
X107568420Y-52830000D01*
X107671580Y-52830000D01*
X107748707Y-52837597D01*
X107748707Y-52837597D01*
G37*
M02*
