M48
;DRILL file {KiCad (5.0.1)-4} date 2018-12-14 16:01:13
;FORMAT={-:-/ absolute / metric / decimal}
FMAT,2
METRIC,TZ
T1C0.500
T2C0.762
T3C0.800
T4C1.000
T5C1.016
%
G90
G05
M71
T1
X75.41Y-74.21
X79.41Y-84.46
X80.41Y-126.96
X80.41Y-130.96
X81.66Y-81.41
X82.41Y-79.46
X84.36Y-88.76
X85.16Y-84.06
X85.16Y-131.21
X86.16Y-83.21
X87.31Y-77.21
X87.66Y-75.26
X87.86Y-84.16
X88.16Y-127.71
X90.66Y-71.36
X92.16Y-91.46
X96.41Y-91.71
X96.41Y-95.71
X97.16Y-80.46
X99.16Y-71.36
X99.91Y-91.71
X104.46Y-69.36
X110.36Y-89.96
X113.66Y-62.96
X115.66Y-66.21
X117.66Y-62.46
X118.91Y-103.46
T2
X96.23Y-117.21
X96.23Y-120.21
X96.23Y-128.21
X96.23Y-131.21
X119.09Y-117.21
X119.09Y-131.21
X88.04Y-64.71
X90.58Y-64.71
X93.12Y-64.71
X95.66Y-64.71
X98.2Y-64.71
X100.74Y-64.71
X103.28Y-64.71
T3
X83.66Y-136.71
X86.835Y-136.71
X87.16Y-109.21
X87.16Y-113.02
X116.585Y-74.31
X116.585Y-78.12
X116.635Y-82.8
X116.635Y-86.61
X80.485Y-136.71
T4
X75.16Y-108.96
X75.16Y-113.46
X81.66Y-108.96
X81.66Y-113.46
X85.16Y-98.96
X85.16Y-103.46
X91.66Y-98.96
X91.66Y-103.46
X114.76Y-90.96
X114.76Y-97.46
X119.26Y-90.96
X119.26Y-97.46
X107.62Y-53.88
X107.62Y-56.42
X107.62Y-58.96
X110.16Y-53.88
X110.16Y-56.42
X110.16Y-58.96
X95.16Y-108.96
X95.16Y-113.46
X101.66Y-108.96
X101.66Y-113.46
X85.16Y-118.96
X85.16Y-123.46
X91.66Y-118.96
X91.66Y-123.46
X108.66Y-108.96
X108.66Y-113.46
X115.16Y-108.96
X115.16Y-113.46
T5
X73.434Y-76.884
X73.434Y-79.424
X73.434Y-81.964
X73.434Y-84.504
X75.974Y-76.884
X75.974Y-79.424
X75.974Y-81.964
X75.974Y-84.504
T0
M30
