G04 #@! TF.GenerationSoftware,KiCad,Pcbnew,(5.0.1)-4*
G04 #@! TF.CreationDate,2018-12-14T16:01:06+02:00*
G04 #@! TF.ProjectId,pods,706F64732E6B696361645F7063620000,rev?*
G04 #@! TF.SameCoordinates,Original*
G04 #@! TF.FileFunction,Copper,L1,Top,Signal*
G04 #@! TF.FilePolarity,Positive*
%FSLAX46Y46*%
G04 Gerber Fmt 4.6, Leading zero omitted, Abs format (unit mm)*
G04 Created by KiCad (PCBNEW (5.0.1)-4) date 2018-12-14 16:01:06*
%MOMM*%
%LPD*%
G01*
G04 APERTURE LIST*
%ADD10C,0.100000*%
%ADD11C,0.150000*%
%ADD12C,0.300000*%
%ADD13C,0.400000*%
G04 #@! TA.AperFunction,NonConductor*
%ADD14C,0.300000*%
G04 #@! TD*
G04 #@! TA.AperFunction,ComponentPad*
%ADD15C,1.700000*%
G04 #@! TD*
G04 #@! TA.AperFunction,ComponentPad*
%ADD16C,1.524000*%
G04 #@! TD*
G04 #@! TA.AperFunction,ComponentPad*
%ADD17O,1.727200X1.727200*%
G04 #@! TD*
G04 #@! TA.AperFunction,ComponentPad*
%ADD18R,1.727200X1.727200*%
G04 #@! TD*
G04 #@! TA.AperFunction,ComponentPad*
%ADD19C,1.998980*%
G04 #@! TD*
G04 #@! TA.AperFunction,ComponentPad*
%ADD20R,1.998980X1.998980*%
G04 #@! TD*
G04 #@! TA.AperFunction,ComponentPad*
%ADD21R,1.700000X1.700000*%
G04 #@! TD*
G04 #@! TA.AperFunction,ComponentPad*
%ADD22O,1.700000X1.700000*%
G04 #@! TD*
G04 #@! TA.AperFunction,ViaPad*
%ADD23C,1.000000*%
G04 #@! TD*
G04 #@! TA.AperFunction,Conductor*
%ADD24C,0.200000*%
G04 #@! TD*
G04 #@! TA.AperFunction,Conductor*
%ADD25C,0.254000*%
G04 #@! TD*
G04 APERTURE END LIST*
D10*
D11*
X79999600Y-155999600D02*
X79999600Y-187999600D01*
X187999600Y-187999600D01*
X187999600Y-155999600D01*
X79999600Y-155999600D01*
D10*
D11*
X10000000Y-10000000D02*
X10000000Y-189999600D01*
X189999600Y-189999600D01*
X189999600Y-10000000D01*
X10000000Y-10000000D01*
D10*
D11*
X12000000Y-12000000D02*
X12000000Y-187999600D01*
X187999600Y-187999600D01*
X187999600Y-12000000D01*
X12000000Y-12000000D01*
D10*
D11*
X60000000Y-12000000D02*
X60000000Y-10000000D01*
D10*
D11*
X110000000Y-12000000D02*
X110000000Y-10000000D01*
D10*
D11*
X160000000Y-12000000D02*
X160000000Y-10000000D01*
D10*
D11*
X36065476Y-11588095D02*
X35322619Y-11588095D01*
X35694047Y-11588095D02*
X35694047Y-10288095D01*
X35570238Y-10473809D01*
X35446428Y-10597619D01*
X35322619Y-10659523D01*
D10*
D11*
X85322619Y-10411904D02*
X85384523Y-10350000D01*
X85508333Y-10288095D01*
X85817857Y-10288095D01*
X85941666Y-10350000D01*
X86003571Y-10411904D01*
X86065476Y-10535714D01*
X86065476Y-10659523D01*
X86003571Y-10845238D01*
X85260714Y-11588095D01*
X86065476Y-11588095D01*
D10*
D11*
X135260714Y-10288095D02*
X136065476Y-10288095D01*
X135632142Y-10783333D01*
X135817857Y-10783333D01*
X135941666Y-10845238D01*
X136003571Y-10907142D01*
X136065476Y-11030952D01*
X136065476Y-11340476D01*
X136003571Y-11464285D01*
X135941666Y-11526190D01*
X135817857Y-11588095D01*
X135446428Y-11588095D01*
X135322619Y-11526190D01*
X135260714Y-11464285D01*
D10*
D11*
X185941666Y-10721428D02*
X185941666Y-11588095D01*
X185632142Y-10226190D02*
X185322619Y-11154761D01*
X186127380Y-11154761D01*
D10*
D11*
X60000000Y-187999600D02*
X60000000Y-189999600D01*
D10*
D11*
X110000000Y-187999600D02*
X110000000Y-189999600D01*
D10*
D11*
X160000000Y-187999600D02*
X160000000Y-189999600D01*
D10*
D11*
X36065476Y-189587695D02*
X35322619Y-189587695D01*
X35694047Y-189587695D02*
X35694047Y-188287695D01*
X35570238Y-188473409D01*
X35446428Y-188597219D01*
X35322619Y-188659123D01*
D10*
D11*
X85322619Y-188411504D02*
X85384523Y-188349600D01*
X85508333Y-188287695D01*
X85817857Y-188287695D01*
X85941666Y-188349600D01*
X86003571Y-188411504D01*
X86065476Y-188535314D01*
X86065476Y-188659123D01*
X86003571Y-188844838D01*
X85260714Y-189587695D01*
X86065476Y-189587695D01*
D10*
D11*
X135260714Y-188287695D02*
X136065476Y-188287695D01*
X135632142Y-188782933D01*
X135817857Y-188782933D01*
X135941666Y-188844838D01*
X136003571Y-188906742D01*
X136065476Y-189030552D01*
X136065476Y-189340076D01*
X136003571Y-189463885D01*
X135941666Y-189525790D01*
X135817857Y-189587695D01*
X135446428Y-189587695D01*
X135322619Y-189525790D01*
X135260714Y-189463885D01*
D10*
D11*
X185941666Y-188721028D02*
X185941666Y-189587695D01*
X185632142Y-188225790D02*
X185322619Y-189154361D01*
X186127380Y-189154361D01*
D10*
D11*
X10000000Y-60000000D02*
X12000000Y-60000000D01*
D10*
D11*
X10000000Y-110000000D02*
X12000000Y-110000000D01*
D10*
D11*
X10000000Y-160000000D02*
X12000000Y-160000000D01*
D10*
D11*
X10690476Y-35216666D02*
X11309523Y-35216666D01*
X10566666Y-35588095D02*
X11000000Y-34288095D01*
X11433333Y-35588095D01*
D10*
D11*
X11092857Y-84907142D02*
X11278571Y-84969047D01*
X11340476Y-85030952D01*
X11402380Y-85154761D01*
X11402380Y-85340476D01*
X11340476Y-85464285D01*
X11278571Y-85526190D01*
X11154761Y-85588095D01*
X10659523Y-85588095D01*
X10659523Y-84288095D01*
X11092857Y-84288095D01*
X11216666Y-84350000D01*
X11278571Y-84411904D01*
X11340476Y-84535714D01*
X11340476Y-84659523D01*
X11278571Y-84783333D01*
X11216666Y-84845238D01*
X11092857Y-84907142D01*
X10659523Y-84907142D01*
D10*
D11*
X11402380Y-135464285D02*
X11340476Y-135526190D01*
X11154761Y-135588095D01*
X11030952Y-135588095D01*
X10845238Y-135526190D01*
X10721428Y-135402380D01*
X10659523Y-135278571D01*
X10597619Y-135030952D01*
X10597619Y-134845238D01*
X10659523Y-134597619D01*
X10721428Y-134473809D01*
X10845238Y-134350000D01*
X11030952Y-134288095D01*
X11154761Y-134288095D01*
X11340476Y-134350000D01*
X11402380Y-134411904D01*
D10*
D11*
X10659523Y-185588095D02*
X10659523Y-184288095D01*
X10969047Y-184288095D01*
X11154761Y-184350000D01*
X11278571Y-184473809D01*
X11340476Y-184597619D01*
X11402380Y-184845238D01*
X11402380Y-185030952D01*
X11340476Y-185278571D01*
X11278571Y-185402380D01*
X11154761Y-185526190D01*
X10969047Y-185588095D01*
X10659523Y-185588095D01*
D10*
D11*
X189999600Y-60000000D02*
X187999600Y-60000000D01*
D10*
D11*
X189999600Y-110000000D02*
X187999600Y-110000000D01*
D10*
D11*
X189999600Y-160000000D02*
X187999600Y-160000000D01*
D10*
D11*
X188690076Y-35216666D02*
X189309123Y-35216666D01*
X188566266Y-35588095D02*
X188999600Y-34288095D01*
X189432933Y-35588095D01*
D10*
D11*
X189092457Y-84907142D02*
X189278171Y-84969047D01*
X189340076Y-85030952D01*
X189401980Y-85154761D01*
X189401980Y-85340476D01*
X189340076Y-85464285D01*
X189278171Y-85526190D01*
X189154361Y-85588095D01*
X188659123Y-85588095D01*
X188659123Y-84288095D01*
X189092457Y-84288095D01*
X189216266Y-84350000D01*
X189278171Y-84411904D01*
X189340076Y-84535714D01*
X189340076Y-84659523D01*
X189278171Y-84783333D01*
X189216266Y-84845238D01*
X189092457Y-84907142D01*
X188659123Y-84907142D01*
D10*
D11*
X189401980Y-135464285D02*
X189340076Y-135526190D01*
X189154361Y-135588095D01*
X189030552Y-135588095D01*
X188844838Y-135526190D01*
X188721028Y-135402380D01*
X188659123Y-135278571D01*
X188597219Y-135030952D01*
X188597219Y-134845238D01*
X188659123Y-134597619D01*
X188721028Y-134473809D01*
X188844838Y-134350000D01*
X189030552Y-134288095D01*
X189154361Y-134288095D01*
X189340076Y-134350000D01*
X189401980Y-134411904D01*
D10*
D11*
X188659123Y-185588095D02*
X188659123Y-184288095D01*
X188968647Y-184288095D01*
X189154361Y-184350000D01*
X189278171Y-184473809D01*
X189340076Y-184597619D01*
X189401980Y-184845238D01*
X189401980Y-185030952D01*
X189340076Y-185278571D01*
X189278171Y-185402380D01*
X189154361Y-185526190D01*
X188968647Y-185588095D01*
X188659123Y-185588095D01*
D10*
D11*
X103431742Y-183778171D02*
X103431742Y-182278171D01*
X103788885Y-182278171D01*
X104003171Y-182349600D01*
X104146028Y-182492457D01*
X104217457Y-182635314D01*
X104288885Y-182921028D01*
X104288885Y-183135314D01*
X104217457Y-183421028D01*
X104146028Y-183563885D01*
X104003171Y-183706742D01*
X103788885Y-183778171D01*
X103431742Y-183778171D01*
X105574600Y-183778171D02*
X105574600Y-182992457D01*
X105503171Y-182849600D01*
X105360314Y-182778171D01*
X105074600Y-182778171D01*
X104931742Y-182849600D01*
X105574600Y-183706742D02*
X105431742Y-183778171D01*
X105074600Y-183778171D01*
X104931742Y-183706742D01*
X104860314Y-183563885D01*
X104860314Y-183421028D01*
X104931742Y-183278171D01*
X105074600Y-183206742D01*
X105431742Y-183206742D01*
X105574600Y-183135314D01*
X106074600Y-182778171D02*
X106646028Y-182778171D01*
X106288885Y-182278171D02*
X106288885Y-183563885D01*
X106360314Y-183706742D01*
X106503171Y-183778171D01*
X106646028Y-183778171D01*
X107717457Y-183706742D02*
X107574600Y-183778171D01*
X107288885Y-183778171D01*
X107146028Y-183706742D01*
X107074600Y-183563885D01*
X107074600Y-182992457D01*
X107146028Y-182849600D01*
X107288885Y-182778171D01*
X107574600Y-182778171D01*
X107717457Y-182849600D01*
X107788885Y-182992457D01*
X107788885Y-183135314D01*
X107074600Y-183278171D01*
X108431742Y-183635314D02*
X108503171Y-183706742D01*
X108431742Y-183778171D01*
X108360314Y-183706742D01*
X108431742Y-183635314D01*
X108431742Y-183778171D01*
X108431742Y-182849600D02*
X108503171Y-182921028D01*
X108431742Y-182992457D01*
X108360314Y-182921028D01*
X108431742Y-182849600D01*
X108431742Y-182992457D01*
D10*
D11*
X79999600Y-184499600D02*
X187999600Y-184499600D01*
D10*
D11*
X81431742Y-186578171D02*
X81431742Y-185078171D01*
X82288885Y-186578171D02*
X81646028Y-185721028D01*
X82288885Y-185078171D02*
X81431742Y-185935314D01*
X82931742Y-186578171D02*
X82931742Y-185578171D01*
X82931742Y-185078171D02*
X82860314Y-185149600D01*
X82931742Y-185221028D01*
X83003171Y-185149600D01*
X82931742Y-185078171D01*
X82931742Y-185221028D01*
X84503171Y-186435314D02*
X84431742Y-186506742D01*
X84217457Y-186578171D01*
X84074600Y-186578171D01*
X83860314Y-186506742D01*
X83717457Y-186363885D01*
X83646028Y-186221028D01*
X83574600Y-185935314D01*
X83574600Y-185721028D01*
X83646028Y-185435314D01*
X83717457Y-185292457D01*
X83860314Y-185149600D01*
X84074600Y-185078171D01*
X84217457Y-185078171D01*
X84431742Y-185149600D01*
X84503171Y-185221028D01*
X85788885Y-186578171D02*
X85788885Y-185792457D01*
X85717457Y-185649600D01*
X85574600Y-185578171D01*
X85288885Y-185578171D01*
X85146028Y-185649600D01*
X85788885Y-186506742D02*
X85646028Y-186578171D01*
X85288885Y-186578171D01*
X85146028Y-186506742D01*
X85074600Y-186363885D01*
X85074600Y-186221028D01*
X85146028Y-186078171D01*
X85288885Y-186006742D01*
X85646028Y-186006742D01*
X85788885Y-185935314D01*
X87146028Y-186578171D02*
X87146028Y-185078171D01*
X87146028Y-186506742D02*
X87003171Y-186578171D01*
X86717457Y-186578171D01*
X86574600Y-186506742D01*
X86503171Y-186435314D01*
X86431742Y-186292457D01*
X86431742Y-185863885D01*
X86503171Y-185721028D01*
X86574600Y-185649600D01*
X86717457Y-185578171D01*
X87003171Y-185578171D01*
X87146028Y-185649600D01*
X89003171Y-185792457D02*
X89503171Y-185792457D01*
X89717457Y-186578171D02*
X89003171Y-186578171D01*
X89003171Y-185078171D01*
X89717457Y-185078171D01*
X90360314Y-186435314D02*
X90431742Y-186506742D01*
X90360314Y-186578171D01*
X90288885Y-186506742D01*
X90360314Y-186435314D01*
X90360314Y-186578171D01*
X91074600Y-186578171D02*
X91074600Y-185078171D01*
X91431742Y-185078171D01*
X91646028Y-185149600D01*
X91788885Y-185292457D01*
X91860314Y-185435314D01*
X91931742Y-185721028D01*
X91931742Y-185935314D01*
X91860314Y-186221028D01*
X91788885Y-186363885D01*
X91646028Y-186506742D01*
X91431742Y-186578171D01*
X91074600Y-186578171D01*
X92574600Y-186435314D02*
X92646028Y-186506742D01*
X92574600Y-186578171D01*
X92503171Y-186506742D01*
X92574600Y-186435314D01*
X92574600Y-186578171D01*
X93217457Y-186149600D02*
X93931742Y-186149600D01*
X93074600Y-186578171D02*
X93574600Y-185078171D01*
X94074600Y-186578171D01*
X94574600Y-186435314D02*
X94646028Y-186506742D01*
X94574600Y-186578171D01*
X94503171Y-186506742D01*
X94574600Y-186435314D01*
X94574600Y-186578171D01*
X97574600Y-186578171D02*
X97574600Y-185078171D01*
X97717457Y-186006742D02*
X98146028Y-186578171D01*
X98146028Y-185578171D02*
X97574600Y-186149600D01*
X98788885Y-186578171D02*
X98788885Y-185578171D01*
X98788885Y-185078171D02*
X98717457Y-185149600D01*
X98788885Y-185221028D01*
X98860314Y-185149600D01*
X98788885Y-185078171D01*
X98788885Y-185221028D01*
X100146028Y-186506742D02*
X100003171Y-186578171D01*
X99717457Y-186578171D01*
X99574600Y-186506742D01*
X99503171Y-186435314D01*
X99431742Y-186292457D01*
X99431742Y-185863885D01*
X99503171Y-185721028D01*
X99574600Y-185649600D01*
X99717457Y-185578171D01*
X100003171Y-185578171D01*
X100146028Y-185649600D01*
X101431742Y-186578171D02*
X101431742Y-185792457D01*
X101360314Y-185649600D01*
X101217457Y-185578171D01*
X100931742Y-185578171D01*
X100788885Y-185649600D01*
X101431742Y-186506742D02*
X101288885Y-186578171D01*
X100931742Y-186578171D01*
X100788885Y-186506742D01*
X100717457Y-186363885D01*
X100717457Y-186221028D01*
X100788885Y-186078171D01*
X100931742Y-186006742D01*
X101288885Y-186006742D01*
X101431742Y-185935314D01*
X102788885Y-186578171D02*
X102788885Y-185078171D01*
X102788885Y-186506742D02*
X102646028Y-186578171D01*
X102360314Y-186578171D01*
X102217457Y-186506742D01*
X102146028Y-186435314D01*
X102074600Y-186292457D01*
X102074600Y-185863885D01*
X102146028Y-185721028D01*
X102217457Y-185649600D01*
X102360314Y-185578171D01*
X102646028Y-185578171D01*
X102788885Y-185649600D01*
X105074600Y-187149600D02*
X105003171Y-187078171D01*
X104860314Y-186863885D01*
X104788885Y-186721028D01*
X104717457Y-186506742D01*
X104646028Y-186149600D01*
X104646028Y-185863885D01*
X104717457Y-185506742D01*
X104788885Y-185292457D01*
X104860314Y-185149600D01*
X105003171Y-184935314D01*
X105074600Y-184863885D01*
X106360314Y-185078171D02*
X105646028Y-185078171D01*
X105574600Y-185792457D01*
X105646028Y-185721028D01*
X105788885Y-185649600D01*
X106146028Y-185649600D01*
X106288885Y-185721028D01*
X106360314Y-185792457D01*
X106431742Y-185935314D01*
X106431742Y-186292457D01*
X106360314Y-186435314D01*
X106288885Y-186506742D01*
X106146028Y-186578171D01*
X105788885Y-186578171D01*
X105646028Y-186506742D01*
X105574600Y-186435314D01*
X107074600Y-186435314D02*
X107146028Y-186506742D01*
X107074600Y-186578171D01*
X107003171Y-186506742D01*
X107074600Y-186435314D01*
X107074600Y-186578171D01*
X108074600Y-185078171D02*
X108217457Y-185078171D01*
X108360314Y-185149600D01*
X108431742Y-185221028D01*
X108503171Y-185363885D01*
X108574600Y-185649600D01*
X108574600Y-186006742D01*
X108503171Y-186292457D01*
X108431742Y-186435314D01*
X108360314Y-186506742D01*
X108217457Y-186578171D01*
X108074600Y-186578171D01*
X107931742Y-186506742D01*
X107860314Y-186435314D01*
X107788885Y-186292457D01*
X107717457Y-186006742D01*
X107717457Y-185649600D01*
X107788885Y-185363885D01*
X107860314Y-185221028D01*
X107931742Y-185149600D01*
X108074600Y-185078171D01*
X109217457Y-186435314D02*
X109288885Y-186506742D01*
X109217457Y-186578171D01*
X109146028Y-186506742D01*
X109217457Y-186435314D01*
X109217457Y-186578171D01*
X110717457Y-186578171D02*
X109860314Y-186578171D01*
X110288885Y-186578171D02*
X110288885Y-185078171D01*
X110146028Y-185292457D01*
X110003171Y-185435314D01*
X109860314Y-185506742D01*
X111217457Y-187149600D02*
X111288885Y-187078171D01*
X111431742Y-186863885D01*
X111503171Y-186721028D01*
X111574600Y-186506742D01*
X111646028Y-186149600D01*
X111646028Y-185863885D01*
X111574600Y-185506742D01*
X111503171Y-185292457D01*
X111431742Y-185149600D01*
X111288885Y-184935314D01*
X111217457Y-184863885D01*
X112360314Y-186006742D02*
X113503171Y-186006742D01*
X114860314Y-185578171D02*
X114860314Y-186578171D01*
X114503171Y-185006742D02*
X114146028Y-186078171D01*
X115074600Y-186078171D01*
D10*
D11*
X79999600Y-181499600D02*
X187999600Y-181499600D01*
D10*
D12*
X167408885Y-183778171D02*
X166908885Y-183063885D01*
X166551742Y-183778171D02*
X166551742Y-182278171D01*
X167123171Y-182278171D01*
X167266028Y-182349600D01*
X167337457Y-182421028D01*
X167408885Y-182563885D01*
X167408885Y-182778171D01*
X167337457Y-182921028D01*
X167266028Y-182992457D01*
X167123171Y-183063885D01*
X166551742Y-183063885D01*
X168623171Y-183706742D02*
X168480314Y-183778171D01*
X168194600Y-183778171D01*
X168051742Y-183706742D01*
X167980314Y-183563885D01*
X167980314Y-182992457D01*
X168051742Y-182849600D01*
X168194600Y-182778171D01*
X168480314Y-182778171D01*
X168623171Y-182849600D01*
X168694600Y-182992457D01*
X168694600Y-183135314D01*
X167980314Y-183278171D01*
X169194600Y-182778171D02*
X169551742Y-183778171D01*
X169908885Y-182778171D01*
X170480314Y-183635314D02*
X170551742Y-183706742D01*
X170480314Y-183778171D01*
X170408885Y-183706742D01*
X170480314Y-183635314D01*
X170480314Y-183778171D01*
X170480314Y-182849600D02*
X170551742Y-182921028D01*
X170480314Y-182992457D01*
X170408885Y-182921028D01*
X170480314Y-182849600D01*
X170480314Y-182992457D01*
D10*
D11*
X81360314Y-183706742D02*
X81574600Y-183778171D01*
X81931742Y-183778171D01*
X82074600Y-183706742D01*
X82146028Y-183635314D01*
X82217457Y-183492457D01*
X82217457Y-183349600D01*
X82146028Y-183206742D01*
X82074600Y-183135314D01*
X81931742Y-183063885D01*
X81646028Y-182992457D01*
X81503171Y-182921028D01*
X81431742Y-182849600D01*
X81360314Y-182706742D01*
X81360314Y-182563885D01*
X81431742Y-182421028D01*
X81503171Y-182349600D01*
X81646028Y-182278171D01*
X82003171Y-182278171D01*
X82217457Y-182349600D01*
X82860314Y-183778171D02*
X82860314Y-182778171D01*
X82860314Y-182278171D02*
X82788885Y-182349600D01*
X82860314Y-182421028D01*
X82931742Y-182349600D01*
X82860314Y-182278171D01*
X82860314Y-182421028D01*
X83431742Y-182778171D02*
X84217457Y-182778171D01*
X83431742Y-183778171D01*
X84217457Y-183778171D01*
X85360314Y-183706742D02*
X85217457Y-183778171D01*
X84931742Y-183778171D01*
X84788885Y-183706742D01*
X84717457Y-183563885D01*
X84717457Y-182992457D01*
X84788885Y-182849600D01*
X84931742Y-182778171D01*
X85217457Y-182778171D01*
X85360314Y-182849600D01*
X85431742Y-182992457D01*
X85431742Y-183135314D01*
X84717457Y-183278171D01*
X86074600Y-183635314D02*
X86146028Y-183706742D01*
X86074600Y-183778171D01*
X86003171Y-183706742D01*
X86074600Y-183635314D01*
X86074600Y-183778171D01*
X86074600Y-182849600D02*
X86146028Y-182921028D01*
X86074600Y-182992457D01*
X86003171Y-182921028D01*
X86074600Y-182849600D01*
X86074600Y-182992457D01*
X87931742Y-182278171D02*
X87931742Y-183492457D01*
X88003171Y-183635314D01*
X88074600Y-183706742D01*
X88217457Y-183778171D01*
X88503171Y-183778171D01*
X88646028Y-183706742D01*
X88717457Y-183635314D01*
X88788885Y-183492457D01*
X88788885Y-182278171D01*
X89431742Y-183706742D02*
X89574600Y-183778171D01*
X89860314Y-183778171D01*
X90003171Y-183706742D01*
X90074600Y-183563885D01*
X90074600Y-183492457D01*
X90003171Y-183349600D01*
X89860314Y-183278171D01*
X89646028Y-183278171D01*
X89503171Y-183206742D01*
X89431742Y-183063885D01*
X89431742Y-182992457D01*
X89503171Y-182849600D01*
X89646028Y-182778171D01*
X89860314Y-182778171D01*
X90003171Y-182849600D01*
X91288885Y-183706742D02*
X91146028Y-183778171D01*
X90860314Y-183778171D01*
X90717457Y-183706742D01*
X90646028Y-183563885D01*
X90646028Y-182992457D01*
X90717457Y-182849600D01*
X90860314Y-182778171D01*
X91146028Y-182778171D01*
X91288885Y-182849600D01*
X91360314Y-182992457D01*
X91360314Y-183135314D01*
X90646028Y-183278171D01*
X92003171Y-183778171D02*
X92003171Y-182778171D01*
X92003171Y-183063885D02*
X92074600Y-182921028D01*
X92146028Y-182849600D01*
X92288885Y-182778171D01*
X92431742Y-182778171D01*
D10*
D11*
X166431742Y-186578171D02*
X166431742Y-185078171D01*
X167788885Y-186578171D02*
X167788885Y-185078171D01*
X167788885Y-186506742D02*
X167646028Y-186578171D01*
X167360314Y-186578171D01*
X167217457Y-186506742D01*
X167146028Y-186435314D01*
X167074600Y-186292457D01*
X167074600Y-185863885D01*
X167146028Y-185721028D01*
X167217457Y-185649600D01*
X167360314Y-185578171D01*
X167646028Y-185578171D01*
X167788885Y-185649600D01*
X168503171Y-186435314D02*
X168574600Y-186506742D01*
X168503171Y-186578171D01*
X168431742Y-186506742D01*
X168503171Y-186435314D01*
X168503171Y-186578171D01*
X168503171Y-185649600D02*
X168574600Y-185721028D01*
X168503171Y-185792457D01*
X168431742Y-185721028D01*
X168503171Y-185649600D01*
X168503171Y-185792457D01*
X171146028Y-186578171D02*
X170288885Y-186578171D01*
X170717457Y-186578171D02*
X170717457Y-185078171D01*
X170574600Y-185292457D01*
X170431742Y-185435314D01*
X170288885Y-185506742D01*
X172860314Y-185006742D02*
X171574600Y-186935314D01*
X174146028Y-186578171D02*
X173288885Y-186578171D01*
X173717457Y-186578171D02*
X173717457Y-185078171D01*
X173574600Y-185292457D01*
X173431742Y-185435314D01*
X173288885Y-185506742D01*
D10*
D11*
X79999600Y-177499600D02*
X187999600Y-177499600D01*
D10*
D13*
X81711980Y-178204361D02*
X82854838Y-178204361D01*
X82033409Y-180204361D02*
X82283409Y-178204361D01*
X83271504Y-180204361D02*
X83438171Y-178871028D01*
X83521504Y-178204361D02*
X83414361Y-178299600D01*
X83497695Y-178394838D01*
X83604838Y-178299600D01*
X83521504Y-178204361D01*
X83497695Y-178394838D01*
X84104838Y-178871028D02*
X84866742Y-178871028D01*
X84473885Y-178204361D02*
X84259600Y-179918647D01*
X84331028Y-180109123D01*
X84509600Y-180204361D01*
X84700076Y-180204361D01*
X85652457Y-180204361D02*
X85473885Y-180109123D01*
X85402457Y-179918647D01*
X85616742Y-178204361D01*
X87188171Y-180109123D02*
X86985790Y-180204361D01*
X86604838Y-180204361D01*
X86426266Y-180109123D01*
X86354838Y-179918647D01*
X86450076Y-179156742D01*
X86569123Y-178966266D01*
X86771504Y-178871028D01*
X87152457Y-178871028D01*
X87331028Y-178966266D01*
X87402457Y-179156742D01*
X87378647Y-179347219D01*
X86402457Y-179537695D01*
X88152457Y-180013885D02*
X88235790Y-180109123D01*
X88128647Y-180204361D01*
X88045314Y-180109123D01*
X88152457Y-180013885D01*
X88128647Y-180204361D01*
X88283409Y-178966266D02*
X88366742Y-179061504D01*
X88259600Y-179156742D01*
X88176266Y-179061504D01*
X88283409Y-178966266D01*
X88259600Y-179156742D01*
D10*
D11*
X81931742Y-175592457D02*
X81431742Y-175592457D01*
X81431742Y-176378171D02*
X81431742Y-174878171D01*
X82146028Y-174878171D01*
X82717457Y-176378171D02*
X82717457Y-175378171D01*
X82717457Y-174878171D02*
X82646028Y-174949600D01*
X82717457Y-175021028D01*
X82788885Y-174949600D01*
X82717457Y-174878171D01*
X82717457Y-175021028D01*
X83646028Y-176378171D02*
X83503171Y-176306742D01*
X83431742Y-176163885D01*
X83431742Y-174878171D01*
X84788885Y-176306742D02*
X84646028Y-176378171D01*
X84360314Y-176378171D01*
X84217457Y-176306742D01*
X84146028Y-176163885D01*
X84146028Y-175592457D01*
X84217457Y-175449600D01*
X84360314Y-175378171D01*
X84646028Y-175378171D01*
X84788885Y-175449600D01*
X84860314Y-175592457D01*
X84860314Y-175735314D01*
X84146028Y-175878171D01*
X85503171Y-176235314D02*
X85574600Y-176306742D01*
X85503171Y-176378171D01*
X85431742Y-176306742D01*
X85503171Y-176235314D01*
X85503171Y-176378171D01*
X85503171Y-175449600D02*
X85574600Y-175521028D01*
X85503171Y-175592457D01*
X85431742Y-175521028D01*
X85503171Y-175449600D01*
X85503171Y-175592457D01*
X87360314Y-175378171D02*
X87360314Y-176878171D01*
X87360314Y-175449600D02*
X87503171Y-175378171D01*
X87788885Y-175378171D01*
X87931742Y-175449600D01*
X88003171Y-175521028D01*
X88074600Y-175663885D01*
X88074600Y-176092457D01*
X88003171Y-176235314D01*
X87931742Y-176306742D01*
X87788885Y-176378171D01*
X87503171Y-176378171D01*
X87360314Y-176306742D01*
X88931742Y-176378171D02*
X88788885Y-176306742D01*
X88717457Y-176235314D01*
X88646028Y-176092457D01*
X88646028Y-175663885D01*
X88717457Y-175521028D01*
X88788885Y-175449600D01*
X88931742Y-175378171D01*
X89146028Y-175378171D01*
X89288885Y-175449600D01*
X89360314Y-175521028D01*
X89431742Y-175663885D01*
X89431742Y-176092457D01*
X89360314Y-176235314D01*
X89288885Y-176306742D01*
X89146028Y-176378171D01*
X88931742Y-176378171D01*
X90717457Y-176378171D02*
X90717457Y-174878171D01*
X90717457Y-176306742D02*
X90574600Y-176378171D01*
X90288885Y-176378171D01*
X90146028Y-176306742D01*
X90074600Y-176235314D01*
X90003171Y-176092457D01*
X90003171Y-175663885D01*
X90074600Y-175521028D01*
X90146028Y-175449600D01*
X90288885Y-175378171D01*
X90574600Y-175378171D01*
X90717457Y-175449600D01*
X91360314Y-176306742D02*
X91503171Y-176378171D01*
X91788885Y-176378171D01*
X91931742Y-176306742D01*
X92003171Y-176163885D01*
X92003171Y-176092457D01*
X91931742Y-175949600D01*
X91788885Y-175878171D01*
X91574600Y-175878171D01*
X91431742Y-175806742D01*
X91360314Y-175663885D01*
X91360314Y-175592457D01*
X91431742Y-175449600D01*
X91574600Y-175378171D01*
X91788885Y-175378171D01*
X91931742Y-175449600D01*
X92646028Y-176235314D02*
X92717457Y-176306742D01*
X92646028Y-176378171D01*
X92574600Y-176306742D01*
X92646028Y-176235314D01*
X92646028Y-176378171D01*
X93360314Y-176378171D02*
X93360314Y-174878171D01*
X93503171Y-175806742D02*
X93931742Y-176378171D01*
X93931742Y-175378171D02*
X93360314Y-175949600D01*
X94574600Y-176378171D02*
X94574600Y-175378171D01*
X94574600Y-174878171D02*
X94503171Y-174949600D01*
X94574600Y-175021028D01*
X94646028Y-174949600D01*
X94574600Y-174878171D01*
X94574600Y-175021028D01*
X95931742Y-176306742D02*
X95788885Y-176378171D01*
X95503171Y-176378171D01*
X95360314Y-176306742D01*
X95288885Y-176235314D01*
X95217457Y-176092457D01*
X95217457Y-175663885D01*
X95288885Y-175521028D01*
X95360314Y-175449600D01*
X95503171Y-175378171D01*
X95788885Y-175378171D01*
X95931742Y-175449600D01*
X97217457Y-176378171D02*
X97217457Y-175592457D01*
X97146028Y-175449600D01*
X97003171Y-175378171D01*
X96717457Y-175378171D01*
X96574600Y-175449600D01*
X97217457Y-176306742D02*
X97074600Y-176378171D01*
X96717457Y-176378171D01*
X96574600Y-176306742D01*
X96503171Y-176163885D01*
X96503171Y-176021028D01*
X96574600Y-175878171D01*
X96717457Y-175806742D01*
X97074600Y-175806742D01*
X97217457Y-175735314D01*
X98574600Y-176378171D02*
X98574600Y-174878171D01*
X98574600Y-176306742D02*
X98431742Y-176378171D01*
X98146028Y-176378171D01*
X98003171Y-176306742D01*
X97931742Y-176235314D01*
X97860314Y-176092457D01*
X97860314Y-175663885D01*
X97931742Y-175521028D01*
X98003171Y-175449600D01*
X98146028Y-175378171D01*
X98431742Y-175378171D01*
X98574600Y-175449600D01*
X98931742Y-176521028D02*
X100074600Y-176521028D01*
X100431742Y-175378171D02*
X100431742Y-176878171D01*
X100431742Y-175449600D02*
X100574600Y-175378171D01*
X100860314Y-175378171D01*
X101003171Y-175449600D01*
X101074600Y-175521028D01*
X101146028Y-175663885D01*
X101146028Y-176092457D01*
X101074600Y-176235314D01*
X101003171Y-176306742D01*
X100860314Y-176378171D01*
X100574600Y-176378171D01*
X100431742Y-176306742D01*
X102431742Y-176306742D02*
X102288885Y-176378171D01*
X102003171Y-176378171D01*
X101860314Y-176306742D01*
X101788885Y-176235314D01*
X101717457Y-176092457D01*
X101717457Y-175663885D01*
X101788885Y-175521028D01*
X101860314Y-175449600D01*
X102003171Y-175378171D01*
X102288885Y-175378171D01*
X102431742Y-175449600D01*
X103074600Y-176378171D02*
X103074600Y-174878171D01*
X103074600Y-175449600D02*
X103217457Y-175378171D01*
X103503171Y-175378171D01*
X103646028Y-175449600D01*
X103717457Y-175521028D01*
X103788885Y-175663885D01*
X103788885Y-176092457D01*
X103717457Y-176235314D01*
X103646028Y-176306742D01*
X103503171Y-176378171D01*
X103217457Y-176378171D01*
X103074600Y-176306742D01*
D10*
D11*
X79999600Y-171499600D02*
X187999600Y-171499600D01*
D10*
D11*
X81360314Y-173606742D02*
X81574600Y-173678171D01*
X81931742Y-173678171D01*
X82074600Y-173606742D01*
X82146028Y-173535314D01*
X82217457Y-173392457D01*
X82217457Y-173249600D01*
X82146028Y-173106742D01*
X82074600Y-173035314D01*
X81931742Y-172963885D01*
X81646028Y-172892457D01*
X81503171Y-172821028D01*
X81431742Y-172749600D01*
X81360314Y-172606742D01*
X81360314Y-172463885D01*
X81431742Y-172321028D01*
X81503171Y-172249600D01*
X81646028Y-172178171D01*
X82003171Y-172178171D01*
X82217457Y-172249600D01*
X82860314Y-173678171D02*
X82860314Y-172178171D01*
X83503171Y-173678171D02*
X83503171Y-172892457D01*
X83431742Y-172749600D01*
X83288885Y-172678171D01*
X83074600Y-172678171D01*
X82931742Y-172749600D01*
X82860314Y-172821028D01*
X84788885Y-173606742D02*
X84646028Y-173678171D01*
X84360314Y-173678171D01*
X84217457Y-173606742D01*
X84146028Y-173463885D01*
X84146028Y-172892457D01*
X84217457Y-172749600D01*
X84360314Y-172678171D01*
X84646028Y-172678171D01*
X84788885Y-172749600D01*
X84860314Y-172892457D01*
X84860314Y-173035314D01*
X84146028Y-173178171D01*
X86074600Y-173606742D02*
X85931742Y-173678171D01*
X85646028Y-173678171D01*
X85503171Y-173606742D01*
X85431742Y-173463885D01*
X85431742Y-172892457D01*
X85503171Y-172749600D01*
X85646028Y-172678171D01*
X85931742Y-172678171D01*
X86074600Y-172749600D01*
X86146028Y-172892457D01*
X86146028Y-173035314D01*
X85431742Y-173178171D01*
X86574600Y-172678171D02*
X87146028Y-172678171D01*
X86788885Y-172178171D02*
X86788885Y-173463885D01*
X86860314Y-173606742D01*
X87003171Y-173678171D01*
X87146028Y-173678171D01*
X87646028Y-173535314D02*
X87717457Y-173606742D01*
X87646028Y-173678171D01*
X87574600Y-173606742D01*
X87646028Y-173535314D01*
X87646028Y-173678171D01*
X87646028Y-172749600D02*
X87717457Y-172821028D01*
X87646028Y-172892457D01*
X87574600Y-172821028D01*
X87646028Y-172749600D01*
X87646028Y-172892457D01*
D10*
D11*
X99999600Y-181499600D02*
X99999600Y-184499600D01*
D10*
D11*
X163999600Y-181499600D02*
X163999600Y-187999600D01*
D14*
X95500714Y-135863571D02*
X95500714Y-134363571D01*
X96072142Y-134363571D01*
X96215000Y-134435000D01*
X96286428Y-134506428D01*
X96357857Y-134649285D01*
X96357857Y-134863571D01*
X96286428Y-135006428D01*
X96215000Y-135077857D01*
X96072142Y-135149285D01*
X95500714Y-135149285D01*
X97286428Y-134363571D02*
X97572142Y-134363571D01*
X97715000Y-134435000D01*
X97857857Y-134577857D01*
X97929285Y-134863571D01*
X97929285Y-135363571D01*
X97857857Y-135649285D01*
X97715000Y-135792142D01*
X97572142Y-135863571D01*
X97286428Y-135863571D01*
X97143571Y-135792142D01*
X97000714Y-135649285D01*
X96929285Y-135363571D01*
X96929285Y-134863571D01*
X97000714Y-134577857D01*
X97143571Y-134435000D01*
X97286428Y-134363571D01*
X98572142Y-135863571D02*
X98572142Y-134363571D01*
X98929285Y-134363571D01*
X99143571Y-134435000D01*
X99286428Y-134577857D01*
X99357857Y-134720714D01*
X99429285Y-135006428D01*
X99429285Y-135220714D01*
X99357857Y-135506428D01*
X99286428Y-135649285D01*
X99143571Y-135792142D01*
X98929285Y-135863571D01*
X98572142Y-135863571D01*
X100000714Y-135792142D02*
X100215000Y-135863571D01*
X100572142Y-135863571D01*
X100715000Y-135792142D01*
X100786428Y-135720714D01*
X100857857Y-135577857D01*
X100857857Y-135435000D01*
X100786428Y-135292142D01*
X100715000Y-135220714D01*
X100572142Y-135149285D01*
X100286428Y-135077857D01*
X100143571Y-135006428D01*
X100072142Y-134935000D01*
X100000714Y-134792142D01*
X100000714Y-134649285D01*
X100072142Y-134506428D01*
X100143571Y-134435000D01*
X100286428Y-134363571D01*
X100643571Y-134363571D01*
X100857857Y-134435000D01*
X102500714Y-134863571D02*
X102857857Y-135863571D01*
X103215000Y-134863571D01*
X103715000Y-134506428D02*
X103786428Y-134435000D01*
X103929285Y-134363571D01*
X104286428Y-134363571D01*
X104429285Y-134435000D01*
X104500714Y-134506428D01*
X104572142Y-134649285D01*
X104572142Y-134792142D01*
X104500714Y-135006428D01*
X103643571Y-135863571D01*
X104572142Y-135863571D01*
X106286428Y-134506428D02*
X106357857Y-134435000D01*
X106500714Y-134363571D01*
X106857857Y-134363571D01*
X107000714Y-134435000D01*
X107072142Y-134506428D01*
X107143571Y-134649285D01*
X107143571Y-134792142D01*
X107072142Y-135006428D01*
X106215000Y-135863571D01*
X107143571Y-135863571D01*
X108072142Y-134363571D02*
X108215000Y-134363571D01*
X108357857Y-134435000D01*
X108429285Y-134506428D01*
X108500714Y-134649285D01*
X108572142Y-134935000D01*
X108572142Y-135292142D01*
X108500714Y-135577857D01*
X108429285Y-135720714D01*
X108357857Y-135792142D01*
X108215000Y-135863571D01*
X108072142Y-135863571D01*
X107929285Y-135792142D01*
X107857857Y-135720714D01*
X107786428Y-135577857D01*
X107715000Y-135292142D01*
X107715000Y-134935000D01*
X107786428Y-134649285D01*
X107857857Y-134506428D01*
X107929285Y-134435000D01*
X108072142Y-134363571D01*
X110000714Y-135863571D02*
X109143571Y-135863571D01*
X109572142Y-135863571D02*
X109572142Y-134363571D01*
X109429285Y-134577857D01*
X109286428Y-134720714D01*
X109143571Y-134792142D01*
X110857857Y-135006428D02*
X110715000Y-134935000D01*
X110643571Y-134863571D01*
X110572142Y-134720714D01*
X110572142Y-134649285D01*
X110643571Y-134506428D01*
X110715000Y-134435000D01*
X110857857Y-134363571D01*
X111143571Y-134363571D01*
X111286428Y-134435000D01*
X111357857Y-134506428D01*
X111429285Y-134649285D01*
X111429285Y-134720714D01*
X111357857Y-134863571D01*
X111286428Y-134935000D01*
X111143571Y-135006428D01*
X110857857Y-135006428D01*
X110715000Y-135077857D01*
X110643571Y-135149285D01*
X110572142Y-135292142D01*
X110572142Y-135577857D01*
X110643571Y-135720714D01*
X110715000Y-135792142D01*
X110857857Y-135863571D01*
X111143571Y-135863571D01*
X111286428Y-135792142D01*
X111357857Y-135720714D01*
X111429285Y-135577857D01*
X111429285Y-135292142D01*
X111357857Y-135149285D01*
X111286428Y-135077857D01*
X111143571Y-135006428D01*
X100215000Y-137699285D02*
X100143571Y-137627857D01*
X100000714Y-137556428D01*
X99857857Y-137556428D01*
X99715000Y-137627857D01*
X99643571Y-137699285D01*
X99572142Y-137842142D01*
X99572142Y-137985000D01*
X99643571Y-138127857D01*
X99715000Y-138199285D01*
X99857857Y-138270714D01*
X100000714Y-138270714D01*
X100143571Y-138199285D01*
X100215000Y-138127857D01*
X100215000Y-137556428D02*
X100215000Y-138127857D01*
X100286428Y-138199285D01*
X100357857Y-138199285D01*
X100500714Y-138127857D01*
X100572142Y-137985000D01*
X100572142Y-137627857D01*
X100429285Y-137413571D01*
X100215000Y-137270714D01*
X99929285Y-137199285D01*
X99643571Y-137270714D01*
X99429285Y-137413571D01*
X99286428Y-137627857D01*
X99215000Y-137913571D01*
X99286428Y-138199285D01*
X99429285Y-138413571D01*
X99643571Y-138556428D01*
X99929285Y-138627857D01*
X100215000Y-138556428D01*
X100429285Y-138413571D01*
X101857857Y-138413571D02*
X101857857Y-136913571D01*
X101857857Y-138342142D02*
X101715000Y-138413571D01*
X101429285Y-138413571D01*
X101286428Y-138342142D01*
X101215000Y-138270714D01*
X101143571Y-138127857D01*
X101143571Y-137699285D01*
X101215000Y-137556428D01*
X101286428Y-137485000D01*
X101429285Y-137413571D01*
X101715000Y-137413571D01*
X101857857Y-137485000D01*
X103143571Y-138342142D02*
X103000714Y-138413571D01*
X102715000Y-138413571D01*
X102572142Y-138342142D01*
X102500714Y-138199285D01*
X102500714Y-137627857D01*
X102572142Y-137485000D01*
X102715000Y-137413571D01*
X103000714Y-137413571D01*
X103143571Y-137485000D01*
X103215000Y-137627857D01*
X103215000Y-137770714D01*
X102500714Y-137913571D01*
X103786428Y-138342142D02*
X103929285Y-138413571D01*
X104215000Y-138413571D01*
X104357857Y-138342142D01*
X104429285Y-138199285D01*
X104429285Y-138127857D01*
X104357857Y-137985000D01*
X104215000Y-137913571D01*
X104000714Y-137913571D01*
X103857857Y-137842142D01*
X103786428Y-137699285D01*
X103786428Y-137627857D01*
X103857857Y-137485000D01*
X104000714Y-137413571D01*
X104215000Y-137413571D01*
X104357857Y-137485000D01*
X105643571Y-138342142D02*
X105500714Y-138413571D01*
X105215000Y-138413571D01*
X105072142Y-138342142D01*
X105000714Y-138199285D01*
X105000714Y-137627857D01*
X105072142Y-137485000D01*
X105215000Y-137413571D01*
X105500714Y-137413571D01*
X105643571Y-137485000D01*
X105715000Y-137627857D01*
X105715000Y-137770714D01*
X105000714Y-137913571D01*
X106357857Y-138413571D02*
X106357857Y-137413571D01*
X106357857Y-137699285D02*
X106429285Y-137556428D01*
X106500714Y-137485000D01*
X106643571Y-137413571D01*
X106786428Y-137413571D01*
X107072142Y-137413571D02*
X107643571Y-137413571D01*
X107286428Y-136913571D02*
X107286428Y-138199285D01*
X107357857Y-138342142D01*
X107500714Y-138413571D01*
X107643571Y-138413571D01*
X108143571Y-138413571D02*
X108143571Y-136913571D01*
X108286428Y-137842142D02*
X108715000Y-138413571D01*
X108715000Y-137413571D02*
X108143571Y-137985000D01*
X110000714Y-137413571D02*
X110000714Y-138413571D01*
X109357857Y-137413571D02*
X109357857Y-138199285D01*
X109429285Y-138342142D01*
X109572142Y-138413571D01*
X109786428Y-138413571D01*
X109929285Y-138342142D01*
X110000714Y-138270714D01*
X110715000Y-137413571D02*
X110715000Y-138413571D01*
X110715000Y-137556428D02*
X110786428Y-137485000D01*
X110929285Y-137413571D01*
X111143571Y-137413571D01*
X111286428Y-137485000D01*
X111357857Y-137627857D01*
X111357857Y-138413571D01*
D15*
G04 #@! TO.P,BRESET1,2*
G04 #@! TO.N,GND*
X119260000Y-90960000D03*
X119260000Y-97460000D03*
G04 #@! TO.P,BRESET1,1*
G04 #@! TO.N,RESET*
X114760000Y-90960000D03*
X114760000Y-97460000D03*
G04 #@! TD*
G04 #@! TO.P,SW_A1,2*
G04 #@! TO.N,BUTTON_A*
X108660000Y-108960000D03*
X115160000Y-108960000D03*
G04 #@! TO.P,SW_A1,1*
G04 #@! TO.N,GND*
X108660000Y-113460000D03*
X115160000Y-113460000D03*
G04 #@! TD*
G04 #@! TO.P,SW_DOWN1,2*
G04 #@! TO.N,BUTTON_DOWN*
X85160000Y-118960000D03*
X91660000Y-118960000D03*
G04 #@! TO.P,SW_DOWN1,1*
G04 #@! TO.N,GND*
X85160000Y-123460000D03*
X91660000Y-123460000D03*
G04 #@! TD*
G04 #@! TO.P,SW_LEFT1,2*
G04 #@! TO.N,BUTTON_LEFT*
X75160000Y-108960000D03*
X81660000Y-108960000D03*
G04 #@! TO.P,SW_LEFT1,1*
G04 #@! TO.N,GND*
X75160000Y-113460000D03*
X81660000Y-113460000D03*
G04 #@! TD*
G04 #@! TO.P,SW_RIGHT1,2*
G04 #@! TO.N,BUTTON_RIGHT*
X95160000Y-108960000D03*
X101660000Y-108960000D03*
G04 #@! TO.P,SW_RIGHT1,1*
G04 #@! TO.N,GND*
X95160000Y-113460000D03*
X101660000Y-113460000D03*
G04 #@! TD*
G04 #@! TO.P,SW_UP1,2*
G04 #@! TO.N,BUTTON_UP*
X85160000Y-98960000D03*
X91660000Y-98960000D03*
G04 #@! TO.P,SW_UP1,1*
G04 #@! TO.N,GND*
X85160000Y-103460000D03*
X91660000Y-103460000D03*
G04 #@! TD*
D16*
G04 #@! TO.P,U7,1*
G04 #@! TO.N,GND*
X88040000Y-64710000D03*
G04 #@! TO.P,U7,2*
G04 #@! TO.N,+3V3*
X90580000Y-64710000D03*
G04 #@! TO.P,U7,3*
G04 #@! TO.N,OLED_CLK*
X93120000Y-64710000D03*
G04 #@! TO.P,U7,4*
G04 #@! TO.N,OLED_MOSI*
X95660000Y-64710000D03*
G04 #@! TO.P,U7,5*
G04 #@! TO.N,OLED_RES*
X98200000Y-64710000D03*
G04 #@! TO.P,U7,6*
G04 #@! TO.N,OLED_DC*
X100740000Y-64710000D03*
G04 #@! TO.P,U7,7*
G04 #@! TO.N,OLED_CS*
X103280000Y-64710000D03*
G04 #@! TD*
D17*
G04 #@! TO.P,U2,2*
G04 #@! TO.N,+3V3*
X75974000Y-76884000D03*
D18*
G04 #@! TO.P,U2,1*
G04 #@! TO.N,GND*
X73434000Y-76884000D03*
D17*
G04 #@! TO.P,U2,4*
G04 #@! TO.N,NRF_CSN*
X75974000Y-79424000D03*
G04 #@! TO.P,U2,3*
G04 #@! TO.N,NRF_CE*
X73434000Y-79424000D03*
G04 #@! TO.P,U2,6*
G04 #@! TO.N,NRF_MOSI*
X75974000Y-81964000D03*
G04 #@! TO.P,U2,5*
G04 #@! TO.N,NRF_SCK*
X73434000Y-81964000D03*
G04 #@! TO.P,U2,8*
G04 #@! TO.N,NRF_IRQ*
X75974000Y-84504000D03*
G04 #@! TO.P,U2,7*
G04 #@! TO.N,NRF_MISO*
X73434000Y-84504000D03*
G04 #@! TD*
D16*
G04 #@! TO.P,U6,5*
G04 #@! TO.N,+BATT*
X96230000Y-128210000D03*
G04 #@! TO.P,U6,6*
G04 #@! TO.N,-BATT*
X96230000Y-120210000D03*
G04 #@! TO.P,U6,4*
G04 #@! TO.N,N/C*
X119090000Y-117210000D03*
G04 #@! TO.P,U6,3*
X119090000Y-131210000D03*
G04 #@! TO.P,U6,1*
G04 #@! TO.N,+4V*
X96230000Y-131210000D03*
G04 #@! TO.P,U6,2*
G04 #@! TO.N,GND*
X96230000Y-117210000D03*
G04 #@! TD*
D19*
G04 #@! TO.P,BZ1,2*
G04 #@! TO.N,SOUND*
X116585000Y-78120000D03*
D20*
G04 #@! TO.P,BZ1,1*
G04 #@! TO.N,GND*
X116585000Y-74310000D03*
G04 #@! TD*
D19*
G04 #@! TO.P,J1,2*
G04 #@! TO.N,+BATT*
X87160000Y-113020000D03*
D20*
G04 #@! TO.P,J1,1*
G04 #@! TO.N,-BATT*
X87160000Y-109210000D03*
G04 #@! TD*
G04 #@! TO.P,JP_ID1,1*
G04 #@! TO.N,GND*
X116635000Y-86610000D03*
D19*
G04 #@! TO.P,JP_ID1,2*
G04 #@! TO.N,DEVICE_ID*
X116635000Y-82800000D03*
G04 #@! TD*
D20*
G04 #@! TO.P,SW_POW1,1*
G04 #@! TO.N,GND*
X80485000Y-136710000D03*
D19*
G04 #@! TO.P,SW_POW1,2*
G04 #@! TO.N,Net-(SW_POW1-Pad2)*
X83660000Y-136710000D03*
G04 #@! TO.P,SW_POW1,3*
G04 #@! TO.N,+4V*
X86835000Y-136710000D03*
G04 #@! TD*
D21*
G04 #@! TO.P,U5,1*
G04 #@! TO.N,+3V3*
X110160000Y-58960000D03*
D22*
G04 #@! TO.P,U5,2*
G04 #@! TO.N,SWDIO*
X107620000Y-58960000D03*
G04 #@! TO.P,U5,3*
G04 #@! TO.N,SWCLK*
X110160000Y-56420000D03*
G04 #@! TO.P,U5,4*
G04 #@! TO.N,GND*
X107620000Y-56420000D03*
G04 #@! TO.P,U5,5*
G04 #@! TO.N,SWO*
X110160000Y-53880000D03*
G04 #@! TO.P,U5,6*
G04 #@! TO.N,RESET*
X107620000Y-53880000D03*
G04 #@! TD*
D23*
G04 #@! TO.N,+4V*
X85160000Y-131210000D03*
G04 #@! TO.N,GND*
X75410000Y-74210000D03*
X87860000Y-84160000D03*
X87310000Y-77210000D03*
X99160000Y-71360000D03*
X90660000Y-71360000D03*
G04 #@! TO.N,+3V3*
X118910000Y-103460000D03*
X88160000Y-127710000D03*
X117660000Y-62460000D03*
X110360000Y-89960000D03*
X104460000Y-69360000D03*
X84360000Y-88760000D03*
X85160000Y-84060000D03*
X87660000Y-75260000D03*
G04 #@! TO.N,BUTTON_RIGHT*
X92160000Y-91460000D03*
X96410000Y-95710000D03*
G04 #@! TO.N,NRF_CE*
X81660000Y-81410000D03*
X86160000Y-83210000D03*
G04 #@! TO.N,NRF_IRQ*
X79410000Y-84460000D03*
X82410000Y-79460000D03*
G04 #@! TO.N,Net-(SW_POW1-Pad2)*
X80410000Y-130960000D03*
X80410000Y-126960000D03*
G04 #@! TO.N,RESET*
X99910000Y-91710000D03*
X96410000Y-91710000D03*
X97160000Y-80460000D03*
X115660000Y-66210000D03*
G04 #@! TO.N,SWO*
X113660000Y-62960000D03*
G04 #@! TD*
D24*
G04 #@! TO.N,+4V*
X85160000Y-131210000D02*
X87160000Y-131210000D01*
X87160000Y-131210000D02*
X89160000Y-133210000D01*
X89160000Y-134385000D02*
X86835000Y-136710000D01*
X89160000Y-133210000D02*
X89160000Y-134385000D01*
G04 #@! TO.N,GND*
X87860000Y-84160000D02*
X87310000Y-83610000D01*
X87310000Y-83610000D02*
X87310000Y-77210000D01*
X99160000Y-71360000D02*
X90660000Y-71360000D01*
G04 #@! TO.N,BUTTON_UP*
X90457919Y-98960000D02*
X85160000Y-98960000D01*
X91660000Y-98960000D02*
X90457919Y-98960000D01*
G04 #@! TO.N,BUTTON_RIGHT*
X92160000Y-91460000D02*
X96410000Y-95710000D01*
G04 #@! TO.N,NRF_CE*
X81660000Y-81410000D02*
X83460000Y-83210000D01*
X83460000Y-83210000D02*
X86160000Y-83210000D01*
G04 #@! TO.N,NRF_IRQ*
X82410000Y-79475998D02*
X82410000Y-79460000D01*
X79410000Y-84460000D02*
X79410000Y-82475998D01*
X79410000Y-82475998D02*
X82410000Y-79475998D01*
G04 #@! TO.N,+BATT*
X87160000Y-114433492D02*
X88160000Y-115433492D01*
X87160000Y-113020000D02*
X87160000Y-114433492D01*
X88160000Y-115433492D02*
X88160000Y-123210000D01*
X93160000Y-128210000D02*
X96230000Y-128210000D01*
X88160000Y-123210000D02*
X93160000Y-128210000D01*
G04 #@! TO.N,-BATT*
X88359490Y-109210000D02*
X91859490Y-112710000D01*
X87160000Y-109210000D02*
X88359490Y-109210000D01*
X91859490Y-115839490D02*
X96230000Y-120210000D01*
X91859490Y-112710000D02*
X91859490Y-115839490D01*
G04 #@! TO.N,Net-(SW_POW1-Pad2)*
X80410000Y-130960000D02*
X80410000Y-126960000D01*
G04 #@! TO.N,RESET*
X99910000Y-91710000D02*
X96410000Y-91710000D01*
X97160000Y-80460000D02*
X100160000Y-77460000D01*
X100160000Y-77460000D02*
X100160000Y-70960000D01*
X100160000Y-70960000D02*
X103660000Y-67460000D01*
X103660000Y-67460000D02*
X103910000Y-67210000D01*
X103910000Y-67210000D02*
X114660000Y-67210000D01*
X114660000Y-67210000D02*
X115660000Y-66210000D01*
G04 #@! TO.N,SWO*
X113660000Y-62960000D02*
X113660000Y-54960000D01*
X112580000Y-53880000D02*
X110160000Y-53880000D01*
X113660000Y-54960000D02*
X112580000Y-53880000D01*
G04 #@! TD*
D25*
G04 #@! TO.N,+3V3*
G36*
X119925001Y-89628100D02*
X119555385Y-89475000D01*
X118964615Y-89475000D01*
X118418815Y-89701078D01*
X118001078Y-90118815D01*
X117775000Y-90664615D01*
X117775000Y-91255385D01*
X118001078Y-91801185D01*
X118418815Y-92218922D01*
X118964615Y-92445000D01*
X119555385Y-92445000D01*
X119925001Y-92291900D01*
X119925000Y-96128100D01*
X119555385Y-95975000D01*
X118964615Y-95975000D01*
X118418815Y-96201078D01*
X118001078Y-96618815D01*
X117775000Y-97164615D01*
X117775000Y-97755385D01*
X118001078Y-98301185D01*
X118418815Y-98718922D01*
X118964615Y-98945000D01*
X119555385Y-98945000D01*
X119925000Y-98791900D01*
X119925000Y-116069343D01*
X119881337Y-116025680D01*
X119367881Y-115813000D01*
X118812119Y-115813000D01*
X118298663Y-116025680D01*
X117905680Y-116418663D01*
X117693000Y-116932119D01*
X117693000Y-117487881D01*
X117905680Y-118001337D01*
X118298663Y-118394320D01*
X118812119Y-118607000D01*
X119367881Y-118607000D01*
X119881337Y-118394320D01*
X119925000Y-118350657D01*
X119925000Y-130069343D01*
X119881337Y-130025680D01*
X119367881Y-129813000D01*
X118812119Y-129813000D01*
X118298663Y-130025680D01*
X117905680Y-130418663D01*
X117693000Y-130932119D01*
X117693000Y-131487881D01*
X117905680Y-132001337D01*
X118298663Y-132394320D01*
X118812119Y-132607000D01*
X119367881Y-132607000D01*
X119881337Y-132394320D01*
X119925000Y-132350657D01*
X119925000Y-139725000D01*
X112545000Y-139725000D01*
X112545000Y-136015431D01*
X114425000Y-136015431D01*
X114425000Y-136904569D01*
X114765259Y-137726026D01*
X115393974Y-138354741D01*
X116215431Y-138695000D01*
X117104569Y-138695000D01*
X117926026Y-138354741D01*
X118554741Y-137726026D01*
X118895000Y-136904569D01*
X118895000Y-136015431D01*
X118554741Y-135193974D01*
X117926026Y-134565259D01*
X117104569Y-134225000D01*
X116215431Y-134225000D01*
X115393974Y-134565259D01*
X114765259Y-135193974D01*
X114425000Y-136015431D01*
X112545000Y-136015431D01*
X112545000Y-133395000D01*
X94403571Y-133395000D01*
X94403571Y-139725000D01*
X71395000Y-139725000D01*
X71395000Y-136015431D01*
X72425000Y-136015431D01*
X72425000Y-136904569D01*
X72765259Y-137726026D01*
X73393974Y-138354741D01*
X74215431Y-138695000D01*
X75104569Y-138695000D01*
X75926026Y-138354741D01*
X76554741Y-137726026D01*
X76895000Y-136904569D01*
X76895000Y-136015431D01*
X76768698Y-135710510D01*
X78838070Y-135710510D01*
X78838070Y-137709490D01*
X78887353Y-137957255D01*
X79027701Y-138167299D01*
X79237745Y-138307647D01*
X79485510Y-138356930D01*
X81484490Y-138356930D01*
X81732255Y-138307647D01*
X81942299Y-138167299D01*
X82082647Y-137957255D01*
X82131930Y-137709490D01*
X82131930Y-137292041D01*
X82274346Y-137635864D01*
X82734136Y-138095654D01*
X83334880Y-138344490D01*
X83985120Y-138344490D01*
X84585864Y-138095654D01*
X85045654Y-137635864D01*
X85247500Y-137148564D01*
X85449346Y-137635864D01*
X85909136Y-138095654D01*
X86509880Y-138344490D01*
X87160120Y-138344490D01*
X87760864Y-138095654D01*
X88220654Y-137635864D01*
X88469490Y-137035120D01*
X88469490Y-136384880D01*
X88390431Y-136194015D01*
X89628537Y-134955909D01*
X89689905Y-134914905D01*
X89852354Y-134671783D01*
X89895000Y-134457388D01*
X89909399Y-134385000D01*
X89895000Y-134312612D01*
X89895000Y-133282383D01*
X89909398Y-133209999D01*
X89895000Y-133137613D01*
X89895000Y-133137612D01*
X89852354Y-132923217D01*
X89689905Y-132680095D01*
X89628538Y-132639091D01*
X87921566Y-130932119D01*
X94833000Y-130932119D01*
X94833000Y-131487881D01*
X95045680Y-132001337D01*
X95438663Y-132394320D01*
X95952119Y-132607000D01*
X96507881Y-132607000D01*
X97021337Y-132394320D01*
X97414320Y-132001337D01*
X97627000Y-131487881D01*
X97627000Y-130932119D01*
X97414320Y-130418663D01*
X97021337Y-130025680D01*
X96507881Y-129813000D01*
X95952119Y-129813000D01*
X95438663Y-130025680D01*
X95045680Y-130418663D01*
X94833000Y-130932119D01*
X87921566Y-130932119D01*
X87730911Y-130741465D01*
X87689905Y-130680095D01*
X87446783Y-130517646D01*
X87232388Y-130475000D01*
X87232384Y-130475000D01*
X87160000Y-130460602D01*
X87087616Y-130475000D01*
X86030133Y-130475000D01*
X85802926Y-130247793D01*
X85385766Y-130075000D01*
X84934234Y-130075000D01*
X84517074Y-130247793D01*
X84197793Y-130567074D01*
X84025000Y-130984234D01*
X84025000Y-131435766D01*
X84197793Y-131852926D01*
X84517074Y-132172207D01*
X84934234Y-132345000D01*
X85385766Y-132345000D01*
X85802926Y-132172207D01*
X86030133Y-131945000D01*
X86855554Y-131945000D01*
X88425000Y-133514447D01*
X88425001Y-134080552D01*
X87350985Y-135154569D01*
X87160120Y-135075510D01*
X86509880Y-135075510D01*
X85909136Y-135324346D01*
X85449346Y-135784136D01*
X85247500Y-136271436D01*
X85045654Y-135784136D01*
X84585864Y-135324346D01*
X83985120Y-135075510D01*
X83334880Y-135075510D01*
X82734136Y-135324346D01*
X82274346Y-135784136D01*
X82131930Y-136127959D01*
X82131930Y-135710510D01*
X82082647Y-135462745D01*
X81942299Y-135252701D01*
X81732255Y-135112353D01*
X81484490Y-135063070D01*
X79485510Y-135063070D01*
X79237745Y-135112353D01*
X79027701Y-135252701D01*
X78887353Y-135462745D01*
X78838070Y-135710510D01*
X76768698Y-135710510D01*
X76554741Y-135193974D01*
X75926026Y-134565259D01*
X75104569Y-134225000D01*
X74215431Y-134225000D01*
X73393974Y-134565259D01*
X72765259Y-135193974D01*
X72425000Y-136015431D01*
X71395000Y-136015431D01*
X71395000Y-126734234D01*
X79275000Y-126734234D01*
X79275000Y-127185766D01*
X79447793Y-127602926D01*
X79675001Y-127830134D01*
X79675000Y-130089867D01*
X79447793Y-130317074D01*
X79275000Y-130734234D01*
X79275000Y-131185766D01*
X79447793Y-131602926D01*
X79767074Y-131922207D01*
X80184234Y-132095000D01*
X80635766Y-132095000D01*
X81052926Y-131922207D01*
X81372207Y-131602926D01*
X81545000Y-131185766D01*
X81545000Y-130734234D01*
X81372207Y-130317074D01*
X81145000Y-130089867D01*
X81145000Y-127830133D01*
X81372207Y-127602926D01*
X81545000Y-127185766D01*
X81545000Y-126734234D01*
X81372207Y-126317074D01*
X81052926Y-125997793D01*
X80635766Y-125825000D01*
X80184234Y-125825000D01*
X79767074Y-125997793D01*
X79447793Y-126317074D01*
X79275000Y-126734234D01*
X71395000Y-126734234D01*
X71395000Y-123164615D01*
X83675000Y-123164615D01*
X83675000Y-123755385D01*
X83901078Y-124301185D01*
X84318815Y-124718922D01*
X84864615Y-124945000D01*
X85455385Y-124945000D01*
X86001185Y-124718922D01*
X86418922Y-124301185D01*
X86645000Y-123755385D01*
X86645000Y-123164615D01*
X86418922Y-122618815D01*
X86001185Y-122201078D01*
X85455385Y-121975000D01*
X84864615Y-121975000D01*
X84318815Y-122201078D01*
X83901078Y-122618815D01*
X83675000Y-123164615D01*
X71395000Y-123164615D01*
X71395000Y-118664615D01*
X83675000Y-118664615D01*
X83675000Y-119255385D01*
X83901078Y-119801185D01*
X84318815Y-120218922D01*
X84864615Y-120445000D01*
X85455385Y-120445000D01*
X86001185Y-120218922D01*
X86418922Y-119801185D01*
X86645000Y-119255385D01*
X86645000Y-118664615D01*
X86418922Y-118118815D01*
X86001185Y-117701078D01*
X85455385Y-117475000D01*
X84864615Y-117475000D01*
X84318815Y-117701078D01*
X83901078Y-118118815D01*
X83675000Y-118664615D01*
X71395000Y-118664615D01*
X71395000Y-113164615D01*
X73675000Y-113164615D01*
X73675000Y-113755385D01*
X73901078Y-114301185D01*
X74318815Y-114718922D01*
X74864615Y-114945000D01*
X75455385Y-114945000D01*
X76001185Y-114718922D01*
X76418922Y-114301185D01*
X76645000Y-113755385D01*
X76645000Y-113164615D01*
X80175000Y-113164615D01*
X80175000Y-113755385D01*
X80401078Y-114301185D01*
X80818815Y-114718922D01*
X81364615Y-114945000D01*
X81955385Y-114945000D01*
X82501185Y-114718922D01*
X82918922Y-114301185D01*
X83145000Y-113755385D01*
X83145000Y-113164615D01*
X82950430Y-112694880D01*
X85525510Y-112694880D01*
X85525510Y-113345120D01*
X85774346Y-113945864D01*
X86234136Y-114405654D01*
X86420412Y-114482812D01*
X86467646Y-114720274D01*
X86467647Y-114720275D01*
X86630096Y-114963397D01*
X86691463Y-115004401D01*
X87425000Y-115737939D01*
X87425001Y-123137611D01*
X87410602Y-123210000D01*
X87467646Y-123496782D01*
X87467647Y-123496783D01*
X87630096Y-123739905D01*
X87691463Y-123780909D01*
X92589091Y-128678538D01*
X92630095Y-128739905D01*
X92873217Y-128902354D01*
X93087612Y-128945000D01*
X93087616Y-128945000D01*
X93160000Y-128959398D01*
X93232384Y-128945000D01*
X95022344Y-128945000D01*
X95045680Y-129001337D01*
X95438663Y-129394320D01*
X95952119Y-129607000D01*
X96507881Y-129607000D01*
X97021337Y-129394320D01*
X97414320Y-129001337D01*
X97627000Y-128487881D01*
X97627000Y-127932119D01*
X97414320Y-127418663D01*
X97021337Y-127025680D01*
X96507881Y-126813000D01*
X95952119Y-126813000D01*
X95438663Y-127025680D01*
X95045680Y-127418663D01*
X95022344Y-127475000D01*
X93464447Y-127475000D01*
X89154062Y-123164615D01*
X90175000Y-123164615D01*
X90175000Y-123755385D01*
X90401078Y-124301185D01*
X90818815Y-124718922D01*
X91364615Y-124945000D01*
X91955385Y-124945000D01*
X92501185Y-124718922D01*
X92918922Y-124301185D01*
X93145000Y-123755385D01*
X93145000Y-123164615D01*
X92918922Y-122618815D01*
X92501185Y-122201078D01*
X91955385Y-121975000D01*
X91364615Y-121975000D01*
X90818815Y-122201078D01*
X90401078Y-122618815D01*
X90175000Y-123164615D01*
X89154062Y-123164615D01*
X88895000Y-122905554D01*
X88895000Y-118664615D01*
X90175000Y-118664615D01*
X90175000Y-119255385D01*
X90401078Y-119801185D01*
X90818815Y-120218922D01*
X91364615Y-120445000D01*
X91955385Y-120445000D01*
X92501185Y-120218922D01*
X92918922Y-119801185D01*
X93145000Y-119255385D01*
X93145000Y-118664615D01*
X92918922Y-118118815D01*
X92501185Y-117701078D01*
X91955385Y-117475000D01*
X91364615Y-117475000D01*
X90818815Y-117701078D01*
X90401078Y-118118815D01*
X90175000Y-118664615D01*
X88895000Y-118664615D01*
X88895000Y-115505880D01*
X88909399Y-115433492D01*
X88852354Y-115146710D01*
X88852354Y-115146709D01*
X88689905Y-114903587D01*
X88628538Y-114862583D01*
X88128736Y-114362782D01*
X88545654Y-113945864D01*
X88794490Y-113345120D01*
X88794490Y-112694880D01*
X88545654Y-112094136D01*
X88085864Y-111634346D01*
X87485120Y-111385510D01*
X86834880Y-111385510D01*
X86234136Y-111634346D01*
X85774346Y-112094136D01*
X85525510Y-112694880D01*
X82950430Y-112694880D01*
X82918922Y-112618815D01*
X82501185Y-112201078D01*
X81955385Y-111975000D01*
X81364615Y-111975000D01*
X80818815Y-112201078D01*
X80401078Y-112618815D01*
X80175000Y-113164615D01*
X76645000Y-113164615D01*
X76418922Y-112618815D01*
X76001185Y-112201078D01*
X75455385Y-111975000D01*
X74864615Y-111975000D01*
X74318815Y-112201078D01*
X73901078Y-112618815D01*
X73675000Y-113164615D01*
X71395000Y-113164615D01*
X71395000Y-108664615D01*
X73675000Y-108664615D01*
X73675000Y-109255385D01*
X73901078Y-109801185D01*
X74318815Y-110218922D01*
X74864615Y-110445000D01*
X75455385Y-110445000D01*
X76001185Y-110218922D01*
X76418922Y-109801185D01*
X76645000Y-109255385D01*
X76645000Y-108664615D01*
X80175000Y-108664615D01*
X80175000Y-109255385D01*
X80401078Y-109801185D01*
X80818815Y-110218922D01*
X81364615Y-110445000D01*
X81955385Y-110445000D01*
X82501185Y-110218922D01*
X82918922Y-109801185D01*
X83145000Y-109255385D01*
X83145000Y-108664615D01*
X82956904Y-108210510D01*
X85513070Y-108210510D01*
X85513070Y-110209490D01*
X85562353Y-110457255D01*
X85702701Y-110667299D01*
X85912745Y-110807647D01*
X86160510Y-110856930D01*
X88159490Y-110856930D01*
X88407255Y-110807647D01*
X88617299Y-110667299D01*
X88681404Y-110571360D01*
X91124490Y-113014447D01*
X91124491Y-115767101D01*
X91110092Y-115839490D01*
X91167136Y-116126272D01*
X91167137Y-116126273D01*
X91329586Y-116369395D01*
X91390953Y-116410399D01*
X94856335Y-119875782D01*
X94833000Y-119932119D01*
X94833000Y-120487881D01*
X95045680Y-121001337D01*
X95438663Y-121394320D01*
X95952119Y-121607000D01*
X96507881Y-121607000D01*
X97021337Y-121394320D01*
X97414320Y-121001337D01*
X97627000Y-120487881D01*
X97627000Y-119932119D01*
X97414320Y-119418663D01*
X97021337Y-119025680D01*
X96507881Y-118813000D01*
X95952119Y-118813000D01*
X95895782Y-118836335D01*
X95464447Y-118405000D01*
X95952119Y-118607000D01*
X96507881Y-118607000D01*
X97021337Y-118394320D01*
X97414320Y-118001337D01*
X97627000Y-117487881D01*
X97627000Y-116932119D01*
X97414320Y-116418663D01*
X97021337Y-116025680D01*
X96507881Y-115813000D01*
X95952119Y-115813000D01*
X95438663Y-116025680D01*
X95045680Y-116418663D01*
X94833000Y-116932119D01*
X94833000Y-117487881D01*
X95035000Y-117975554D01*
X92594490Y-115535044D01*
X92594490Y-113164615D01*
X93675000Y-113164615D01*
X93675000Y-113755385D01*
X93901078Y-114301185D01*
X94318815Y-114718922D01*
X94864615Y-114945000D01*
X95455385Y-114945000D01*
X96001185Y-114718922D01*
X96418922Y-114301185D01*
X96645000Y-113755385D01*
X96645000Y-113164615D01*
X100175000Y-113164615D01*
X100175000Y-113755385D01*
X100401078Y-114301185D01*
X100818815Y-114718922D01*
X101364615Y-114945000D01*
X101955385Y-114945000D01*
X102501185Y-114718922D01*
X102918922Y-114301185D01*
X103145000Y-113755385D01*
X103145000Y-113164615D01*
X107175000Y-113164615D01*
X107175000Y-113755385D01*
X107401078Y-114301185D01*
X107818815Y-114718922D01*
X108364615Y-114945000D01*
X108955385Y-114945000D01*
X109501185Y-114718922D01*
X109918922Y-114301185D01*
X110145000Y-113755385D01*
X110145000Y-113164615D01*
X113675000Y-113164615D01*
X113675000Y-113755385D01*
X113901078Y-114301185D01*
X114318815Y-114718922D01*
X114864615Y-114945000D01*
X115455385Y-114945000D01*
X116001185Y-114718922D01*
X116418922Y-114301185D01*
X116645000Y-113755385D01*
X116645000Y-113164615D01*
X116418922Y-112618815D01*
X116001185Y-112201078D01*
X115455385Y-111975000D01*
X114864615Y-111975000D01*
X114318815Y-112201078D01*
X113901078Y-112618815D01*
X113675000Y-113164615D01*
X110145000Y-113164615D01*
X109918922Y-112618815D01*
X109501185Y-112201078D01*
X108955385Y-111975000D01*
X108364615Y-111975000D01*
X107818815Y-112201078D01*
X107401078Y-112618815D01*
X107175000Y-113164615D01*
X103145000Y-113164615D01*
X102918922Y-112618815D01*
X102501185Y-112201078D01*
X101955385Y-111975000D01*
X101364615Y-111975000D01*
X100818815Y-112201078D01*
X100401078Y-112618815D01*
X100175000Y-113164615D01*
X96645000Y-113164615D01*
X96418922Y-112618815D01*
X96001185Y-112201078D01*
X95455385Y-111975000D01*
X94864615Y-111975000D01*
X94318815Y-112201078D01*
X93901078Y-112618815D01*
X93675000Y-113164615D01*
X92594490Y-113164615D01*
X92594490Y-112782383D01*
X92608888Y-112709999D01*
X92594490Y-112637613D01*
X92594490Y-112637612D01*
X92551844Y-112423217D01*
X92389395Y-112180095D01*
X92328028Y-112139091D01*
X88930401Y-108741465D01*
X88889395Y-108680095D01*
X88866228Y-108664615D01*
X93675000Y-108664615D01*
X93675000Y-109255385D01*
X93901078Y-109801185D01*
X94318815Y-110218922D01*
X94864615Y-110445000D01*
X95455385Y-110445000D01*
X96001185Y-110218922D01*
X96418922Y-109801185D01*
X96645000Y-109255385D01*
X96645000Y-108664615D01*
X100175000Y-108664615D01*
X100175000Y-109255385D01*
X100401078Y-109801185D01*
X100818815Y-110218922D01*
X101364615Y-110445000D01*
X101955385Y-110445000D01*
X102501185Y-110218922D01*
X102918922Y-109801185D01*
X103145000Y-109255385D01*
X103145000Y-108664615D01*
X107175000Y-108664615D01*
X107175000Y-109255385D01*
X107401078Y-109801185D01*
X107818815Y-110218922D01*
X108364615Y-110445000D01*
X108955385Y-110445000D01*
X109501185Y-110218922D01*
X109918922Y-109801185D01*
X110145000Y-109255385D01*
X110145000Y-108664615D01*
X113675000Y-108664615D01*
X113675000Y-109255385D01*
X113901078Y-109801185D01*
X114318815Y-110218922D01*
X114864615Y-110445000D01*
X115455385Y-110445000D01*
X116001185Y-110218922D01*
X116418922Y-109801185D01*
X116645000Y-109255385D01*
X116645000Y-108664615D01*
X116418922Y-108118815D01*
X116001185Y-107701078D01*
X115455385Y-107475000D01*
X114864615Y-107475000D01*
X114318815Y-107701078D01*
X113901078Y-108118815D01*
X113675000Y-108664615D01*
X110145000Y-108664615D01*
X109918922Y-108118815D01*
X109501185Y-107701078D01*
X108955385Y-107475000D01*
X108364615Y-107475000D01*
X107818815Y-107701078D01*
X107401078Y-108118815D01*
X107175000Y-108664615D01*
X103145000Y-108664615D01*
X102918922Y-108118815D01*
X102501185Y-107701078D01*
X101955385Y-107475000D01*
X101364615Y-107475000D01*
X100818815Y-107701078D01*
X100401078Y-108118815D01*
X100175000Y-108664615D01*
X96645000Y-108664615D01*
X96418922Y-108118815D01*
X96001185Y-107701078D01*
X95455385Y-107475000D01*
X94864615Y-107475000D01*
X94318815Y-107701078D01*
X93901078Y-108118815D01*
X93675000Y-108664615D01*
X88866228Y-108664615D01*
X88806930Y-108624994D01*
X88806930Y-108210510D01*
X88757647Y-107962745D01*
X88617299Y-107752701D01*
X88407255Y-107612353D01*
X88159490Y-107563070D01*
X86160510Y-107563070D01*
X85912745Y-107612353D01*
X85702701Y-107752701D01*
X85562353Y-107962745D01*
X85513070Y-108210510D01*
X82956904Y-108210510D01*
X82918922Y-108118815D01*
X82501185Y-107701078D01*
X81955385Y-107475000D01*
X81364615Y-107475000D01*
X80818815Y-107701078D01*
X80401078Y-108118815D01*
X80175000Y-108664615D01*
X76645000Y-108664615D01*
X76418922Y-108118815D01*
X76001185Y-107701078D01*
X75455385Y-107475000D01*
X74864615Y-107475000D01*
X74318815Y-107701078D01*
X73901078Y-108118815D01*
X73675000Y-108664615D01*
X71395000Y-108664615D01*
X71395000Y-103164615D01*
X83675000Y-103164615D01*
X83675000Y-103755385D01*
X83901078Y-104301185D01*
X84318815Y-104718922D01*
X84864615Y-104945000D01*
X85455385Y-104945000D01*
X86001185Y-104718922D01*
X86418922Y-104301185D01*
X86645000Y-103755385D01*
X86645000Y-103164615D01*
X90175000Y-103164615D01*
X90175000Y-103755385D01*
X90401078Y-104301185D01*
X90818815Y-104718922D01*
X91364615Y-104945000D01*
X91955385Y-104945000D01*
X92501185Y-104718922D01*
X92918922Y-104301185D01*
X93145000Y-103755385D01*
X93145000Y-103164615D01*
X92918922Y-102618815D01*
X92501185Y-102201078D01*
X91955385Y-101975000D01*
X91364615Y-101975000D01*
X90818815Y-102201078D01*
X90401078Y-102618815D01*
X90175000Y-103164615D01*
X86645000Y-103164615D01*
X86418922Y-102618815D01*
X86001185Y-102201078D01*
X85455385Y-101975000D01*
X84864615Y-101975000D01*
X84318815Y-102201078D01*
X83901078Y-102618815D01*
X83675000Y-103164615D01*
X71395000Y-103164615D01*
X71395000Y-98664615D01*
X83675000Y-98664615D01*
X83675000Y-99255385D01*
X83901078Y-99801185D01*
X84318815Y-100218922D01*
X84864615Y-100445000D01*
X85455385Y-100445000D01*
X86001185Y-100218922D01*
X86418922Y-99801185D01*
X86462905Y-99695000D01*
X90357095Y-99695000D01*
X90401078Y-99801185D01*
X90818815Y-100218922D01*
X91364615Y-100445000D01*
X91955385Y-100445000D01*
X92501185Y-100218922D01*
X92918922Y-99801185D01*
X93145000Y-99255385D01*
X93145000Y-98664615D01*
X92918922Y-98118815D01*
X92501185Y-97701078D01*
X91955385Y-97475000D01*
X91364615Y-97475000D01*
X90818815Y-97701078D01*
X90401078Y-98118815D01*
X90357095Y-98225000D01*
X86462905Y-98225000D01*
X86418922Y-98118815D01*
X86001185Y-97701078D01*
X85455385Y-97475000D01*
X84864615Y-97475000D01*
X84318815Y-97701078D01*
X83901078Y-98118815D01*
X83675000Y-98664615D01*
X71395000Y-98664615D01*
X71395000Y-97164615D01*
X113275000Y-97164615D01*
X113275000Y-97755385D01*
X113501078Y-98301185D01*
X113918815Y-98718922D01*
X114464615Y-98945000D01*
X115055385Y-98945000D01*
X115601185Y-98718922D01*
X116018922Y-98301185D01*
X116245000Y-97755385D01*
X116245000Y-97164615D01*
X116018922Y-96618815D01*
X115601185Y-96201078D01*
X115055385Y-95975000D01*
X114464615Y-95975000D01*
X113918815Y-96201078D01*
X113501078Y-96618815D01*
X113275000Y-97164615D01*
X71395000Y-97164615D01*
X71395000Y-93265322D01*
X78345000Y-93265322D01*
X78345000Y-94114678D01*
X78670034Y-94899380D01*
X79270620Y-95499966D01*
X80055322Y-95825000D01*
X80904678Y-95825000D01*
X81689380Y-95499966D01*
X82289966Y-94899380D01*
X82615000Y-94114678D01*
X82615000Y-93265322D01*
X82289966Y-92480620D01*
X81689380Y-91880034D01*
X80904678Y-91555000D01*
X80055322Y-91555000D01*
X79270620Y-91880034D01*
X78670034Y-92480620D01*
X78345000Y-93265322D01*
X71395000Y-93265322D01*
X71395000Y-91234234D01*
X91025000Y-91234234D01*
X91025000Y-91685766D01*
X91197793Y-92102926D01*
X91517074Y-92422207D01*
X91934234Y-92595000D01*
X92255554Y-92595000D01*
X95275000Y-95614447D01*
X95275000Y-95935766D01*
X95447793Y-96352926D01*
X95767074Y-96672207D01*
X96184234Y-96845000D01*
X96635766Y-96845000D01*
X97052926Y-96672207D01*
X97372207Y-96352926D01*
X97545000Y-95935766D01*
X97545000Y-95484234D01*
X97372207Y-95067074D01*
X97052926Y-94747793D01*
X96635766Y-94575000D01*
X96314447Y-94575000D01*
X95004769Y-93265322D01*
X108705000Y-93265322D01*
X108705000Y-94114678D01*
X109030034Y-94899380D01*
X109630620Y-95499966D01*
X110415322Y-95825000D01*
X111264678Y-95825000D01*
X112049380Y-95499966D01*
X112649966Y-94899380D01*
X112975000Y-94114678D01*
X112975000Y-93265322D01*
X112649966Y-92480620D01*
X112049380Y-91880034D01*
X111264678Y-91555000D01*
X110415322Y-91555000D01*
X109630620Y-91880034D01*
X109030034Y-92480620D01*
X108705000Y-93265322D01*
X95004769Y-93265322D01*
X93295000Y-91555554D01*
X93295000Y-91484234D01*
X95275000Y-91484234D01*
X95275000Y-91935766D01*
X95447793Y-92352926D01*
X95767074Y-92672207D01*
X96184234Y-92845000D01*
X96635766Y-92845000D01*
X97052926Y-92672207D01*
X97280133Y-92445000D01*
X99039867Y-92445000D01*
X99267074Y-92672207D01*
X99684234Y-92845000D01*
X100135766Y-92845000D01*
X100552926Y-92672207D01*
X100872207Y-92352926D01*
X101045000Y-91935766D01*
X101045000Y-91484234D01*
X100872207Y-91067074D01*
X100552926Y-90747793D01*
X100352117Y-90664615D01*
X113275000Y-90664615D01*
X113275000Y-91255385D01*
X113501078Y-91801185D01*
X113918815Y-92218922D01*
X114464615Y-92445000D01*
X115055385Y-92445000D01*
X115601185Y-92218922D01*
X116018922Y-91801185D01*
X116245000Y-91255385D01*
X116245000Y-90664615D01*
X116018922Y-90118815D01*
X115601185Y-89701078D01*
X115055385Y-89475000D01*
X114464615Y-89475000D01*
X113918815Y-89701078D01*
X113501078Y-90118815D01*
X113275000Y-90664615D01*
X100352117Y-90664615D01*
X100135766Y-90575000D01*
X99684234Y-90575000D01*
X99267074Y-90747793D01*
X99039867Y-90975000D01*
X97280133Y-90975000D01*
X97052926Y-90747793D01*
X96635766Y-90575000D01*
X96184234Y-90575000D01*
X95767074Y-90747793D01*
X95447793Y-91067074D01*
X95275000Y-91484234D01*
X93295000Y-91484234D01*
X93295000Y-91234234D01*
X93122207Y-90817074D01*
X92802926Y-90497793D01*
X92385766Y-90325000D01*
X91934234Y-90325000D01*
X91517074Y-90497793D01*
X91197793Y-90817074D01*
X91025000Y-91234234D01*
X71395000Y-91234234D01*
X71395000Y-79424000D01*
X71906041Y-79424000D01*
X72022350Y-80008725D01*
X72353570Y-80504430D01*
X72637281Y-80694000D01*
X72353570Y-80883570D01*
X72022350Y-81379275D01*
X71906041Y-81964000D01*
X72022350Y-82548725D01*
X72353570Y-83044430D01*
X72637281Y-83234000D01*
X72353570Y-83423570D01*
X72022350Y-83919275D01*
X71906041Y-84504000D01*
X72022350Y-85088725D01*
X72353570Y-85584430D01*
X72849275Y-85915650D01*
X73286402Y-86002600D01*
X73581598Y-86002600D01*
X74018725Y-85915650D01*
X74514430Y-85584430D01*
X74704000Y-85300719D01*
X74893570Y-85584430D01*
X75389275Y-85915650D01*
X75826402Y-86002600D01*
X76121598Y-86002600D01*
X76558725Y-85915650D01*
X77015398Y-85610510D01*
X114988070Y-85610510D01*
X114988070Y-87609490D01*
X115037353Y-87857255D01*
X115177701Y-88067299D01*
X115387745Y-88207647D01*
X115635510Y-88256930D01*
X117634490Y-88256930D01*
X117882255Y-88207647D01*
X118092299Y-88067299D01*
X118232647Y-87857255D01*
X118281930Y-87609490D01*
X118281930Y-85610510D01*
X118232647Y-85362745D01*
X118092299Y-85152701D01*
X117882255Y-85012353D01*
X117634490Y-84963070D01*
X115635510Y-84963070D01*
X115387745Y-85012353D01*
X115177701Y-85152701D01*
X115037353Y-85362745D01*
X114988070Y-85610510D01*
X77015398Y-85610510D01*
X77054430Y-85584430D01*
X77385650Y-85088725D01*
X77501959Y-84504000D01*
X77448300Y-84234234D01*
X78275000Y-84234234D01*
X78275000Y-84685766D01*
X78447793Y-85102926D01*
X78767074Y-85422207D01*
X79184234Y-85595000D01*
X79635766Y-85595000D01*
X80052926Y-85422207D01*
X80372207Y-85102926D01*
X80545000Y-84685766D01*
X80545000Y-84234234D01*
X80372207Y-83817074D01*
X80145000Y-83589867D01*
X80145000Y-82780444D01*
X80785156Y-82140289D01*
X81017074Y-82372207D01*
X81434234Y-82545000D01*
X81755554Y-82545000D01*
X82889090Y-83678537D01*
X82930095Y-83739905D01*
X83173217Y-83902354D01*
X83387612Y-83945000D01*
X83387615Y-83945000D01*
X83459999Y-83959398D01*
X83532383Y-83945000D01*
X85289867Y-83945000D01*
X85517074Y-84172207D01*
X85934234Y-84345000D01*
X86385766Y-84345000D01*
X86725000Y-84204485D01*
X86725000Y-84385766D01*
X86897793Y-84802926D01*
X87217074Y-85122207D01*
X87634234Y-85295000D01*
X88085766Y-85295000D01*
X88502926Y-85122207D01*
X88822207Y-84802926D01*
X88995000Y-84385766D01*
X88995000Y-83934234D01*
X88822207Y-83517074D01*
X88502926Y-83197793D01*
X88085766Y-83025000D01*
X88045000Y-83025000D01*
X88045000Y-82474880D01*
X115000510Y-82474880D01*
X115000510Y-83125120D01*
X115249346Y-83725864D01*
X115709136Y-84185654D01*
X116309880Y-84434490D01*
X116960120Y-84434490D01*
X117560864Y-84185654D01*
X118020654Y-83725864D01*
X118269490Y-83125120D01*
X118269490Y-82474880D01*
X118020654Y-81874136D01*
X117560864Y-81414346D01*
X116960120Y-81165510D01*
X116309880Y-81165510D01*
X115709136Y-81414346D01*
X115249346Y-81874136D01*
X115000510Y-82474880D01*
X88045000Y-82474880D01*
X88045000Y-78080133D01*
X88272207Y-77852926D01*
X88445000Y-77435766D01*
X88445000Y-76984234D01*
X88272207Y-76567074D01*
X87952926Y-76247793D01*
X87535766Y-76075000D01*
X87084234Y-76075000D01*
X86667074Y-76247793D01*
X86347793Y-76567074D01*
X86175000Y-76984234D01*
X86175000Y-77435766D01*
X86347793Y-77852926D01*
X86575001Y-78080134D01*
X86575000Y-82153383D01*
X86385766Y-82075000D01*
X85934234Y-82075000D01*
X85517074Y-82247793D01*
X85289867Y-82475000D01*
X83764447Y-82475000D01*
X82795000Y-81505554D01*
X82795000Y-81184234D01*
X82622207Y-80767074D01*
X82450133Y-80595000D01*
X82635766Y-80595000D01*
X83052926Y-80422207D01*
X83372207Y-80102926D01*
X83545000Y-79685766D01*
X83545000Y-79234234D01*
X83372207Y-78817074D01*
X83052926Y-78497793D01*
X82635766Y-78325000D01*
X82184234Y-78325000D01*
X81767074Y-78497793D01*
X81447793Y-78817074D01*
X81275000Y-79234234D01*
X81275000Y-79571551D01*
X78941463Y-81905089D01*
X78880096Y-81946093D01*
X78839092Y-82007460D01*
X78839091Y-82007461D01*
X78717646Y-82189216D01*
X78660602Y-82475998D01*
X78675001Y-82548387D01*
X78675000Y-83589867D01*
X78447793Y-83817074D01*
X78275000Y-84234234D01*
X77448300Y-84234234D01*
X77385650Y-83919275D01*
X77054430Y-83423570D01*
X76770719Y-83234000D01*
X77054430Y-83044430D01*
X77385650Y-82548725D01*
X77501959Y-81964000D01*
X77385650Y-81379275D01*
X77054430Y-80883570D01*
X76770719Y-80694000D01*
X77054430Y-80504430D01*
X77385650Y-80008725D01*
X77501959Y-79424000D01*
X77385650Y-78839275D01*
X77054430Y-78343570D01*
X76766174Y-78150963D01*
X77180821Y-77772490D01*
X77428968Y-77243027D01*
X77308469Y-77011000D01*
X76101000Y-77011000D01*
X76101000Y-77031000D01*
X75847000Y-77031000D01*
X75847000Y-77011000D01*
X75827000Y-77011000D01*
X75827000Y-76757000D01*
X75847000Y-76757000D01*
X75847000Y-75550183D01*
X76101000Y-75550183D01*
X76101000Y-76757000D01*
X77308469Y-76757000D01*
X77428968Y-76524973D01*
X77180821Y-75995510D01*
X76748947Y-75601312D01*
X76333026Y-75429042D01*
X76101000Y-75550183D01*
X75847000Y-75550183D01*
X75614974Y-75429042D01*
X75199053Y-75601312D01*
X74913520Y-75861936D01*
X74895757Y-75772635D01*
X74755409Y-75562591D01*
X74545365Y-75422243D01*
X74297600Y-75372960D01*
X72570400Y-75372960D01*
X72322635Y-75422243D01*
X72112591Y-75562591D01*
X71972243Y-75772635D01*
X71922960Y-76020400D01*
X71922960Y-77747600D01*
X71972243Y-77995365D01*
X72112591Y-78205409D01*
X72322635Y-78345757D01*
X72348651Y-78350932D01*
X72022350Y-78839275D01*
X71906041Y-79424000D01*
X71395000Y-79424000D01*
X71395000Y-73984234D01*
X74275000Y-73984234D01*
X74275000Y-74435766D01*
X74447793Y-74852926D01*
X74767074Y-75172207D01*
X75184234Y-75345000D01*
X75635766Y-75345000D01*
X76052926Y-75172207D01*
X76372207Y-74852926D01*
X76545000Y-74435766D01*
X76545000Y-73984234D01*
X76372207Y-73567074D01*
X76052926Y-73247793D01*
X75635766Y-73075000D01*
X75184234Y-73075000D01*
X74767074Y-73247793D01*
X74447793Y-73567074D01*
X74275000Y-73984234D01*
X71395000Y-73984234D01*
X71395000Y-71134234D01*
X89525000Y-71134234D01*
X89525000Y-71585766D01*
X89697793Y-72002926D01*
X90017074Y-72322207D01*
X90434234Y-72495000D01*
X90885766Y-72495000D01*
X91302926Y-72322207D01*
X91530133Y-72095000D01*
X98289867Y-72095000D01*
X98517074Y-72322207D01*
X98934234Y-72495000D01*
X99385766Y-72495000D01*
X99425001Y-72478748D01*
X99425000Y-77155553D01*
X97255554Y-79325000D01*
X96934234Y-79325000D01*
X96517074Y-79497793D01*
X96197793Y-79817074D01*
X96025000Y-80234234D01*
X96025000Y-80685766D01*
X96197793Y-81102926D01*
X96517074Y-81422207D01*
X96934234Y-81595000D01*
X97385766Y-81595000D01*
X97802926Y-81422207D01*
X98122207Y-81102926D01*
X98295000Y-80685766D01*
X98295000Y-80364446D01*
X100628538Y-78030909D01*
X100689905Y-77989905D01*
X100820216Y-77794880D01*
X114950510Y-77794880D01*
X114950510Y-78445120D01*
X115199346Y-79045864D01*
X115659136Y-79505654D01*
X116259880Y-79754490D01*
X116910120Y-79754490D01*
X117510864Y-79505654D01*
X117970654Y-79045864D01*
X118219490Y-78445120D01*
X118219490Y-77794880D01*
X117970654Y-77194136D01*
X117510864Y-76734346D01*
X116910120Y-76485510D01*
X116259880Y-76485510D01*
X115659136Y-76734346D01*
X115199346Y-77194136D01*
X114950510Y-77794880D01*
X100820216Y-77794880D01*
X100852354Y-77746783D01*
X100895000Y-77532388D01*
X100895000Y-77532387D01*
X100909399Y-77460000D01*
X100895000Y-77387612D01*
X100895000Y-73310510D01*
X114938070Y-73310510D01*
X114938070Y-75309490D01*
X114987353Y-75557255D01*
X115127701Y-75767299D01*
X115337745Y-75907647D01*
X115585510Y-75956930D01*
X117584490Y-75956930D01*
X117832255Y-75907647D01*
X118042299Y-75767299D01*
X118182647Y-75557255D01*
X118231930Y-75309490D01*
X118231930Y-73310510D01*
X118182647Y-73062745D01*
X118042299Y-72852701D01*
X117832255Y-72712353D01*
X117584490Y-72663070D01*
X115585510Y-72663070D01*
X115337745Y-72712353D01*
X115127701Y-72852701D01*
X114987353Y-73062745D01*
X114938070Y-73310510D01*
X100895000Y-73310510D01*
X100895000Y-71264446D01*
X104214447Y-67945000D01*
X114587616Y-67945000D01*
X114660000Y-67959398D01*
X114732384Y-67945000D01*
X114732388Y-67945000D01*
X114946783Y-67902354D01*
X115189905Y-67739905D01*
X115230911Y-67678535D01*
X115564446Y-67345000D01*
X115885766Y-67345000D01*
X116302926Y-67172207D01*
X116622207Y-66852926D01*
X116795000Y-66435766D01*
X116795000Y-65984234D01*
X116622207Y-65567074D01*
X116302926Y-65247793D01*
X115885766Y-65075000D01*
X115434234Y-65075000D01*
X115017074Y-65247793D01*
X114697793Y-65567074D01*
X114525000Y-65984234D01*
X114525000Y-66305554D01*
X114355554Y-66475000D01*
X112614346Y-66475000D01*
X112649966Y-66439380D01*
X112975000Y-65654678D01*
X112975000Y-64805322D01*
X112649966Y-64020620D01*
X112049380Y-63420034D01*
X111264678Y-63095000D01*
X110415322Y-63095000D01*
X109630620Y-63420034D01*
X109030034Y-64020620D01*
X108705000Y-64805322D01*
X108705000Y-65654678D01*
X109030034Y-66439380D01*
X109065654Y-66475000D01*
X103982383Y-66475000D01*
X103909999Y-66460602D01*
X103837615Y-66475000D01*
X103837612Y-66475000D01*
X103623217Y-66517646D01*
X103380095Y-66680095D01*
X103339089Y-66741465D01*
X103191465Y-66889089D01*
X103191462Y-66889091D01*
X99717956Y-70362598D01*
X99385766Y-70225000D01*
X98934234Y-70225000D01*
X98517074Y-70397793D01*
X98289867Y-70625000D01*
X91530133Y-70625000D01*
X91302926Y-70397793D01*
X90885766Y-70225000D01*
X90434234Y-70225000D01*
X90017074Y-70397793D01*
X89697793Y-70717074D01*
X89525000Y-71134234D01*
X71395000Y-71134234D01*
X71395000Y-64805322D01*
X78345000Y-64805322D01*
X78345000Y-65654678D01*
X78670034Y-66439380D01*
X79270620Y-67039966D01*
X80055322Y-67365000D01*
X80904678Y-67365000D01*
X81689380Y-67039966D01*
X82289966Y-66439380D01*
X82615000Y-65654678D01*
X82615000Y-64805322D01*
X82460415Y-64432119D01*
X86643000Y-64432119D01*
X86643000Y-64987881D01*
X86855680Y-65501337D01*
X87248663Y-65894320D01*
X87762119Y-66107000D01*
X88317881Y-66107000D01*
X88831337Y-65894320D01*
X89035444Y-65690213D01*
X89779392Y-65690213D01*
X89848857Y-65932397D01*
X90372302Y-66119144D01*
X90927368Y-66091362D01*
X91311143Y-65932397D01*
X91380608Y-65690213D01*
X90580000Y-64889605D01*
X89779392Y-65690213D01*
X89035444Y-65690213D01*
X89224320Y-65501337D01*
X89303428Y-65310353D01*
X89357603Y-65441143D01*
X89599787Y-65510608D01*
X90400395Y-64710000D01*
X90759605Y-64710000D01*
X91560213Y-65510608D01*
X91802397Y-65441143D01*
X91852535Y-65300607D01*
X91935680Y-65501337D01*
X92328663Y-65894320D01*
X92842119Y-66107000D01*
X93397881Y-66107000D01*
X93911337Y-65894320D01*
X94304320Y-65501337D01*
X94390000Y-65294487D01*
X94475680Y-65501337D01*
X94868663Y-65894320D01*
X95382119Y-66107000D01*
X95937881Y-66107000D01*
X96451337Y-65894320D01*
X96844320Y-65501337D01*
X96930000Y-65294487D01*
X97015680Y-65501337D01*
X97408663Y-65894320D01*
X97922119Y-66107000D01*
X98477881Y-66107000D01*
X98991337Y-65894320D01*
X99384320Y-65501337D01*
X99470000Y-65294487D01*
X99555680Y-65501337D01*
X99948663Y-65894320D01*
X100462119Y-66107000D01*
X101017881Y-66107000D01*
X101531337Y-65894320D01*
X101924320Y-65501337D01*
X102010000Y-65294487D01*
X102095680Y-65501337D01*
X102488663Y-65894320D01*
X103002119Y-66107000D01*
X103557881Y-66107000D01*
X104071337Y-65894320D01*
X104464320Y-65501337D01*
X104677000Y-64987881D01*
X104677000Y-64432119D01*
X104464320Y-63918663D01*
X104071337Y-63525680D01*
X103557881Y-63313000D01*
X103002119Y-63313000D01*
X102488663Y-63525680D01*
X102095680Y-63918663D01*
X102010000Y-64125513D01*
X101924320Y-63918663D01*
X101531337Y-63525680D01*
X101017881Y-63313000D01*
X100462119Y-63313000D01*
X99948663Y-63525680D01*
X99555680Y-63918663D01*
X99470000Y-64125513D01*
X99384320Y-63918663D01*
X98991337Y-63525680D01*
X98477881Y-63313000D01*
X97922119Y-63313000D01*
X97408663Y-63525680D01*
X97015680Y-63918663D01*
X96930000Y-64125513D01*
X96844320Y-63918663D01*
X96451337Y-63525680D01*
X95937881Y-63313000D01*
X95382119Y-63313000D01*
X94868663Y-63525680D01*
X94475680Y-63918663D01*
X94390000Y-64125513D01*
X94304320Y-63918663D01*
X93911337Y-63525680D01*
X93397881Y-63313000D01*
X92842119Y-63313000D01*
X92328663Y-63525680D01*
X91935680Y-63918663D01*
X91856572Y-64109647D01*
X91802397Y-63978857D01*
X91560213Y-63909392D01*
X90759605Y-64710000D01*
X90400395Y-64710000D01*
X89599787Y-63909392D01*
X89357603Y-63978857D01*
X89307465Y-64119393D01*
X89224320Y-63918663D01*
X89035444Y-63729787D01*
X89779392Y-63729787D01*
X90580000Y-64530395D01*
X91380608Y-63729787D01*
X91311143Y-63487603D01*
X90787698Y-63300856D01*
X90232632Y-63328638D01*
X89848857Y-63487603D01*
X89779392Y-63729787D01*
X89035444Y-63729787D01*
X88831337Y-63525680D01*
X88317881Y-63313000D01*
X87762119Y-63313000D01*
X87248663Y-63525680D01*
X86855680Y-63918663D01*
X86643000Y-64432119D01*
X82460415Y-64432119D01*
X82289966Y-64020620D01*
X81689380Y-63420034D01*
X80904678Y-63095000D01*
X80055322Y-63095000D01*
X79270620Y-63420034D01*
X78670034Y-64020620D01*
X78345000Y-64805322D01*
X71395000Y-64805322D01*
X71395000Y-54015431D01*
X72425000Y-54015431D01*
X72425000Y-54904569D01*
X72765259Y-55726026D01*
X73393974Y-56354741D01*
X74215431Y-56695000D01*
X75104569Y-56695000D01*
X75926026Y-56354741D01*
X76554741Y-55726026D01*
X76895000Y-54904569D01*
X76895000Y-54015431D01*
X76838903Y-53880000D01*
X106105908Y-53880000D01*
X106221161Y-54459418D01*
X106549375Y-54950625D01*
X106847761Y-55150000D01*
X106549375Y-55349375D01*
X106221161Y-55840582D01*
X106105908Y-56420000D01*
X106221161Y-56999418D01*
X106549375Y-57490625D01*
X106847761Y-57690000D01*
X106549375Y-57889375D01*
X106221161Y-58380582D01*
X106105908Y-58960000D01*
X106221161Y-59539418D01*
X106549375Y-60030625D01*
X107040582Y-60358839D01*
X107473744Y-60445000D01*
X107766256Y-60445000D01*
X108199418Y-60358839D01*
X108690625Y-60030625D01*
X108705096Y-60008968D01*
X108771673Y-60169699D01*
X108950302Y-60348327D01*
X109183691Y-60445000D01*
X109874250Y-60445000D01*
X110033000Y-60286250D01*
X110033000Y-59087000D01*
X110287000Y-59087000D01*
X110287000Y-60286250D01*
X110445750Y-60445000D01*
X111136309Y-60445000D01*
X111369698Y-60348327D01*
X111548327Y-60169699D01*
X111645000Y-59936310D01*
X111645000Y-59245750D01*
X111486250Y-59087000D01*
X110287000Y-59087000D01*
X110033000Y-59087000D01*
X110013000Y-59087000D01*
X110013000Y-58833000D01*
X110033000Y-58833000D01*
X110033000Y-58813000D01*
X110287000Y-58813000D01*
X110287000Y-58833000D01*
X111486250Y-58833000D01*
X111645000Y-58674250D01*
X111645000Y-57983690D01*
X111548327Y-57750301D01*
X111369698Y-57571673D01*
X111208967Y-57505096D01*
X111230625Y-57490625D01*
X111558839Y-56999418D01*
X111674092Y-56420000D01*
X111558839Y-55840582D01*
X111230625Y-55349375D01*
X110932239Y-55150000D01*
X111230625Y-54950625D01*
X111454882Y-54615000D01*
X112275554Y-54615000D01*
X112925001Y-55264448D01*
X112925000Y-62089867D01*
X112697793Y-62317074D01*
X112525000Y-62734234D01*
X112525000Y-63185766D01*
X112697793Y-63602926D01*
X113017074Y-63922207D01*
X113434234Y-64095000D01*
X113885766Y-64095000D01*
X114302926Y-63922207D01*
X114622207Y-63602926D01*
X114795000Y-63185766D01*
X114795000Y-62734234D01*
X114622207Y-62317074D01*
X114395000Y-62089867D01*
X114395000Y-55032388D01*
X114409399Y-54960000D01*
X114352354Y-54673218D01*
X114352354Y-54673217D01*
X114189905Y-54430095D01*
X114128537Y-54389090D01*
X113754878Y-54015431D01*
X114425000Y-54015431D01*
X114425000Y-54904569D01*
X114765259Y-55726026D01*
X115393974Y-56354741D01*
X116215431Y-56695000D01*
X117104569Y-56695000D01*
X117926026Y-56354741D01*
X118554741Y-55726026D01*
X118895000Y-54904569D01*
X118895000Y-54015431D01*
X118554741Y-53193974D01*
X117926026Y-52565259D01*
X117104569Y-52225000D01*
X116215431Y-52225000D01*
X115393974Y-52565259D01*
X114765259Y-53193974D01*
X114425000Y-54015431D01*
X113754878Y-54015431D01*
X113150911Y-53411465D01*
X113109905Y-53350095D01*
X112866783Y-53187646D01*
X112652388Y-53145000D01*
X112652384Y-53145000D01*
X112580000Y-53130602D01*
X112507616Y-53145000D01*
X111454882Y-53145000D01*
X111230625Y-52809375D01*
X110739418Y-52481161D01*
X110306256Y-52395000D01*
X110013744Y-52395000D01*
X109580582Y-52481161D01*
X109089375Y-52809375D01*
X108890000Y-53107761D01*
X108690625Y-52809375D01*
X108199418Y-52481161D01*
X107766256Y-52395000D01*
X107473744Y-52395000D01*
X107040582Y-52481161D01*
X106549375Y-52809375D01*
X106221161Y-53300582D01*
X106105908Y-53880000D01*
X76838903Y-53880000D01*
X76554741Y-53193974D01*
X75926026Y-52565259D01*
X75104569Y-52225000D01*
X74215431Y-52225000D01*
X73393974Y-52565259D01*
X72765259Y-53193974D01*
X72425000Y-54015431D01*
X71395000Y-54015431D01*
X71395000Y-51195000D01*
X119925001Y-51195000D01*
X119925001Y-89628100D01*
X119925001Y-89628100D01*
G37*
X119925001Y-89628100D02*
X119555385Y-89475000D01*
X118964615Y-89475000D01*
X118418815Y-89701078D01*
X118001078Y-90118815D01*
X117775000Y-90664615D01*
X117775000Y-91255385D01*
X118001078Y-91801185D01*
X118418815Y-92218922D01*
X118964615Y-92445000D01*
X119555385Y-92445000D01*
X119925001Y-92291900D01*
X119925000Y-96128100D01*
X119555385Y-95975000D01*
X118964615Y-95975000D01*
X118418815Y-96201078D01*
X118001078Y-96618815D01*
X117775000Y-97164615D01*
X117775000Y-97755385D01*
X118001078Y-98301185D01*
X118418815Y-98718922D01*
X118964615Y-98945000D01*
X119555385Y-98945000D01*
X119925000Y-98791900D01*
X119925000Y-116069343D01*
X119881337Y-116025680D01*
X119367881Y-115813000D01*
X118812119Y-115813000D01*
X118298663Y-116025680D01*
X117905680Y-116418663D01*
X117693000Y-116932119D01*
X117693000Y-117487881D01*
X117905680Y-118001337D01*
X118298663Y-118394320D01*
X118812119Y-118607000D01*
X119367881Y-118607000D01*
X119881337Y-118394320D01*
X119925000Y-118350657D01*
X119925000Y-130069343D01*
X119881337Y-130025680D01*
X119367881Y-129813000D01*
X118812119Y-129813000D01*
X118298663Y-130025680D01*
X117905680Y-130418663D01*
X117693000Y-130932119D01*
X117693000Y-131487881D01*
X117905680Y-132001337D01*
X118298663Y-132394320D01*
X118812119Y-132607000D01*
X119367881Y-132607000D01*
X119881337Y-132394320D01*
X119925000Y-132350657D01*
X119925000Y-139725000D01*
X112545000Y-139725000D01*
X112545000Y-136015431D01*
X114425000Y-136015431D01*
X114425000Y-136904569D01*
X114765259Y-137726026D01*
X115393974Y-138354741D01*
X116215431Y-138695000D01*
X117104569Y-138695000D01*
X117926026Y-138354741D01*
X118554741Y-137726026D01*
X118895000Y-136904569D01*
X118895000Y-136015431D01*
X118554741Y-135193974D01*
X117926026Y-134565259D01*
X117104569Y-134225000D01*
X116215431Y-134225000D01*
X115393974Y-134565259D01*
X114765259Y-135193974D01*
X114425000Y-136015431D01*
X112545000Y-136015431D01*
X112545000Y-133395000D01*
X94403571Y-133395000D01*
X94403571Y-139725000D01*
X71395000Y-139725000D01*
X71395000Y-136015431D01*
X72425000Y-136015431D01*
X72425000Y-136904569D01*
X72765259Y-137726026D01*
X73393974Y-138354741D01*
X74215431Y-138695000D01*
X75104569Y-138695000D01*
X75926026Y-138354741D01*
X76554741Y-137726026D01*
X76895000Y-136904569D01*
X76895000Y-136015431D01*
X76768698Y-135710510D01*
X78838070Y-135710510D01*
X78838070Y-137709490D01*
X78887353Y-137957255D01*
X79027701Y-138167299D01*
X79237745Y-138307647D01*
X79485510Y-138356930D01*
X81484490Y-138356930D01*
X81732255Y-138307647D01*
X81942299Y-138167299D01*
X82082647Y-137957255D01*
X82131930Y-137709490D01*
X82131930Y-137292041D01*
X82274346Y-137635864D01*
X82734136Y-138095654D01*
X83334880Y-138344490D01*
X83985120Y-138344490D01*
X84585864Y-138095654D01*
X85045654Y-137635864D01*
X85247500Y-137148564D01*
X85449346Y-137635864D01*
X85909136Y-138095654D01*
X86509880Y-138344490D01*
X87160120Y-138344490D01*
X87760864Y-138095654D01*
X88220654Y-137635864D01*
X88469490Y-137035120D01*
X88469490Y-136384880D01*
X88390431Y-136194015D01*
X89628537Y-134955909D01*
X89689905Y-134914905D01*
X89852354Y-134671783D01*
X89895000Y-134457388D01*
X89909399Y-134385000D01*
X89895000Y-134312612D01*
X89895000Y-133282383D01*
X89909398Y-133209999D01*
X89895000Y-133137613D01*
X89895000Y-133137612D01*
X89852354Y-132923217D01*
X89689905Y-132680095D01*
X89628538Y-132639091D01*
X87921566Y-130932119D01*
X94833000Y-130932119D01*
X94833000Y-131487881D01*
X95045680Y-132001337D01*
X95438663Y-132394320D01*
X95952119Y-132607000D01*
X96507881Y-132607000D01*
X97021337Y-132394320D01*
X97414320Y-132001337D01*
X97627000Y-131487881D01*
X97627000Y-130932119D01*
X97414320Y-130418663D01*
X97021337Y-130025680D01*
X96507881Y-129813000D01*
X95952119Y-129813000D01*
X95438663Y-130025680D01*
X95045680Y-130418663D01*
X94833000Y-130932119D01*
X87921566Y-130932119D01*
X87730911Y-130741465D01*
X87689905Y-130680095D01*
X87446783Y-130517646D01*
X87232388Y-130475000D01*
X87232384Y-130475000D01*
X87160000Y-130460602D01*
X87087616Y-130475000D01*
X86030133Y-130475000D01*
X85802926Y-130247793D01*
X85385766Y-130075000D01*
X84934234Y-130075000D01*
X84517074Y-130247793D01*
X84197793Y-130567074D01*
X84025000Y-130984234D01*
X84025000Y-131435766D01*
X84197793Y-131852926D01*
X84517074Y-132172207D01*
X84934234Y-132345000D01*
X85385766Y-132345000D01*
X85802926Y-132172207D01*
X86030133Y-131945000D01*
X86855554Y-131945000D01*
X88425000Y-133514447D01*
X88425001Y-134080552D01*
X87350985Y-135154569D01*
X87160120Y-135075510D01*
X86509880Y-135075510D01*
X85909136Y-135324346D01*
X85449346Y-135784136D01*
X85247500Y-136271436D01*
X85045654Y-135784136D01*
X84585864Y-135324346D01*
X83985120Y-135075510D01*
X83334880Y-135075510D01*
X82734136Y-135324346D01*
X82274346Y-135784136D01*
X82131930Y-136127959D01*
X82131930Y-135710510D01*
X82082647Y-135462745D01*
X81942299Y-135252701D01*
X81732255Y-135112353D01*
X81484490Y-135063070D01*
X79485510Y-135063070D01*
X79237745Y-135112353D01*
X79027701Y-135252701D01*
X78887353Y-135462745D01*
X78838070Y-135710510D01*
X76768698Y-135710510D01*
X76554741Y-135193974D01*
X75926026Y-134565259D01*
X75104569Y-134225000D01*
X74215431Y-134225000D01*
X73393974Y-134565259D01*
X72765259Y-135193974D01*
X72425000Y-136015431D01*
X71395000Y-136015431D01*
X71395000Y-126734234D01*
X79275000Y-126734234D01*
X79275000Y-127185766D01*
X79447793Y-127602926D01*
X79675001Y-127830134D01*
X79675000Y-130089867D01*
X79447793Y-130317074D01*
X79275000Y-130734234D01*
X79275000Y-131185766D01*
X79447793Y-131602926D01*
X79767074Y-131922207D01*
X80184234Y-132095000D01*
X80635766Y-132095000D01*
X81052926Y-131922207D01*
X81372207Y-131602926D01*
X81545000Y-131185766D01*
X81545000Y-130734234D01*
X81372207Y-130317074D01*
X81145000Y-130089867D01*
X81145000Y-127830133D01*
X81372207Y-127602926D01*
X81545000Y-127185766D01*
X81545000Y-126734234D01*
X81372207Y-126317074D01*
X81052926Y-125997793D01*
X80635766Y-125825000D01*
X80184234Y-125825000D01*
X79767074Y-125997793D01*
X79447793Y-126317074D01*
X79275000Y-126734234D01*
X71395000Y-126734234D01*
X71395000Y-123164615D01*
X83675000Y-123164615D01*
X83675000Y-123755385D01*
X83901078Y-124301185D01*
X84318815Y-124718922D01*
X84864615Y-124945000D01*
X85455385Y-124945000D01*
X86001185Y-124718922D01*
X86418922Y-124301185D01*
X86645000Y-123755385D01*
X86645000Y-123164615D01*
X86418922Y-122618815D01*
X86001185Y-122201078D01*
X85455385Y-121975000D01*
X84864615Y-121975000D01*
X84318815Y-122201078D01*
X83901078Y-122618815D01*
X83675000Y-123164615D01*
X71395000Y-123164615D01*
X71395000Y-118664615D01*
X83675000Y-118664615D01*
X83675000Y-119255385D01*
X83901078Y-119801185D01*
X84318815Y-120218922D01*
X84864615Y-120445000D01*
X85455385Y-120445000D01*
X86001185Y-120218922D01*
X86418922Y-119801185D01*
X86645000Y-119255385D01*
X86645000Y-118664615D01*
X86418922Y-118118815D01*
X86001185Y-117701078D01*
X85455385Y-117475000D01*
X84864615Y-117475000D01*
X84318815Y-117701078D01*
X83901078Y-118118815D01*
X83675000Y-118664615D01*
X71395000Y-118664615D01*
X71395000Y-113164615D01*
X73675000Y-113164615D01*
X73675000Y-113755385D01*
X73901078Y-114301185D01*
X74318815Y-114718922D01*
X74864615Y-114945000D01*
X75455385Y-114945000D01*
X76001185Y-114718922D01*
X76418922Y-114301185D01*
X76645000Y-113755385D01*
X76645000Y-113164615D01*
X80175000Y-113164615D01*
X80175000Y-113755385D01*
X80401078Y-114301185D01*
X80818815Y-114718922D01*
X81364615Y-114945000D01*
X81955385Y-114945000D01*
X82501185Y-114718922D01*
X82918922Y-114301185D01*
X83145000Y-113755385D01*
X83145000Y-113164615D01*
X82950430Y-112694880D01*
X85525510Y-112694880D01*
X85525510Y-113345120D01*
X85774346Y-113945864D01*
X86234136Y-114405654D01*
X86420412Y-114482812D01*
X86467646Y-114720274D01*
X86467647Y-114720275D01*
X86630096Y-114963397D01*
X86691463Y-115004401D01*
X87425000Y-115737939D01*
X87425001Y-123137611D01*
X87410602Y-123210000D01*
X87467646Y-123496782D01*
X87467647Y-123496783D01*
X87630096Y-123739905D01*
X87691463Y-123780909D01*
X92589091Y-128678538D01*
X92630095Y-128739905D01*
X92873217Y-128902354D01*
X93087612Y-128945000D01*
X93087616Y-128945000D01*
X93160000Y-128959398D01*
X93232384Y-128945000D01*
X95022344Y-128945000D01*
X95045680Y-129001337D01*
X95438663Y-129394320D01*
X95952119Y-129607000D01*
X96507881Y-129607000D01*
X97021337Y-129394320D01*
X97414320Y-129001337D01*
X97627000Y-128487881D01*
X97627000Y-127932119D01*
X97414320Y-127418663D01*
X97021337Y-127025680D01*
X96507881Y-126813000D01*
X95952119Y-126813000D01*
X95438663Y-127025680D01*
X95045680Y-127418663D01*
X95022344Y-127475000D01*
X93464447Y-127475000D01*
X89154062Y-123164615D01*
X90175000Y-123164615D01*
X90175000Y-123755385D01*
X90401078Y-124301185D01*
X90818815Y-124718922D01*
X91364615Y-124945000D01*
X91955385Y-124945000D01*
X92501185Y-124718922D01*
X92918922Y-124301185D01*
X93145000Y-123755385D01*
X93145000Y-123164615D01*
X92918922Y-122618815D01*
X92501185Y-122201078D01*
X91955385Y-121975000D01*
X91364615Y-121975000D01*
X90818815Y-122201078D01*
X90401078Y-122618815D01*
X90175000Y-123164615D01*
X89154062Y-123164615D01*
X88895000Y-122905554D01*
X88895000Y-118664615D01*
X90175000Y-118664615D01*
X90175000Y-119255385D01*
X90401078Y-119801185D01*
X90818815Y-120218922D01*
X91364615Y-120445000D01*
X91955385Y-120445000D01*
X92501185Y-120218922D01*
X92918922Y-119801185D01*
X93145000Y-119255385D01*
X93145000Y-118664615D01*
X92918922Y-118118815D01*
X92501185Y-117701078D01*
X91955385Y-117475000D01*
X91364615Y-117475000D01*
X90818815Y-117701078D01*
X90401078Y-118118815D01*
X90175000Y-118664615D01*
X88895000Y-118664615D01*
X88895000Y-115505880D01*
X88909399Y-115433492D01*
X88852354Y-115146710D01*
X88852354Y-115146709D01*
X88689905Y-114903587D01*
X88628538Y-114862583D01*
X88128736Y-114362782D01*
X88545654Y-113945864D01*
X88794490Y-113345120D01*
X88794490Y-112694880D01*
X88545654Y-112094136D01*
X88085864Y-111634346D01*
X87485120Y-111385510D01*
X86834880Y-111385510D01*
X86234136Y-111634346D01*
X85774346Y-112094136D01*
X85525510Y-112694880D01*
X82950430Y-112694880D01*
X82918922Y-112618815D01*
X82501185Y-112201078D01*
X81955385Y-111975000D01*
X81364615Y-111975000D01*
X80818815Y-112201078D01*
X80401078Y-112618815D01*
X80175000Y-113164615D01*
X76645000Y-113164615D01*
X76418922Y-112618815D01*
X76001185Y-112201078D01*
X75455385Y-111975000D01*
X74864615Y-111975000D01*
X74318815Y-112201078D01*
X73901078Y-112618815D01*
X73675000Y-113164615D01*
X71395000Y-113164615D01*
X71395000Y-108664615D01*
X73675000Y-108664615D01*
X73675000Y-109255385D01*
X73901078Y-109801185D01*
X74318815Y-110218922D01*
X74864615Y-110445000D01*
X75455385Y-110445000D01*
X76001185Y-110218922D01*
X76418922Y-109801185D01*
X76645000Y-109255385D01*
X76645000Y-108664615D01*
X80175000Y-108664615D01*
X80175000Y-109255385D01*
X80401078Y-109801185D01*
X80818815Y-110218922D01*
X81364615Y-110445000D01*
X81955385Y-110445000D01*
X82501185Y-110218922D01*
X82918922Y-109801185D01*
X83145000Y-109255385D01*
X83145000Y-108664615D01*
X82956904Y-108210510D01*
X85513070Y-108210510D01*
X85513070Y-110209490D01*
X85562353Y-110457255D01*
X85702701Y-110667299D01*
X85912745Y-110807647D01*
X86160510Y-110856930D01*
X88159490Y-110856930D01*
X88407255Y-110807647D01*
X88617299Y-110667299D01*
X88681404Y-110571360D01*
X91124490Y-113014447D01*
X91124491Y-115767101D01*
X91110092Y-115839490D01*
X91167136Y-116126272D01*
X91167137Y-116126273D01*
X91329586Y-116369395D01*
X91390953Y-116410399D01*
X94856335Y-119875782D01*
X94833000Y-119932119D01*
X94833000Y-120487881D01*
X95045680Y-121001337D01*
X95438663Y-121394320D01*
X95952119Y-121607000D01*
X96507881Y-121607000D01*
X97021337Y-121394320D01*
X97414320Y-121001337D01*
X97627000Y-120487881D01*
X97627000Y-119932119D01*
X97414320Y-119418663D01*
X97021337Y-119025680D01*
X96507881Y-118813000D01*
X95952119Y-118813000D01*
X95895782Y-118836335D01*
X95464447Y-118405000D01*
X95952119Y-118607000D01*
X96507881Y-118607000D01*
X97021337Y-118394320D01*
X97414320Y-118001337D01*
X97627000Y-117487881D01*
X97627000Y-116932119D01*
X97414320Y-116418663D01*
X97021337Y-116025680D01*
X96507881Y-115813000D01*
X95952119Y-115813000D01*
X95438663Y-116025680D01*
X95045680Y-116418663D01*
X94833000Y-116932119D01*
X94833000Y-117487881D01*
X95035000Y-117975554D01*
X92594490Y-115535044D01*
X92594490Y-113164615D01*
X93675000Y-113164615D01*
X93675000Y-113755385D01*
X93901078Y-114301185D01*
X94318815Y-114718922D01*
X94864615Y-114945000D01*
X95455385Y-114945000D01*
X96001185Y-114718922D01*
X96418922Y-114301185D01*
X96645000Y-113755385D01*
X96645000Y-113164615D01*
X100175000Y-113164615D01*
X100175000Y-113755385D01*
X100401078Y-114301185D01*
X100818815Y-114718922D01*
X101364615Y-114945000D01*
X101955385Y-114945000D01*
X102501185Y-114718922D01*
X102918922Y-114301185D01*
X103145000Y-113755385D01*
X103145000Y-113164615D01*
X107175000Y-113164615D01*
X107175000Y-113755385D01*
X107401078Y-114301185D01*
X107818815Y-114718922D01*
X108364615Y-114945000D01*
X108955385Y-114945000D01*
X109501185Y-114718922D01*
X109918922Y-114301185D01*
X110145000Y-113755385D01*
X110145000Y-113164615D01*
X113675000Y-113164615D01*
X113675000Y-113755385D01*
X113901078Y-114301185D01*
X114318815Y-114718922D01*
X114864615Y-114945000D01*
X115455385Y-114945000D01*
X116001185Y-114718922D01*
X116418922Y-114301185D01*
X116645000Y-113755385D01*
X116645000Y-113164615D01*
X116418922Y-112618815D01*
X116001185Y-112201078D01*
X115455385Y-111975000D01*
X114864615Y-111975000D01*
X114318815Y-112201078D01*
X113901078Y-112618815D01*
X113675000Y-113164615D01*
X110145000Y-113164615D01*
X109918922Y-112618815D01*
X109501185Y-112201078D01*
X108955385Y-111975000D01*
X108364615Y-111975000D01*
X107818815Y-112201078D01*
X107401078Y-112618815D01*
X107175000Y-113164615D01*
X103145000Y-113164615D01*
X102918922Y-112618815D01*
X102501185Y-112201078D01*
X101955385Y-111975000D01*
X101364615Y-111975000D01*
X100818815Y-112201078D01*
X100401078Y-112618815D01*
X100175000Y-113164615D01*
X96645000Y-113164615D01*
X96418922Y-112618815D01*
X96001185Y-112201078D01*
X95455385Y-111975000D01*
X94864615Y-111975000D01*
X94318815Y-112201078D01*
X93901078Y-112618815D01*
X93675000Y-113164615D01*
X92594490Y-113164615D01*
X92594490Y-112782383D01*
X92608888Y-112709999D01*
X92594490Y-112637613D01*
X92594490Y-112637612D01*
X92551844Y-112423217D01*
X92389395Y-112180095D01*
X92328028Y-112139091D01*
X88930401Y-108741465D01*
X88889395Y-108680095D01*
X88866228Y-108664615D01*
X93675000Y-108664615D01*
X93675000Y-109255385D01*
X93901078Y-109801185D01*
X94318815Y-110218922D01*
X94864615Y-110445000D01*
X95455385Y-110445000D01*
X96001185Y-110218922D01*
X96418922Y-109801185D01*
X96645000Y-109255385D01*
X96645000Y-108664615D01*
X100175000Y-108664615D01*
X100175000Y-109255385D01*
X100401078Y-109801185D01*
X100818815Y-110218922D01*
X101364615Y-110445000D01*
X101955385Y-110445000D01*
X102501185Y-110218922D01*
X102918922Y-109801185D01*
X103145000Y-109255385D01*
X103145000Y-108664615D01*
X107175000Y-108664615D01*
X107175000Y-109255385D01*
X107401078Y-109801185D01*
X107818815Y-110218922D01*
X108364615Y-110445000D01*
X108955385Y-110445000D01*
X109501185Y-110218922D01*
X109918922Y-109801185D01*
X110145000Y-109255385D01*
X110145000Y-108664615D01*
X113675000Y-108664615D01*
X113675000Y-109255385D01*
X113901078Y-109801185D01*
X114318815Y-110218922D01*
X114864615Y-110445000D01*
X115455385Y-110445000D01*
X116001185Y-110218922D01*
X116418922Y-109801185D01*
X116645000Y-109255385D01*
X116645000Y-108664615D01*
X116418922Y-108118815D01*
X116001185Y-107701078D01*
X115455385Y-107475000D01*
X114864615Y-107475000D01*
X114318815Y-107701078D01*
X113901078Y-108118815D01*
X113675000Y-108664615D01*
X110145000Y-108664615D01*
X109918922Y-108118815D01*
X109501185Y-107701078D01*
X108955385Y-107475000D01*
X108364615Y-107475000D01*
X107818815Y-107701078D01*
X107401078Y-108118815D01*
X107175000Y-108664615D01*
X103145000Y-108664615D01*
X102918922Y-108118815D01*
X102501185Y-107701078D01*
X101955385Y-107475000D01*
X101364615Y-107475000D01*
X100818815Y-107701078D01*
X100401078Y-108118815D01*
X100175000Y-108664615D01*
X96645000Y-108664615D01*
X96418922Y-108118815D01*
X96001185Y-107701078D01*
X95455385Y-107475000D01*
X94864615Y-107475000D01*
X94318815Y-107701078D01*
X93901078Y-108118815D01*
X93675000Y-108664615D01*
X88866228Y-108664615D01*
X88806930Y-108624994D01*
X88806930Y-108210510D01*
X88757647Y-107962745D01*
X88617299Y-107752701D01*
X88407255Y-107612353D01*
X88159490Y-107563070D01*
X86160510Y-107563070D01*
X85912745Y-107612353D01*
X85702701Y-107752701D01*
X85562353Y-107962745D01*
X85513070Y-108210510D01*
X82956904Y-108210510D01*
X82918922Y-108118815D01*
X82501185Y-107701078D01*
X81955385Y-107475000D01*
X81364615Y-107475000D01*
X80818815Y-107701078D01*
X80401078Y-108118815D01*
X80175000Y-108664615D01*
X76645000Y-108664615D01*
X76418922Y-108118815D01*
X76001185Y-107701078D01*
X75455385Y-107475000D01*
X74864615Y-107475000D01*
X74318815Y-107701078D01*
X73901078Y-108118815D01*
X73675000Y-108664615D01*
X71395000Y-108664615D01*
X71395000Y-103164615D01*
X83675000Y-103164615D01*
X83675000Y-103755385D01*
X83901078Y-104301185D01*
X84318815Y-104718922D01*
X84864615Y-104945000D01*
X85455385Y-104945000D01*
X86001185Y-104718922D01*
X86418922Y-104301185D01*
X86645000Y-103755385D01*
X86645000Y-103164615D01*
X90175000Y-103164615D01*
X90175000Y-103755385D01*
X90401078Y-104301185D01*
X90818815Y-104718922D01*
X91364615Y-104945000D01*
X91955385Y-104945000D01*
X92501185Y-104718922D01*
X92918922Y-104301185D01*
X93145000Y-103755385D01*
X93145000Y-103164615D01*
X92918922Y-102618815D01*
X92501185Y-102201078D01*
X91955385Y-101975000D01*
X91364615Y-101975000D01*
X90818815Y-102201078D01*
X90401078Y-102618815D01*
X90175000Y-103164615D01*
X86645000Y-103164615D01*
X86418922Y-102618815D01*
X86001185Y-102201078D01*
X85455385Y-101975000D01*
X84864615Y-101975000D01*
X84318815Y-102201078D01*
X83901078Y-102618815D01*
X83675000Y-103164615D01*
X71395000Y-103164615D01*
X71395000Y-98664615D01*
X83675000Y-98664615D01*
X83675000Y-99255385D01*
X83901078Y-99801185D01*
X84318815Y-100218922D01*
X84864615Y-100445000D01*
X85455385Y-100445000D01*
X86001185Y-100218922D01*
X86418922Y-99801185D01*
X86462905Y-99695000D01*
X90357095Y-99695000D01*
X90401078Y-99801185D01*
X90818815Y-100218922D01*
X91364615Y-100445000D01*
X91955385Y-100445000D01*
X92501185Y-100218922D01*
X92918922Y-99801185D01*
X93145000Y-99255385D01*
X93145000Y-98664615D01*
X92918922Y-98118815D01*
X92501185Y-97701078D01*
X91955385Y-97475000D01*
X91364615Y-97475000D01*
X90818815Y-97701078D01*
X90401078Y-98118815D01*
X90357095Y-98225000D01*
X86462905Y-98225000D01*
X86418922Y-98118815D01*
X86001185Y-97701078D01*
X85455385Y-97475000D01*
X84864615Y-97475000D01*
X84318815Y-97701078D01*
X83901078Y-98118815D01*
X83675000Y-98664615D01*
X71395000Y-98664615D01*
X71395000Y-97164615D01*
X113275000Y-97164615D01*
X113275000Y-97755385D01*
X113501078Y-98301185D01*
X113918815Y-98718922D01*
X114464615Y-98945000D01*
X115055385Y-98945000D01*
X115601185Y-98718922D01*
X116018922Y-98301185D01*
X116245000Y-97755385D01*
X116245000Y-97164615D01*
X116018922Y-96618815D01*
X115601185Y-96201078D01*
X115055385Y-95975000D01*
X114464615Y-95975000D01*
X113918815Y-96201078D01*
X113501078Y-96618815D01*
X113275000Y-97164615D01*
X71395000Y-97164615D01*
X71395000Y-93265322D01*
X78345000Y-93265322D01*
X78345000Y-94114678D01*
X78670034Y-94899380D01*
X79270620Y-95499966D01*
X80055322Y-95825000D01*
X80904678Y-95825000D01*
X81689380Y-95499966D01*
X82289966Y-94899380D01*
X82615000Y-94114678D01*
X82615000Y-93265322D01*
X82289966Y-92480620D01*
X81689380Y-91880034D01*
X80904678Y-91555000D01*
X80055322Y-91555000D01*
X79270620Y-91880034D01*
X78670034Y-92480620D01*
X78345000Y-93265322D01*
X71395000Y-93265322D01*
X71395000Y-91234234D01*
X91025000Y-91234234D01*
X91025000Y-91685766D01*
X91197793Y-92102926D01*
X91517074Y-92422207D01*
X91934234Y-92595000D01*
X92255554Y-92595000D01*
X95275000Y-95614447D01*
X95275000Y-95935766D01*
X95447793Y-96352926D01*
X95767074Y-96672207D01*
X96184234Y-96845000D01*
X96635766Y-96845000D01*
X97052926Y-96672207D01*
X97372207Y-96352926D01*
X97545000Y-95935766D01*
X97545000Y-95484234D01*
X97372207Y-95067074D01*
X97052926Y-94747793D01*
X96635766Y-94575000D01*
X96314447Y-94575000D01*
X95004769Y-93265322D01*
X108705000Y-93265322D01*
X108705000Y-94114678D01*
X109030034Y-94899380D01*
X109630620Y-95499966D01*
X110415322Y-95825000D01*
X111264678Y-95825000D01*
X112049380Y-95499966D01*
X112649966Y-94899380D01*
X112975000Y-94114678D01*
X112975000Y-93265322D01*
X112649966Y-92480620D01*
X112049380Y-91880034D01*
X111264678Y-91555000D01*
X110415322Y-91555000D01*
X109630620Y-91880034D01*
X109030034Y-92480620D01*
X108705000Y-93265322D01*
X95004769Y-93265322D01*
X93295000Y-91555554D01*
X93295000Y-91484234D01*
X95275000Y-91484234D01*
X95275000Y-91935766D01*
X95447793Y-92352926D01*
X95767074Y-92672207D01*
X96184234Y-92845000D01*
X96635766Y-92845000D01*
X97052926Y-92672207D01*
X97280133Y-92445000D01*
X99039867Y-92445000D01*
X99267074Y-92672207D01*
X99684234Y-92845000D01*
X100135766Y-92845000D01*
X100552926Y-92672207D01*
X100872207Y-92352926D01*
X101045000Y-91935766D01*
X101045000Y-91484234D01*
X100872207Y-91067074D01*
X100552926Y-90747793D01*
X100352117Y-90664615D01*
X113275000Y-90664615D01*
X113275000Y-91255385D01*
X113501078Y-91801185D01*
X113918815Y-92218922D01*
X114464615Y-92445000D01*
X115055385Y-92445000D01*
X115601185Y-92218922D01*
X116018922Y-91801185D01*
X116245000Y-91255385D01*
X116245000Y-90664615D01*
X116018922Y-90118815D01*
X115601185Y-89701078D01*
X115055385Y-89475000D01*
X114464615Y-89475000D01*
X113918815Y-89701078D01*
X113501078Y-90118815D01*
X113275000Y-90664615D01*
X100352117Y-90664615D01*
X100135766Y-90575000D01*
X99684234Y-90575000D01*
X99267074Y-90747793D01*
X99039867Y-90975000D01*
X97280133Y-90975000D01*
X97052926Y-90747793D01*
X96635766Y-90575000D01*
X96184234Y-90575000D01*
X95767074Y-90747793D01*
X95447793Y-91067074D01*
X95275000Y-91484234D01*
X93295000Y-91484234D01*
X93295000Y-91234234D01*
X93122207Y-90817074D01*
X92802926Y-90497793D01*
X92385766Y-90325000D01*
X91934234Y-90325000D01*
X91517074Y-90497793D01*
X91197793Y-90817074D01*
X91025000Y-91234234D01*
X71395000Y-91234234D01*
X71395000Y-79424000D01*
X71906041Y-79424000D01*
X72022350Y-80008725D01*
X72353570Y-80504430D01*
X72637281Y-80694000D01*
X72353570Y-80883570D01*
X72022350Y-81379275D01*
X71906041Y-81964000D01*
X72022350Y-82548725D01*
X72353570Y-83044430D01*
X72637281Y-83234000D01*
X72353570Y-83423570D01*
X72022350Y-83919275D01*
X71906041Y-84504000D01*
X72022350Y-85088725D01*
X72353570Y-85584430D01*
X72849275Y-85915650D01*
X73286402Y-86002600D01*
X73581598Y-86002600D01*
X74018725Y-85915650D01*
X74514430Y-85584430D01*
X74704000Y-85300719D01*
X74893570Y-85584430D01*
X75389275Y-85915650D01*
X75826402Y-86002600D01*
X76121598Y-86002600D01*
X76558725Y-85915650D01*
X77015398Y-85610510D01*
X114988070Y-85610510D01*
X114988070Y-87609490D01*
X115037353Y-87857255D01*
X115177701Y-88067299D01*
X115387745Y-88207647D01*
X115635510Y-88256930D01*
X117634490Y-88256930D01*
X117882255Y-88207647D01*
X118092299Y-88067299D01*
X118232647Y-87857255D01*
X118281930Y-87609490D01*
X118281930Y-85610510D01*
X118232647Y-85362745D01*
X118092299Y-85152701D01*
X117882255Y-85012353D01*
X117634490Y-84963070D01*
X115635510Y-84963070D01*
X115387745Y-85012353D01*
X115177701Y-85152701D01*
X115037353Y-85362745D01*
X114988070Y-85610510D01*
X77015398Y-85610510D01*
X77054430Y-85584430D01*
X77385650Y-85088725D01*
X77501959Y-84504000D01*
X77448300Y-84234234D01*
X78275000Y-84234234D01*
X78275000Y-84685766D01*
X78447793Y-85102926D01*
X78767074Y-85422207D01*
X79184234Y-85595000D01*
X79635766Y-85595000D01*
X80052926Y-85422207D01*
X80372207Y-85102926D01*
X80545000Y-84685766D01*
X80545000Y-84234234D01*
X80372207Y-83817074D01*
X80145000Y-83589867D01*
X80145000Y-82780444D01*
X80785156Y-82140289D01*
X81017074Y-82372207D01*
X81434234Y-82545000D01*
X81755554Y-82545000D01*
X82889090Y-83678537D01*
X82930095Y-83739905D01*
X83173217Y-83902354D01*
X83387612Y-83945000D01*
X83387615Y-83945000D01*
X83459999Y-83959398D01*
X83532383Y-83945000D01*
X85289867Y-83945000D01*
X85517074Y-84172207D01*
X85934234Y-84345000D01*
X86385766Y-84345000D01*
X86725000Y-84204485D01*
X86725000Y-84385766D01*
X86897793Y-84802926D01*
X87217074Y-85122207D01*
X87634234Y-85295000D01*
X88085766Y-85295000D01*
X88502926Y-85122207D01*
X88822207Y-84802926D01*
X88995000Y-84385766D01*
X88995000Y-83934234D01*
X88822207Y-83517074D01*
X88502926Y-83197793D01*
X88085766Y-83025000D01*
X88045000Y-83025000D01*
X88045000Y-82474880D01*
X115000510Y-82474880D01*
X115000510Y-83125120D01*
X115249346Y-83725864D01*
X115709136Y-84185654D01*
X116309880Y-84434490D01*
X116960120Y-84434490D01*
X117560864Y-84185654D01*
X118020654Y-83725864D01*
X118269490Y-83125120D01*
X118269490Y-82474880D01*
X118020654Y-81874136D01*
X117560864Y-81414346D01*
X116960120Y-81165510D01*
X116309880Y-81165510D01*
X115709136Y-81414346D01*
X115249346Y-81874136D01*
X115000510Y-82474880D01*
X88045000Y-82474880D01*
X88045000Y-78080133D01*
X88272207Y-77852926D01*
X88445000Y-77435766D01*
X88445000Y-76984234D01*
X88272207Y-76567074D01*
X87952926Y-76247793D01*
X87535766Y-76075000D01*
X87084234Y-76075000D01*
X86667074Y-76247793D01*
X86347793Y-76567074D01*
X86175000Y-76984234D01*
X86175000Y-77435766D01*
X86347793Y-77852926D01*
X86575001Y-78080134D01*
X86575000Y-82153383D01*
X86385766Y-82075000D01*
X85934234Y-82075000D01*
X85517074Y-82247793D01*
X85289867Y-82475000D01*
X83764447Y-82475000D01*
X82795000Y-81505554D01*
X82795000Y-81184234D01*
X82622207Y-80767074D01*
X82450133Y-80595000D01*
X82635766Y-80595000D01*
X83052926Y-80422207D01*
X83372207Y-80102926D01*
X83545000Y-79685766D01*
X83545000Y-79234234D01*
X83372207Y-78817074D01*
X83052926Y-78497793D01*
X82635766Y-78325000D01*
X82184234Y-78325000D01*
X81767074Y-78497793D01*
X81447793Y-78817074D01*
X81275000Y-79234234D01*
X81275000Y-79571551D01*
X78941463Y-81905089D01*
X78880096Y-81946093D01*
X78839092Y-82007460D01*
X78839091Y-82007461D01*
X78717646Y-82189216D01*
X78660602Y-82475998D01*
X78675001Y-82548387D01*
X78675000Y-83589867D01*
X78447793Y-83817074D01*
X78275000Y-84234234D01*
X77448300Y-84234234D01*
X77385650Y-83919275D01*
X77054430Y-83423570D01*
X76770719Y-83234000D01*
X77054430Y-83044430D01*
X77385650Y-82548725D01*
X77501959Y-81964000D01*
X77385650Y-81379275D01*
X77054430Y-80883570D01*
X76770719Y-80694000D01*
X77054430Y-80504430D01*
X77385650Y-80008725D01*
X77501959Y-79424000D01*
X77385650Y-78839275D01*
X77054430Y-78343570D01*
X76766174Y-78150963D01*
X77180821Y-77772490D01*
X77428968Y-77243027D01*
X77308469Y-77011000D01*
X76101000Y-77011000D01*
X76101000Y-77031000D01*
X75847000Y-77031000D01*
X75847000Y-77011000D01*
X75827000Y-77011000D01*
X75827000Y-76757000D01*
X75847000Y-76757000D01*
X75847000Y-75550183D01*
X76101000Y-75550183D01*
X76101000Y-76757000D01*
X77308469Y-76757000D01*
X77428968Y-76524973D01*
X77180821Y-75995510D01*
X76748947Y-75601312D01*
X76333026Y-75429042D01*
X76101000Y-75550183D01*
X75847000Y-75550183D01*
X75614974Y-75429042D01*
X75199053Y-75601312D01*
X74913520Y-75861936D01*
X74895757Y-75772635D01*
X74755409Y-75562591D01*
X74545365Y-75422243D01*
X74297600Y-75372960D01*
X72570400Y-75372960D01*
X72322635Y-75422243D01*
X72112591Y-75562591D01*
X71972243Y-75772635D01*
X71922960Y-76020400D01*
X71922960Y-77747600D01*
X71972243Y-77995365D01*
X72112591Y-78205409D01*
X72322635Y-78345757D01*
X72348651Y-78350932D01*
X72022350Y-78839275D01*
X71906041Y-79424000D01*
X71395000Y-79424000D01*
X71395000Y-73984234D01*
X74275000Y-73984234D01*
X74275000Y-74435766D01*
X74447793Y-74852926D01*
X74767074Y-75172207D01*
X75184234Y-75345000D01*
X75635766Y-75345000D01*
X76052926Y-75172207D01*
X76372207Y-74852926D01*
X76545000Y-74435766D01*
X76545000Y-73984234D01*
X76372207Y-73567074D01*
X76052926Y-73247793D01*
X75635766Y-73075000D01*
X75184234Y-73075000D01*
X74767074Y-73247793D01*
X74447793Y-73567074D01*
X74275000Y-73984234D01*
X71395000Y-73984234D01*
X71395000Y-71134234D01*
X89525000Y-71134234D01*
X89525000Y-71585766D01*
X89697793Y-72002926D01*
X90017074Y-72322207D01*
X90434234Y-72495000D01*
X90885766Y-72495000D01*
X91302926Y-72322207D01*
X91530133Y-72095000D01*
X98289867Y-72095000D01*
X98517074Y-72322207D01*
X98934234Y-72495000D01*
X99385766Y-72495000D01*
X99425001Y-72478748D01*
X99425000Y-77155553D01*
X97255554Y-79325000D01*
X96934234Y-79325000D01*
X96517074Y-79497793D01*
X96197793Y-79817074D01*
X96025000Y-80234234D01*
X96025000Y-80685766D01*
X96197793Y-81102926D01*
X96517074Y-81422207D01*
X96934234Y-81595000D01*
X97385766Y-81595000D01*
X97802926Y-81422207D01*
X98122207Y-81102926D01*
X98295000Y-80685766D01*
X98295000Y-80364446D01*
X100628538Y-78030909D01*
X100689905Y-77989905D01*
X100820216Y-77794880D01*
X114950510Y-77794880D01*
X114950510Y-78445120D01*
X115199346Y-79045864D01*
X115659136Y-79505654D01*
X116259880Y-79754490D01*
X116910120Y-79754490D01*
X117510864Y-79505654D01*
X117970654Y-79045864D01*
X118219490Y-78445120D01*
X118219490Y-77794880D01*
X117970654Y-77194136D01*
X117510864Y-76734346D01*
X116910120Y-76485510D01*
X116259880Y-76485510D01*
X115659136Y-76734346D01*
X115199346Y-77194136D01*
X114950510Y-77794880D01*
X100820216Y-77794880D01*
X100852354Y-77746783D01*
X100895000Y-77532388D01*
X100895000Y-77532387D01*
X100909399Y-77460000D01*
X100895000Y-77387612D01*
X100895000Y-73310510D01*
X114938070Y-73310510D01*
X114938070Y-75309490D01*
X114987353Y-75557255D01*
X115127701Y-75767299D01*
X115337745Y-75907647D01*
X115585510Y-75956930D01*
X117584490Y-75956930D01*
X117832255Y-75907647D01*
X118042299Y-75767299D01*
X118182647Y-75557255D01*
X118231930Y-75309490D01*
X118231930Y-73310510D01*
X118182647Y-73062745D01*
X118042299Y-72852701D01*
X117832255Y-72712353D01*
X117584490Y-72663070D01*
X115585510Y-72663070D01*
X115337745Y-72712353D01*
X115127701Y-72852701D01*
X114987353Y-73062745D01*
X114938070Y-73310510D01*
X100895000Y-73310510D01*
X100895000Y-71264446D01*
X104214447Y-67945000D01*
X114587616Y-67945000D01*
X114660000Y-67959398D01*
X114732384Y-67945000D01*
X114732388Y-67945000D01*
X114946783Y-67902354D01*
X115189905Y-67739905D01*
X115230911Y-67678535D01*
X115564446Y-67345000D01*
X115885766Y-67345000D01*
X116302926Y-67172207D01*
X116622207Y-66852926D01*
X116795000Y-66435766D01*
X116795000Y-65984234D01*
X116622207Y-65567074D01*
X116302926Y-65247793D01*
X115885766Y-65075000D01*
X115434234Y-65075000D01*
X115017074Y-65247793D01*
X114697793Y-65567074D01*
X114525000Y-65984234D01*
X114525000Y-66305554D01*
X114355554Y-66475000D01*
X112614346Y-66475000D01*
X112649966Y-66439380D01*
X112975000Y-65654678D01*
X112975000Y-64805322D01*
X112649966Y-64020620D01*
X112049380Y-63420034D01*
X111264678Y-63095000D01*
X110415322Y-63095000D01*
X109630620Y-63420034D01*
X109030034Y-64020620D01*
X108705000Y-64805322D01*
X108705000Y-65654678D01*
X109030034Y-66439380D01*
X109065654Y-66475000D01*
X103982383Y-66475000D01*
X103909999Y-66460602D01*
X103837615Y-66475000D01*
X103837612Y-66475000D01*
X103623217Y-66517646D01*
X103380095Y-66680095D01*
X103339089Y-66741465D01*
X103191465Y-66889089D01*
X103191462Y-66889091D01*
X99717956Y-70362598D01*
X99385766Y-70225000D01*
X98934234Y-70225000D01*
X98517074Y-70397793D01*
X98289867Y-70625000D01*
X91530133Y-70625000D01*
X91302926Y-70397793D01*
X90885766Y-70225000D01*
X90434234Y-70225000D01*
X90017074Y-70397793D01*
X89697793Y-70717074D01*
X89525000Y-71134234D01*
X71395000Y-71134234D01*
X71395000Y-64805322D01*
X78345000Y-64805322D01*
X78345000Y-65654678D01*
X78670034Y-66439380D01*
X79270620Y-67039966D01*
X80055322Y-67365000D01*
X80904678Y-67365000D01*
X81689380Y-67039966D01*
X82289966Y-66439380D01*
X82615000Y-65654678D01*
X82615000Y-64805322D01*
X82460415Y-64432119D01*
X86643000Y-64432119D01*
X86643000Y-64987881D01*
X86855680Y-65501337D01*
X87248663Y-65894320D01*
X87762119Y-66107000D01*
X88317881Y-66107000D01*
X88831337Y-65894320D01*
X89035444Y-65690213D01*
X89779392Y-65690213D01*
X89848857Y-65932397D01*
X90372302Y-66119144D01*
X90927368Y-66091362D01*
X91311143Y-65932397D01*
X91380608Y-65690213D01*
X90580000Y-64889605D01*
X89779392Y-65690213D01*
X89035444Y-65690213D01*
X89224320Y-65501337D01*
X89303428Y-65310353D01*
X89357603Y-65441143D01*
X89599787Y-65510608D01*
X90400395Y-64710000D01*
X90759605Y-64710000D01*
X91560213Y-65510608D01*
X91802397Y-65441143D01*
X91852535Y-65300607D01*
X91935680Y-65501337D01*
X92328663Y-65894320D01*
X92842119Y-66107000D01*
X93397881Y-66107000D01*
X93911337Y-65894320D01*
X94304320Y-65501337D01*
X94390000Y-65294487D01*
X94475680Y-65501337D01*
X94868663Y-65894320D01*
X95382119Y-66107000D01*
X95937881Y-66107000D01*
X96451337Y-65894320D01*
X96844320Y-65501337D01*
X96930000Y-65294487D01*
X97015680Y-65501337D01*
X97408663Y-65894320D01*
X97922119Y-66107000D01*
X98477881Y-66107000D01*
X98991337Y-65894320D01*
X99384320Y-65501337D01*
X99470000Y-65294487D01*
X99555680Y-65501337D01*
X99948663Y-65894320D01*
X100462119Y-66107000D01*
X101017881Y-66107000D01*
X101531337Y-65894320D01*
X101924320Y-65501337D01*
X102010000Y-65294487D01*
X102095680Y-65501337D01*
X102488663Y-65894320D01*
X103002119Y-66107000D01*
X103557881Y-66107000D01*
X104071337Y-65894320D01*
X104464320Y-65501337D01*
X104677000Y-64987881D01*
X104677000Y-64432119D01*
X104464320Y-63918663D01*
X104071337Y-63525680D01*
X103557881Y-63313000D01*
X103002119Y-63313000D01*
X102488663Y-63525680D01*
X102095680Y-63918663D01*
X102010000Y-64125513D01*
X101924320Y-63918663D01*
X101531337Y-63525680D01*
X101017881Y-63313000D01*
X100462119Y-63313000D01*
X99948663Y-63525680D01*
X99555680Y-63918663D01*
X99470000Y-64125513D01*
X99384320Y-63918663D01*
X98991337Y-63525680D01*
X98477881Y-63313000D01*
X97922119Y-63313000D01*
X97408663Y-63525680D01*
X97015680Y-63918663D01*
X96930000Y-64125513D01*
X96844320Y-63918663D01*
X96451337Y-63525680D01*
X95937881Y-63313000D01*
X95382119Y-63313000D01*
X94868663Y-63525680D01*
X94475680Y-63918663D01*
X94390000Y-64125513D01*
X94304320Y-63918663D01*
X93911337Y-63525680D01*
X93397881Y-63313000D01*
X92842119Y-63313000D01*
X92328663Y-63525680D01*
X91935680Y-63918663D01*
X91856572Y-64109647D01*
X91802397Y-63978857D01*
X91560213Y-63909392D01*
X90759605Y-64710000D01*
X90400395Y-64710000D01*
X89599787Y-63909392D01*
X89357603Y-63978857D01*
X89307465Y-64119393D01*
X89224320Y-63918663D01*
X89035444Y-63729787D01*
X89779392Y-63729787D01*
X90580000Y-64530395D01*
X91380608Y-63729787D01*
X91311143Y-63487603D01*
X90787698Y-63300856D01*
X90232632Y-63328638D01*
X89848857Y-63487603D01*
X89779392Y-63729787D01*
X89035444Y-63729787D01*
X88831337Y-63525680D01*
X88317881Y-63313000D01*
X87762119Y-63313000D01*
X87248663Y-63525680D01*
X86855680Y-63918663D01*
X86643000Y-64432119D01*
X82460415Y-64432119D01*
X82289966Y-64020620D01*
X81689380Y-63420034D01*
X80904678Y-63095000D01*
X80055322Y-63095000D01*
X79270620Y-63420034D01*
X78670034Y-64020620D01*
X78345000Y-64805322D01*
X71395000Y-64805322D01*
X71395000Y-54015431D01*
X72425000Y-54015431D01*
X72425000Y-54904569D01*
X72765259Y-55726026D01*
X73393974Y-56354741D01*
X74215431Y-56695000D01*
X75104569Y-56695000D01*
X75926026Y-56354741D01*
X76554741Y-55726026D01*
X76895000Y-54904569D01*
X76895000Y-54015431D01*
X76838903Y-53880000D01*
X106105908Y-53880000D01*
X106221161Y-54459418D01*
X106549375Y-54950625D01*
X106847761Y-55150000D01*
X106549375Y-55349375D01*
X106221161Y-55840582D01*
X106105908Y-56420000D01*
X106221161Y-56999418D01*
X106549375Y-57490625D01*
X106847761Y-57690000D01*
X106549375Y-57889375D01*
X106221161Y-58380582D01*
X106105908Y-58960000D01*
X106221161Y-59539418D01*
X106549375Y-60030625D01*
X107040582Y-60358839D01*
X107473744Y-60445000D01*
X107766256Y-60445000D01*
X108199418Y-60358839D01*
X108690625Y-60030625D01*
X108705096Y-60008968D01*
X108771673Y-60169699D01*
X108950302Y-60348327D01*
X109183691Y-60445000D01*
X109874250Y-60445000D01*
X110033000Y-60286250D01*
X110033000Y-59087000D01*
X110287000Y-59087000D01*
X110287000Y-60286250D01*
X110445750Y-60445000D01*
X111136309Y-60445000D01*
X111369698Y-60348327D01*
X111548327Y-60169699D01*
X111645000Y-59936310D01*
X111645000Y-59245750D01*
X111486250Y-59087000D01*
X110287000Y-59087000D01*
X110033000Y-59087000D01*
X110013000Y-59087000D01*
X110013000Y-58833000D01*
X110033000Y-58833000D01*
X110033000Y-58813000D01*
X110287000Y-58813000D01*
X110287000Y-58833000D01*
X111486250Y-58833000D01*
X111645000Y-58674250D01*
X111645000Y-57983690D01*
X111548327Y-57750301D01*
X111369698Y-57571673D01*
X111208967Y-57505096D01*
X111230625Y-57490625D01*
X111558839Y-56999418D01*
X111674092Y-56420000D01*
X111558839Y-55840582D01*
X111230625Y-55349375D01*
X110932239Y-55150000D01*
X111230625Y-54950625D01*
X111454882Y-54615000D01*
X112275554Y-54615000D01*
X112925001Y-55264448D01*
X112925000Y-62089867D01*
X112697793Y-62317074D01*
X112525000Y-62734234D01*
X112525000Y-63185766D01*
X112697793Y-63602926D01*
X113017074Y-63922207D01*
X113434234Y-64095000D01*
X113885766Y-64095000D01*
X114302926Y-63922207D01*
X114622207Y-63602926D01*
X114795000Y-63185766D01*
X114795000Y-62734234D01*
X114622207Y-62317074D01*
X114395000Y-62089867D01*
X114395000Y-55032388D01*
X114409399Y-54960000D01*
X114352354Y-54673218D01*
X114352354Y-54673217D01*
X114189905Y-54430095D01*
X114128537Y-54389090D01*
X113754878Y-54015431D01*
X114425000Y-54015431D01*
X114425000Y-54904569D01*
X114765259Y-55726026D01*
X115393974Y-56354741D01*
X116215431Y-56695000D01*
X117104569Y-56695000D01*
X117926026Y-56354741D01*
X118554741Y-55726026D01*
X118895000Y-54904569D01*
X118895000Y-54015431D01*
X118554741Y-53193974D01*
X117926026Y-52565259D01*
X117104569Y-52225000D01*
X116215431Y-52225000D01*
X115393974Y-52565259D01*
X114765259Y-53193974D01*
X114425000Y-54015431D01*
X113754878Y-54015431D01*
X113150911Y-53411465D01*
X113109905Y-53350095D01*
X112866783Y-53187646D01*
X112652388Y-53145000D01*
X112652384Y-53145000D01*
X112580000Y-53130602D01*
X112507616Y-53145000D01*
X111454882Y-53145000D01*
X111230625Y-52809375D01*
X110739418Y-52481161D01*
X110306256Y-52395000D01*
X110013744Y-52395000D01*
X109580582Y-52481161D01*
X109089375Y-52809375D01*
X108890000Y-53107761D01*
X108690625Y-52809375D01*
X108199418Y-52481161D01*
X107766256Y-52395000D01*
X107473744Y-52395000D01*
X107040582Y-52481161D01*
X106549375Y-52809375D01*
X106221161Y-53300582D01*
X106105908Y-53880000D01*
X76838903Y-53880000D01*
X76554741Y-53193974D01*
X75926026Y-52565259D01*
X75104569Y-52225000D01*
X74215431Y-52225000D01*
X73393974Y-52565259D01*
X72765259Y-53193974D01*
X72425000Y-54015431D01*
X71395000Y-54015431D01*
X71395000Y-51195000D01*
X119925001Y-51195000D01*
X119925001Y-89628100D01*
G04 #@! TD*
M02*
